<?xml version="1.0" encoding="utf-8"?>
<!-- Generator: Adobe Illustrator 17.0.0, SVG Export Plug-In . SVG Version: 6.00 Build 0)  -->
<!DOCTYPE svg PUBLIC "-//W3C//DTD SVG 1.1//EN" "http://www.w3.org/Graphics/SVG/1.1/DTD/svg11.dtd">
<svg version="1.1" id="_xF91C_迹_x5F_21" xmlns="http://www.w3.org/2000/svg" xmlns:xlink="http://www.w3.org/1999/xlink" x="0px"
	 y="0px" width="340px" height="137.222px" viewBox="0 0 340 137.222" enable-background="new 0 0 340 137.222"
	 xml:space="preserve">
<g>
	<path fill="#777777" d="M62.926,78.697c-15.343,0-27.781,12.438-27.781,27.781c0,2.661,0.396,5.225,1.095,7.662
		c3.329,11.612,14.004,20.119,26.686,20.119c12.682,0,23.357-8.507,26.686-20.119c0.698-2.436,1.095-5.001,1.095-7.662
		C90.706,91.135,78.269,78.697,62.926,78.697z"/>
	<path fill="#777777" d="M274.789,78.697c-15.343,0-27.781,12.438-27.781,27.781c0,2.661,0.396,5.225,1.095,7.662
		c3.329,11.612,14.004,20.119,26.686,20.119c12.682,0,23.357-8.507,26.686-20.119c0.698-2.436,1.095-5.001,1.095-7.662
		C302.57,91.135,290.131,78.697,274.789,78.697z"/>
	<path fill="#777777" d="M335.41,83.032c0,0,1.895-7.514-3.263-14.6l0-0.001c-0.358-0.711-0.602-1.138-0.602-1.138
		s-4.158-13.489-65.981-21.122c-8.835-1.519-26.113-25.276-74.363-37.08c-25.718-6.292-62.896-8.391-85.26-1.557
		C70.366,18.404,68.305,33.601,44.242,39.511c-6.256,1.537-14.731,3.244-22.477,6.247C15.046,48.361,8.957,51.37,8.375,58.552
		C6.613,80.328,3.627,78.111,3.405,88.545c-0.136,6.351-0.083,9.061,0.154,13.694c0.341,6.679,5.858,11.9,12.546,11.9h11.825
		c-0.596-2.601-1.217-5.174-1.217-7.956c0-19.935,16.16-36.096,36.095-36.096c19.935,0,36.095,16.16,36.095,36.096
		c0,2.782-0.328,5.355-0.924,7.956H239.91c-0.596-2.601-1.218-5.174-1.218-7.956c0-19.935,16.161-36.096,36.096-36.096
		c19.935,0,36.095,16.16,36.095,36.096c0,2.782-0.328,5.355-0.924,7.956h20.533C338.777,114.14,338.861,91.177,335.41,83.032z
		 M151.436,43.243c-0.011,0.02-0.02,0.042-0.032,0.062c-0.2,0.334-0.53,0.569-0.931,0.563l-73.033-1.122
		c-0.982-0.014-1.489-1.287-0.797-2.043c3.784-4.134,13.956-13.707,31.456-19.561c19.068-6.379,34.739-6.128,38.919-5.961
		c0.445,0.018,0.774,0.351,0.937,0.78c0.013,0.035,0.037,0.061,0.047,0.096c0.017,0.06,0.07,0.096,0.079,0.159l3.511,26.268
		C151.629,42.764,151.554,43.019,151.436,43.243z M236.955,47.666l-70.627-2.909c-0.46-0.018-0.84-0.374-0.902-0.844l-3.669-26.862
		c-0.076-0.58,0.349-1.095,0.917-1.106c4.688-0.088,20.821-0.328,42.788,8.822c10.574,4.405,21.644,10.14,32.81,19.088
		C239.855,45.123,238.959,47.745,236.955,47.666z"/>
</g>
</svg>
