<?xml version="1.0" encoding="utf-8"?>
<!-- Generator: Adobe Illustrator 17.0.0, SVG Export Plug-In . SVG Version: 6.00 Build 0)  -->
<!DOCTYPE svg PUBLIC "-//W3C//DTD SVG 1.1//EN" "http://www.w3.org/Graphics/SVG/1.1/DTD/svg11.dtd">
<svg version="1.1" id="레이어_1" xmlns="http://www.w3.org/2000/svg" xmlns:xlink="http://www.w3.org/1999/xlink" x="0px"
	 y="0px" width="116.949px" height="112.712px" viewBox="0 0 116.949 112.712" enable-background="new 0 0 116.949 112.712"
	 xml:space="preserve">
<path fill="#FFFFFF" d="M52.729,7.879c1.08-2.184,3.312-3.57,5.745-3.579c2.443,0.01,4.669,1.396,5.754,3.579l11.843,24.007
	c0.942,1.893,2.734,3.202,4.827,3.508l26.492,3.848c2.413,0.358,4.416,2.045,5.176,4.363c0.75,2.318,0.119,4.87-1.62,6.567
	L91.771,68.859c-1.506,1.477-2.203,3.599-1.84,5.678l4.526,26.387c0.406,2.399-0.578,4.836-2.543,6.265
	c-1.993,1.429-4.597,1.625-6.758,0.488L61.466,95.222c-1.878-0.989-4.096-0.98-5.974,0l-23.696,12.455
	c-2.16,1.137-4.775,0.941-6.753-0.488c-1.965-1.438-2.954-3.866-2.542-6.265l4.521-26.392c0.368-2.074-0.335-4.196-1.84-5.673
	L6.006,50.172c-1.749-1.697-2.375-4.244-1.62-6.567c0.755-2.318,2.762-4.005,5.176-4.363l26.492-3.848
	c2.093-0.306,3.886-1.616,4.822-3.508L52.729,7.879z"/>
</svg>
