<?xml version="1.0" encoding="utf-8"?>
<!-- Generator: Adobe Illustrator 17.0.0, SVG Export Plug-In . SVG Version: 6.00 Build 0)  -->
<!DOCTYPE svg PUBLIC "-//W3C//DTD SVG 1.1//EN" "http://www.w3.org/Graphics/SVG/1.1/DTD/svg11.dtd">
<svg version="1.1" id="레이어_1" xmlns="http://www.w3.org/2000/svg" xmlns:xlink="http://www.w3.org/1999/xlink" x="0px"
	 y="0px" width="140.678px" height="125.218px" viewBox="0 0 140.678 125.218" enable-background="new 0 0 140.678 125.218"
	 xml:space="preserve">
<path fill-rule="evenodd" clip-rule="evenodd" fill="#FFFFFF" d="M17.998,120.844c-2.976-2.977-2.569-9.339,4.201-16.106
	c11.092-11.093,23.644-21.035,35.801-31.391c2.387,2.64,4.73,5.322,7.049,8.024c-10.196,11.991-20.011,24.341-30.942,35.272
	C27.336,123.415,20.975,123.822,17.998,120.844L17.998,120.844L17.998,120.844z M69.218,63.469c1.949-1.79,3.871-3.604,5.758-5.451
	c11.604-11.362,0.352-19.039,11.893-30.583L110.734,3.57c1.283-1.282,3.381-1.282,4.662,0l0,0c1.283,1.28,1.283,3.38,0,4.662
	c-6.881,6.88-13.764,13.763-20.643,20.644c-1.783,1.782,0.18,3.746,1.963,1.963l20.644-20.645c1.281-1.282,3.379-1.282,4.66,0l0,0
	c1.283,1.282,1.283,3.38,0,4.664c-6.881,6.88-13.764,13.761-20.645,20.643c-1.779,1.782,0.182,3.745,1.965,1.964l20.644-20.644
	c1.281-1.282,3.379-1.282,4.662,0l0,0c1.281,1.281,1.281,3.38,0,4.661c-6.883,6.882-13.764,13.764-20.646,20.644
	c-1.781,1.783,0.182,3.746,1.965,1.964l20.645-20.644c1.281-1.282,3.379-1.282,4.662,0l0,0c1.281,1.282,1.281,3.38,0,4.662
	l-23.865,23.864c-11.545,11.543-19.221,0.291-30.582,11.895c-1.717,1.752-3.404,3.535-5.072,5.343
	C73.556,67.317,71.375,65.407,69.218,63.469L69.218,63.469L69.218,63.469z M116.013,120.844c-2.979,2.979-9.342,2.571-16.109-4.2
	c-16.402-16.399-30.287-35.995-46.72-52.777c-11.362-11.604-19.039-0.352-30.582-11.895C-14.132,15.238,10.405-9.299,47.138,27.435
	c11.545,11.544,0.292,19.221,11.895,30.583c16.782,16.435,36.379,30.319,52.778,46.72
	C118.582,111.505,118.988,117.867,116.013,120.844L116.013,120.844L116.013,120.844z"/>
</svg>
