<?xml version="1.0" encoding="utf-8"?>
<!-- Generator: Adobe Illustrator 17.0.0, SVG Export Plug-In . SVG Version: 6.00 Build 0)  -->
<!DOCTYPE svg PUBLIC "-//W3C//DTD SVG 1.1//EN" "http://www.w3.org/Graphics/SVG/1.1/DTD/svg11.dtd" [
	<!ENTITY ns_extend "http://ns.adobe.com/Extensibility/1.0/">
	<!ENTITY ns_ai "http://ns.adobe.com/AdobeIllustrator/10.0/">
	<!ENTITY ns_graphs "http://ns.adobe.com/Graphs/1.0/">
	<!ENTITY ns_vars "http://ns.adobe.com/Variables/1.0/">
	<!ENTITY ns_imrep "http://ns.adobe.com/ImageReplacement/1.0/">
	<!ENTITY ns_sfw "http://ns.adobe.com/SaveForWeb/1.0/">
	<!ENTITY ns_custom "http://ns.adobe.com/GenericCustomNamespace/1.0/">
	<!ENTITY ns_adobe_xpath "http://ns.adobe.com/XPath/1.0/">
]>
<svg version="1.1" id="레이어_1" xmlns:x="&ns_extend;" xmlns:i="&ns_ai;" xmlns:graph="&ns_graphs;"
	 xmlns="http://www.w3.org/2000/svg" xmlns:xlink="http://www.w3.org/1999/xlink" x="0px" y="0px" width="615px" height="459px"
	 viewBox="0 0 615 459" enable-background="new 0 0 615 459" xml:space="preserve">
<metadata>
	<sfw  xmlns="&ns_sfw;">
		<slices></slices>
		<sliceSourceBounds  height="446.354" width="602.021" y="-731.334" x="111" bottomLeftOrigin="true"></sliceSourceBounds>
	</sfw>
</metadata>
<polyline fill="none" stroke="#C3C3C3" stroke-miterlimit="10" points="8.333,10.333 8.333,23 95.667,110.333 95.667,124.333 "/>
<polyline fill="none" stroke="#C3C3C3" stroke-miterlimit="10" points="413.667,125 413.667,111 503,21.667 591.334,21.667 
	606.667,6.333 "/>
<polyline fill="none" stroke="#C3C3C3" stroke-miterlimit="10" points="8.333,449.015 8.333,436.348 95.667,349.015 95.667,315.013 
	"/>
<polyline fill="none" stroke="#C3C3C3" stroke-miterlimit="10" points="413.667,314.346 413.667,348.348 503,437.681 
	591.334,437.681 603.451,449.799 "/>
<line fill="none" stroke="#C3C3C3" stroke-miterlimit="10" x1="257.748" y1="394.998" x2="309.75" y2="447"/>
<line fill="none" stroke="#C3C3C3" stroke-miterlimit="10" x1="256.668" y1="46.666" x2="307.331" y2="11.333"/>
<circle fill="#C3C3C3" cx="8.333" cy="10.667" r="3.333"/>
<circle fill="#C3C3C3" cx="307.333" cy="10.667" r="3.333"/>
<circle fill="#C3C3C3" cx="603.333" cy="10.667" r="3.333"/>
<circle fill="#C3C3C3" cx="95.333" cy="123.333" r="3.333"/>
<circle fill="#C3C3C3" cx="256.668" cy="46.666" r="3.333"/>
<circle fill="#C3C3C3" cx="413.667" cy="125" r="3.333"/>
<circle fill="#C3C3C3" cx="413.667" cy="315.667" r="3.333"/>
<circle fill="#C3C3C3" cx="95.333" cy="317" r="3.333"/>
<circle fill="#C3C3C3" cx="9" cy="449" r="3.333"/>
<circle fill="#C3C3C3" cx="311.001" cy="449" r="3.333"/>
<circle fill="#C3C3C3" cx="258.251" cy="395.25" r="3.333"/>
<circle fill="#C3C3C3" cx="603.667" cy="449" r="3.333"/>
</svg>
