<?xml version="1.0" encoding="utf-8"?>
<!-- Generator: Adobe Illustrator 17.0.0, SVG Export Plug-In . SVG Version: 6.00 Build 0)  -->
<!DOCTYPE svg PUBLIC "-//W3C//DTD SVG 1.1//EN" "http://www.w3.org/Graphics/SVG/1.1/DTD/svg11.dtd">
<svg version="1.1" id="레이어_1" xmlns="http://www.w3.org/2000/svg" xmlns:xlink="http://www.w3.org/1999/xlink" x="0px"
	 y="0px" width="35.75px" height="30.5px" viewBox="0 0 35.75 30.5" enable-background="new 0 0 35.75 30.5" xml:space="preserve">
<g>
	<g>
		
			<path fill="none" stroke="#FFFFFF" stroke-width="1.5" stroke-linecap="round" stroke-linejoin="round" stroke-miterlimit="10" d="
			M17.96,5.805c-0.032-0.04-0.126-0.158-0.211-0.26c-2.144-2.55-4.79-3.898-8.174-3.208c-3.507,0.715-5.86,2.835-6.836,6.275
			c-0.976,3.443-0.06,6.461,2.527,8.934c1.336,1.277,2.716,2.511,4.107,3.73c2.614,2.292,5.23,4.582,7.885,6.826
			c1.009,0.852,0.737,0.864,1.763-0.026c4.012-3.48,8.029-6.956,11.953-10.533c4.073-3.712,3.857-9.917-0.402-13.407
			c-2.88-2.36-7.174-2.868-10.503-0.154C19.35,4.569,17.96,5.805,17.96,5.805z"/>
	</g>
	<path fill="none" stroke="#FFFFFF" stroke-width="1.5" stroke-linecap="round" stroke-linejoin="round" stroke-miterlimit="10" d="
		M5.655,10.026c0-2.993,2.426-5.419,5.419-5.419"/>
	<path fill="none" stroke="#FFFFFF" stroke-width="1.5" stroke-linecap="round" stroke-linejoin="round" stroke-miterlimit="10" d="
		M20.51,7.678c0.875-1.817,2.734-3.072,4.886-3.072"/>
</g>
</svg>
