<?xml version="1.0" encoding="utf-8"?>
<!-- Generator: Adobe Illustrator 17.0.0, SVG Export Plug-In . SVG Version: 6.00 Build 0)  -->
<!DOCTYPE svg PUBLIC "-//W3C//DTD SVG 1.1//EN" "http://www.w3.org/Graphics/SVG/1.1/DTD/svg11.dtd">
<svg version="1.1" id="레이어_1" xmlns="http://www.w3.org/2000/svg" xmlns:xlink="http://www.w3.org/1999/xlink" x="0px"
	 y="0px" width="261.017px" height="355.932px" viewBox="0 0 261.017 355.932" enable-background="new 0 0 261.017 355.932"
	 xml:space="preserve">
<g>
	<g>
		<path fill="#FFFFFF" d="M130.513,5.066c-68.96,0-124.852,55.901-124.852,124.852s124.852,220.83,124.852,220.83
			s124.843-151.879,124.843-220.83S199.464,5.066,130.513,5.066z M130.513,203.328c-42.224,0-76.44-34.225-76.44-76.44
			c0-42.224,34.216-76.44,76.44-76.44c42.215,0,76.44,34.216,76.44,76.44C206.953,169.103,172.728,203.328,130.513,203.328z"/>
	</g>
	<path fill="#FFFFFF" d="M130.508,157.459l-26.239,13.795c-3.053,1.605-6.621-0.987-6.038-4.387l5.011-29.218l-21.228-20.692
		c-2.47-2.408-1.107-6.602,2.306-7.098l29.336-4.263l13.12-26.583c1.526-3.093,5.937-3.093,7.463,0l13.12,26.583l29.336,4.263
		c3.413,0.496,4.776,4.69,2.306,7.098l-21.228,20.692l5.011,29.218c0.583,3.399-2.985,5.992-6.038,4.387L130.508,157.459z"/>
</g>
</svg>
