<svg xmlns="http://www.w3.org/2000/svg" viewBox="0 0 7.84 7.78"><defs><style>.cls-1{fill:#082e42;}</style></defs><g id="Layer_2" data-name="Layer 2"><g id="Layer_1-2" data-name="Layer 1"><path class="cls-1" d="M4.71,7.11l-.2,0a.32.32,0,0,0-.25.37.39.39,0,0,0,.13.2.29.29,0,0,0,.24,0l.23,0a.31.31,0,1,0-.15-.61Z"/><path class="cls-1" d="M7,2.89a.31.31,0,0,0,.12.16.34.34,0,0,0,.28,0,.33.33,0,0,0,.2-.4l-.08-.23a.31.31,0,0,0-.41-.17A.32.32,0,0,0,7,2.7,1.07,1.07,0,0,1,7,2.89Z"/><path class="cls-1" d="M5.73,6.66l-.17.11a.31.31,0,0,0-.11.43.28.28,0,0,0,.09.1.32.32,0,0,0,.34,0l.2-.12a.32.32,0,0,0-.35-.53Z"/><path class="cls-1" d="M7.83,3.77a.31.31,0,1,0-.62,0V4a.31.31,0,0,0,.13.27.34.34,0,0,0,.17,0A.31.31,0,0,0,7.84,4,1.93,1.93,0,0,0,7.83,3.77Z"/><path class="cls-1" d="M7,5.83a.33.33,0,0,0-.44.06,1,1,0,0,1-.13.16.33.33,0,0,0,0,.45h0a.31.31,0,0,0,.42,0l.15-.19A.31.31,0,0,0,7,5.83Z"/><path class="cls-1" d="M7.45,4.69a.31.31,0,0,0-.39.21A1.46,1.46,0,0,1,7,5.09a.32.32,0,0,0,.11.37l.07,0a.31.31,0,0,0,.41-.19c0-.07,0-.15.08-.22A.32.32,0,0,0,7.45,4.69Z"/><path class="cls-1" d="M3.34,7.16a3.07,3.07,0,0,1-.81-.26h0a.76.76,0,0,1-.18-.09h0L2,6.61A3.29,3.29,0,0,1,1.23,2,3.12,3.12,0,0,1,2,1.22h0a3.31,3.31,0,0,1,3.69,0l-.24.36c-.07.1,0,.17.09.16l1.07-.1a.18.18,0,0,0,.16-.23l-.29-1c0-.12-.11-.13-.18,0L6.1.66A3.88,3.88,0,0,0,3.25.06L3,.12h0A3.86,3.86,0,0,0,.78,1.57v0a.18.18,0,0,0-.05.07l-.09.12v0A4,4,0,0,0,0,4.09H0c0,.08,0,.16,0,.24H0a2,2,0,0,0,0,.24A3.91,3.91,0,0,0,1.15,6.7h0a4.11,4.11,0,0,0,.5.42,4.07,4.07,0,0,0,1.56.66.32.32,0,0,0,.37-.26A.31.31,0,0,0,3.34,7.16Z"/><path class="cls-1" d="M3.73,1.37a.26.26,0,0,0-.26.26V4.17l2.32,1.2.12,0a.27.27,0,0,0,.23-.14A.26.26,0,0,0,6,4.92L4,3.86V1.63A.26.26,0,0,0,3.73,1.37Z"/></g></g></svg>