<svg xmlns="http://www.w3.org/2000/svg" viewBox="0 0 7.18 8"><defs><style>.cls-1{fill:#221f20;}</style></defs><g id="Layer_2" data-name="Layer 2"><g id="Layer_1-2" data-name="Layer 1"><path class="cls-1" d="M7.18,8H0V7.13A2.78,2.78,0,0,1,2.68,4.26H4.5A2.78,2.78,0,0,1,7.18,7.13ZM.63,7.36H6.55V7.13a2.16,2.16,0,0,0-2-2.24H2.68A2.16,2.16,0,0,0,.63,7.13Z"/><path class="cls-1" d="M3.59,4.1a2.05,2.05,0,1,1,2.05-2A2.05,2.05,0,0,1,3.59,4.1Zm0-3.47A1.42,1.42,0,1,0,5,2.05,1.43,1.43,0,0,0,3.59.63Z"/></g></g></svg>