<?xml version="1.0" encoding="utf-8"?>
<!-- Generator: Adobe Illustrator 17.0.0, SVG Export Plug-In . SVG Version: 6.00 Build 0)  -->
<!DOCTYPE svg PUBLIC "-//W3C//DTD SVG 1.1//EN" "http://www.w3.org/Graphics/SVG/1.1/DTD/svg11.dtd" [
	<!ENTITY ns_extend "http://ns.adobe.com/Extensibility/1.0/">
	<!ENTITY ns_ai "http://ns.adobe.com/AdobeIllustrator/10.0/">
	<!ENTITY ns_graphs "http://ns.adobe.com/Graphs/1.0/">
	<!ENTITY ns_vars "http://ns.adobe.com/Variables/1.0/">
	<!ENTITY ns_imrep "http://ns.adobe.com/ImageReplacement/1.0/">
	<!ENTITY ns_sfw "http://ns.adobe.com/SaveForWeb/1.0/">
	<!ENTITY ns_custom "http://ns.adobe.com/GenericCustomNamespace/1.0/">
	<!ENTITY ns_adobe_xpath "http://ns.adobe.com/XPath/1.0/">
]>
<svg version="1.1" id="레이어_1" xmlns:x="&ns_extend;" xmlns:i="&ns_ai;" xmlns:graph="&ns_graphs;"
	 xmlns="http://www.w3.org/2000/svg" xmlns:xlink="http://www.w3.org/1999/xlink" x="0px" y="0px" width="1163px" height="578px"
	 viewBox="0 0 1163 578" enable-background="new 0 0 1163 578" xml:space="preserve">
<metadata>
	<sfw  xmlns="&ns_sfw;">
		<slices></slices>
		<sliceSourceBounds  x="-272.35" y="151.526" width="1148.607" height="566.266" bottomLeftOrigin="true"></sliceSourceBounds>
	</sfw>
</metadata>
<g>
	<g>
		<polygon fill="#FFFFFF" points="331.46,59.092 313.067,59.092 322.016,50.145 318.699,46.827 306.431,59.092 278.472,59.092 
			298.243,39.321 315.589,39.32 315.588,34.627 302.935,34.629 315.94,21.624 312.622,18.307 299.616,31.312 299.618,18.657 
			294.926,18.657 294.923,36.005 275.154,55.775 275.154,27.816 287.42,15.548 284.101,12.231 275.154,21.179 275.154,2.787 
			270.463,2.787 270.463,21.179 261.515,12.231 258.197,15.548 270.463,27.816 270.463,55.775 250.692,36.005 250.69,18.657 
			245.998,18.657 245.999,31.311 232.995,18.307 229.677,21.624 242.684,34.631 230.027,34.629 230.026,39.321 247.376,39.323 
			267.145,59.092 239.184,59.092 226.918,46.828 223.6,50.146 232.548,59.092 214.157,59.092 214.157,63.784 232.551,63.784 
			223.6,72.733 226.918,76.05 239.186,63.784 267.144,63.784 247.373,83.555 230.027,83.558 230.028,88.249 242.681,88.248 
			229.676,101.252 232.994,104.57 246,91.563 245.999,104.221 250.69,104.221 250.693,86.87 270.463,67.101 270.463,95.062 
			258.198,107.329 261.516,110.647 270.463,101.699 270.463,120.089 275.154,120.089 275.154,101.697 284.101,110.647 
			287.42,107.329 275.154,95.06 275.154,67.101 294.925,86.872 294.926,104.219 299.619,104.219 299.617,91.565 312.622,104.57 
			315.94,101.252 302.935,88.247 315.589,88.248 315.59,83.557 298.242,83.554 278.472,63.784 306.432,63.784 318.699,76.049 
			322.016,72.731 313.068,63.784 331.46,63.784 		"/>
	</g>
	<g>
		<path fill="#FFFFFF" d="M530.514,48.967l5.479-10.751l-1.874-1.127c-7.338-4.414-18.754-4.929-29.792-1.34
			c-0.402,0.131-0.789,0.285-1.185,0.425c0.01-0.422,0.031-0.843,0.031-1.264c0-11.608-4.015-22.306-10.479-27.918l-1.651-1.435
			l-8.533,8.533l-8.533-8.533l-1.651,1.435c-6.464,5.613-10.48,16.31-10.48,27.918c0,0.42,0.01,0.835,0.02,1.251
			c-0.391-0.138-0.78-0.286-1.172-0.413c-11.041-3.585-22.456-3.072-29.792,1.341l-1.874,1.127l5.479,10.751l-10.751,5.477
			l0.852,2.014c3.34,7.884,12.273,15.01,23.314,18.597c0.4,0.13,0.798,0.245,1.196,0.364c-0.253,0.33-0.513,0.653-0.757,0.99
			c-6.822,9.393-9.861,20.407-7.932,28.747l0.493,2.13l11.92-1.886l1.886,11.919l2.179-0.189c8.529-0.742,18.066-7.037,24.89-16.429
			c0.247-0.339,0.483-0.681,0.719-1.023c0.235,0.341,0.462,0.688,0.705,1.023c6.824,9.392,16.36,15.687,24.889,16.429l2.178,0.189
			l1.889-11.918l11.919,1.885l0.493-2.13c1.93-8.339-1.109-19.354-7.932-28.747c-0.247-0.339-0.498-0.669-0.75-0.999
			c0.396-0.118,0.797-0.227,1.189-0.355c11.041-3.587,19.974-10.712,23.315-18.595l0.854-2.013L530.514,48.967z M473.85,12.066
			l8.661,8.66l8.66-8.66c4.55,5.064,7.311,13.569,7.311,22.845c0,1.074-0.051,2.148-0.126,3.215
			c-5.393,2.555-10.026,5.966-13.377,9.918c-3.786,4.465-5.615,9.214-5.356,13.697c-7.336-2.401-13.084-13.71-13.084-26.831
			C466.539,25.635,469.3,17.131,473.85,12.066z M482.511,64.565L482.511,64.565L482.511,64.565L482.511,64.565L482.511,64.565z
			 M429.907,56.578l10.914-5.561l-5.562-10.911c6.222-2.765,15.164-2.761,23.987,0.106c1.007,0.327,2.008,0.706,3,1.106
			c1.642,12.992,8.209,22.92,16.685,25.125c-4.554,6.229-17.083,8.202-29.557,4.149C440.551,67.725,433.315,62.47,429.907,56.578z
			 M458.659,112.128l-1.914-12.097l-12.098,1.915c-0.704-6.771,2.061-15.275,7.512-22.779c0.631-0.868,1.301-1.703,1.984-2.519
			c2.883,0.549,5.699,0.824,8.382,0.824c9.283,0,16.991-3.201,20.652-8.92c4.524,6.254,2.538,18.774-5.174,29.39
			C472.551,105.446,465.318,110.706,458.659,112.128z M520.375,101.946l-12.097-1.911l-1.917,12.093
			c-6.658-1.422-13.891-6.682-19.343-14.186c-0.629-0.866-1.215-1.759-1.778-2.659c6.309-11.476,6.83-23.368,1.269-30.134
			c7.345-2.367,18.642,3.404,26.353,14.018C518.315,86.673,521.08,95.175,520.375,101.946z M515.644,70.592
			c-1.008,0.33-2.039,0.612-3.073,0.869c-8.97-9.551-20.125-13.723-28.28-10.516c-0.006-3.134,1.45-6.543,4.266-9.865
			c3.979-4.693,10.095-8.553,17.22-10.866c8.822-2.869,17.764-2.871,23.986-0.107l-5.56,10.911l10.913,5.562
			C531.706,62.471,524.47,67.725,515.644,70.592z"/>
	</g>
	<g>
		<path fill="#FFFFFF" d="M932.937,88.245l27.775-23.032l-7.49-9.514V40.898H941.57l-5.926-7.527l-11.201,6.722l1.354-24.562
			l-11.727,2.814L901.919,2l-12.15,16.344l-11.727-2.814l1.354,24.562l-11.201-6.722l-5.926,7.527h-11.652v14.802l-7.49,9.514
			L870.9,88.245l-2.148,12.904l30.822-5.249v24.975h4.691V95.901l30.822,5.249L932.937,88.245z M920.765,21.562l-1.494,27.106
			l15.244-9.147l4.777,6.07h5.921l-40.948,40.948V13.021l7.887,10.608L920.765,21.562z M864.546,45.59l4.777-6.07l15.244,9.147
			l-1.494-27.106l8.613,2.067l7.887-10.608v73.519L858.625,45.59H864.546z M849.642,64.521l5.666-7.197v-8.415l42.529,42.528
			l-23.375,3.981l1.512-9.062L849.642,64.521z M906,91.436l42.53-42.53v8.417l5.666,7.197l-26.332,21.834l1.512,9.062L906,91.436z"
			/>
	</g>
	<g>
		<path fill="#FFFFFF" d="M689.601,120.309h0.67c0.629,0,1.279,0,1.91,0.057l0.04,0.004l0.04-0.005
			c0.449-0.056,0.839-0.056,1.251-0.056h0.806l0.016-0.016l0.496,0.252V92.861h-5.229L689.601,120.309L689.601,120.309z"/>
		<path fill="#FFFFFF" d="M723.128,63.139h28.106v-1.79c0-0.99,0-2.014-0.061-3.086l-0.02-0.354h-28.146
			c-0.697-7.137-3.617-13.207-8.881-18.472c-0.087-0.087-0.178-0.168-0.266-0.254l18.546-21.187l-0.276-0.247
			c-0.768-0.688-1.562-1.346-2.348-1.996c-0.363-0.301-0.724-0.6-1.079-0.899l-0.281-0.237l-18.396,21.084l-0.139,0.159
			c-4.443-3.144-9.483-4.941-15.058-5.365V2.331H689.6v28.165c-5.553,0.428-10.597,2.237-15.08,5.407l-18.27-21.007L656,14.624
			l-0.282,0.238c-1.101,0.927-2.238,1.885-3.359,2.888l-0.275,0.246l18.455,21.221c-0.081,0.078-0.164,0.152-0.245,0.231
			c-5.557,5.622-8.571,12.362-8.985,20.053h-28.014l-0.037,0.334c-0.061,0.551-0.061,1.04-0.061,1.514
			c0,0.976,0.055,1.942,0.112,2.966l0.026,0.475h28.096c0.719,7.087,3.691,13.289,8.873,18.471c0.067,0.068,0.137,0.129,0.205,0.196
			l-18.425,21.187l0.275,0.246c1.1,0.985,2.237,2.004,3.377,2.902l0.28,0.222l18.481-21.188c5.132,3.677,10.972,5.485,17.718,5.485
			c6.67,0,12.598-1.84,17.686-5.454l18.513,21.157l0.28-0.222c1.146-0.905,2.28-1.921,3.377-2.902l0.275-0.246l-18.424-21.185
			c0.064-0.064,0.13-0.123,0.194-0.187C719.707,77.746,722.73,70.979,723.128,63.139z M673.839,79.725
			c-5.104-5.104-7.585-11.114-7.585-18.376c0-7.2,2.484-13.215,7.574-18.365c5.171-5.11,11.186-7.595,18.387-7.595
			c7.16,0,13.343,2.552,18.376,7.584c5.104,5.105,7.585,11.116,7.585,18.376c0,7.32-2.478,13.328-7.596,18.386
			c-4.967,5.026-11.146,7.575-18.365,7.575C684.954,87.31,678.943,84.828,673.839,79.725z"/>
	</g>
	<g>
		<path fill="none" stroke="#FFFFFF" stroke-width="4.7044" stroke-linecap="square" stroke-miterlimit="22.9256" d="
			M121.209,99.386c-6.295,0-11.763-3.894-14.525-9.611c-2.763,5.717-8.232,9.611-14.527,9.611c-6.294,0-11.762-3.894-14.525-9.611
			c-2.763,5.717-8.232,9.611-14.526,9.611c-6.295,0-11.763-3.894-14.526-9.611c-2.762,5.717-8.232,9.611-14.526,9.611
			c-6.295,0-11.763-3.894-14.526-9.611c-2.762,5.717-8.231,9.611-14.526,9.611"/>
		<path fill="none" stroke="#FFFFFF" stroke-width="4.7044" stroke-linecap="square" stroke-miterlimit="22.9256" d="
			M121.209,116.102c-6.295,0-11.763-3.894-14.525-9.611c-2.763,5.717-8.232,9.611-14.527,9.611c-6.294,0-11.762-3.894-14.525-9.611
			c-2.763,5.717-8.232,9.611-14.526,9.611c-6.295,0-11.763-3.894-14.526-9.611c-2.762,5.717-8.232,9.611-14.526,9.611
			c-6.295,0-11.763-3.894-14.526-9.611c-2.762,5.717-8.231,9.611-14.526,9.611"/>
		<polyline fill="none" stroke="#FFFFFF" stroke-width="4.7044" stroke-linecap="square" stroke-miterlimit="22.9256" points="
			21.993,78.666 53.857,19.323 84.299,79.168 		"/>
		<polyline fill="none" stroke="#FFFFFF" stroke-width="4.7044" stroke-linecap="square" stroke-miterlimit="22.9256" points="
			75.327,59.789 84.052,49.262 98.351,70.658 104.317,64.473 118.089,88.372 		"/>
		<path fill="none" stroke="#FFFFFF" stroke-width="4.7044" stroke-linecap="square" stroke-miterlimit="22.9256" d="M97.361,12.551
			c6.056,0,10.965,4.909,10.965,10.965c0,6.055-4.909,10.963-10.965,10.963c-6.055,0-10.963-4.909-10.963-10.963
			C86.397,17.46,91.306,12.551,97.361,12.551L97.361,12.551z"/>
		
			<line fill="none" stroke="#FFFFFF" stroke-width="4.7044" stroke-linecap="square" stroke-miterlimit="22.9256" x1="97.497" y1="3.06" x2="97.497" y2="8.844"/>
		
			<line fill="none" stroke="#FFFFFF" stroke-width="4.7044" stroke-linecap="square" stroke-miterlimit="22.9256" x1="82.993" y1="8.956" x2="87.083" y2="13.046"/>
		
			<line fill="none" stroke="#FFFFFF" stroke-width="4.7044" stroke-linecap="square" stroke-miterlimit="22.9256" x1="76.906" y1="23.38" x2="82.69" y2="23.38"/>
		
			<line fill="none" stroke="#FFFFFF" stroke-width="4.7044" stroke-linecap="square" stroke-miterlimit="22.9256" x1="82.802" y1="37.883" x2="86.892" y2="33.793"/>
		
			<line fill="none" stroke="#FFFFFF" stroke-width="4.7044" stroke-linecap="square" stroke-miterlimit="22.9256" x1="97.226" y1="43.97" x2="97.226" y2="38.186"/>
		
			<line fill="none" stroke="#FFFFFF" stroke-width="4.7044" stroke-linecap="square" stroke-miterlimit="22.9256" x1="111.73" y1="38.075" x2="107.64" y2="33.984"/>
		
			<line fill="none" stroke="#FFFFFF" stroke-width="4.7044" stroke-linecap="square" stroke-miterlimit="22.9256" x1="117.816" y1="23.65" x2="112.032" y2="23.65"/>
		
			<line fill="none" stroke="#FFFFFF" stroke-width="4.7044" stroke-linecap="square" stroke-miterlimit="22.9256" x1="111.92" y1="9.147" x2="107.831" y2="13.236"/>
	</g>
</g>
<g>
	<g>
		<path fill="#FFFFFF" d="M256.295,257.887c9.624,0,15.653-11.883,10.844-21.219c3.264-4.355,1.467-11.788-0.253-12.426
			c-0.395-0.146-0.834-0.126-1.214,0.056c-1.995,0.959-4.074,1.598-6.175,1.897c-5.318,0.743-7.595-1.219-11.597,0.569
			c-4.987,2.207-6.354,7.538-6.353,7.537c-1.36,5.012,1.225,9.15,2.292,10.582C244.359,252.215,249.734,257.887,256.295,257.887z
			 M256.295,254.779c-8.836,0-12.211-12.809-6.912-18.755c4.701,4.558,11.185,5.172,15.328,2.77
			C267.833,246.023,263.317,254.779,256.295,254.779z M249.163,229.604c1.515-0.676,2.679-0.547,4.445-0.349
			c3.905,0.436,7.451,0.291,11.841-1.464c2.903,10.21-8.82,12.192-14.814,5.021c-1.734-2.074-4.819,2.342-5.819,4.673
			c-0.159,0.371-0.3,0.747-0.423,1.128C243.685,234.442,246.432,230.813,249.163,229.604z M312.55,249.225
			c0.409,0.345,0.611,0.876,0.536,1.406c-0.202,1.425-0.797,3.533-2.484,5.488c-1.155,1.339-2.647,2.378-4.313,3.008
			c-0.181,0.068-0.367,0.101-0.549,0.101c-0.628,0-1.219-0.383-1.454-1.005c-0.303-0.803,0.102-1.7,0.905-2.003
			c0.825-0.311,2.026-0.934,3.058-2.131c0.914-1.06,1.376-2.185,1.607-3.109c-3.596-3.446-4.048-7.008-4.45-10.032
			c-0.551-4.138-1.968-9.083-5.276-11.507c-3.742-2.741-8.13-1.609-8.907-1.718c-1.912-0.275-5.555-0.415-8.467,1.718
			c-1.701,1.246-2.512,2.794-3.228,4.159c-3.42,6.525-0.53,11.661-6.498,17.381c0.23,0.923,0.692,2.049,1.607,3.109
			c1.342,1.555-1.011,3.587-2.353,2.03c-1.377-1.595-3.447-5.626-1.949-6.893c3.306-2.792,3.674-5.757,4.064-8.688
			c1.015-7.622,3.833-11.636,6.52-13.604c2.768-2.028,6.498-2.847,10.524-2.318c4.027-0.53,7.756,0.29,10.524,2.318
			c2.282,1.672,3.358,3.724,4.144,5.223c1.69,3.224,2.054,5.964,2.376,8.381c0.341,2.567,0.611,4.595,2.29,6.817
			C311.296,248.04,311.892,248.669,312.55,249.225z M294.917,231.029c-0.714-0.479-1.678-0.289-2.157,0.423
			c-2.035,3.029-4.538,5.627-7.439,7.724c-1.548,1.118-3.215,2.095-4.956,2.903c-1.508,0.7-0.999,2.964,0.655,2.964
			c0.055,0,0.11-0.012,0.165-0.018c0.929,6.614,5.213,11.392,10.265,11.392c4.87,0,9.063-4.534,10.169-10.757
			c0.05,0.022,0.098,0.049,0.148,0.071c0.203,0.089,0.414,0.131,0.622,0.131c0.599,0,1.169-0.348,1.424-0.931
			c0.344-0.786-0.014-1.703-0.801-2.046c-3.667-1.605-6.873-4.032-9.467-7.265c0.63-0.78,1.229-1.591,1.795-2.433
			C295.818,232.473,295.629,231.507,294.917,231.029z M298.698,244.145c-0.582,5.237-3.67,9.163-7.248,9.163
			c-3.471,0-6.575-3.834-7.221-8.917c-0.032-0.253-0.129-0.48-0.263-0.678c2.643-1.485,5.097-3.294,7.482-5.739
			C293.595,240.551,295.992,242.54,298.698,244.145z M309.242,298.398v-26.425c0-6.016-3.414-11.661-8.731-14.535
			c-0.336-0.308-0.792-0.452-1.245-0.394c-0.527,0.039-1.022,0.34-1.276,0.847c-0.174,0.346-0.199,0.725-0.112,1.073
			c-1.957,7.858-11.79,6.689-12.852,0.04c-0.037-0.231-0.126-0.438-0.248-0.62c-0.043-0.339-0.186-0.663-0.442-0.914
			c-0.992-0.971-2.037-0.145-3.258,0.506c-0.852,0.462-1.666,1.002-2.434,1.608c-6.417-3.093-12.97-2.795-13.747-2.399
			c-0.777,0.38-3.567,2.996-8.594,2.996c-3.02,0-5.935-1.003-8.43-2.9c-1.935-1.469-13.233,3.498-13.233,13.467v31.546
			c0,0.12,0,0.295,0.032,0.492c0.145,1.133,0.764,2.107,1.651,2.783c0.046,0.034,0.092,0.069,0.142,0.098
			c0.768,0.54,1.713,0.87,2.744,0.87h3.171v33.148c-1.091,0.915-1.787,2.287-1.787,3.819v1.321c0,2.178,1.772,3.949,3.95,3.949
			h23.802c2.178,0,3.95-1.772,3.95-3.949v-1.321c0-1.532-0.696-2.904-1.787-3.819v-26.211c0.127,0.312,0.344,0.585,0.649,0.762
			c4.32,2.509,6.971,3.877,9.846,4.65l1.318,20.859c-5.112,1.655-5.631,9.03-0.87,9.03h19.813c4.695,0,4.268-7.186-0.694-8.966
			l1.324-20.972c2.798-0.778,5.429-2.14,9.665-4.6c0.554-0.322,0.854-0.952,0.755-1.585
			C311.577,307.961,310.664,303.154,309.242,298.398z M306.134,290.094c-1.157-2.498-2.52-4.953-4.148-7.335
			c-0.878-10.822,4.409-11.257,1.542-18.663C306.881,268.686,306.134,271.179,306.134,290.094z M242.321,302.776h-3.925
			c-0.087-0.777-0.058-1.445-0.058-4.04h4.04C242.379,301.309,242.408,301.999,242.321,302.776z M245.487,298.735h21.91
			c0,1.297,0,1.049,0,4.691h-21.91C245.487,301.653,245.487,300.484,245.487,298.735z M272.634,268.861
			c-0.429,2.909,0.025,5.192-2.128,8.538v-9.166C271.208,268.398,271.942,268.618,272.634,268.861z M270.505,282.363
			c8.879-9.473,1.217-12.32,9.23-19.632c-0.013,0.03-0.023,0.057-0.036,0.087c-0.026,0.062-0.049,0.12-0.074,0.18
			c-0.063,0.154-0.126,0.305-0.183,0.448c-0.031,0.075-0.06,0.148-0.089,0.22c-0.048,0.12-0.095,0.238-0.139,0.351
			c-0.03,0.076-0.058,0.15-0.086,0.223c-0.04,0.105-0.078,0.208-0.115,0.307c-0.025,0.069-0.05,0.139-0.074,0.206
			c-0.034,0.097-0.066,0.191-0.097,0.284c-0.021,0.063-0.042,0.127-0.062,0.189c-0.03,0.094-0.056,0.185-0.083,0.276
			c-0.016,0.055-0.033,0.112-0.048,0.166c-0.027,0.098-0.049,0.195-0.072,0.291c-0.01,0.044-0.022,0.089-0.032,0.132
			c-0.03,0.139-0.056,0.277-0.078,0.414c-0.044,0.259-0.076,0.512-0.098,0.758c-0.005,0.058-0.004,0.113-0.008,0.171
			c-0.012,0.186-0.024,0.371-0.025,0.55c0,0.074,0.006,0.144,0.007,0.217c0.003,0.157,0.005,0.315,0.016,0.465
			c0.006,0.08,0.017,0.156,0.025,0.235c0.013,0.138,0.025,0.276,0.044,0.409c0.012,0.086,0.029,0.166,0.043,0.249
			c0.012,0.069,0.023,0.139,0.036,0.207c0.463,9.167-2.198,11.783-8.004,17.13v-4.533L270.505,282.363L270.505,282.363z
			 M246.6,260.198c5.801,4.044,13.426,4.227,19.519-0.09c3.455-0.172,6.895,0.442,10.064,1.768c-1.334,1.44-2.164,2.745-2.7,3.966
			c-1.119-0.411-2.3-0.708-3.529-0.89c-0.293-0.049-0.578-0.091-0.844-0.118c-0.44-0.046-0.873,0.098-1.2,0.392
			c-0.327,0.295-0.513,0.714-0.513,1.154v29.247h-21.91v-23.465c0-0.858-0.696-1.554-1.554-1.554s-1.554,0.696-1.554,1.554v23.465
			h-4.632v-24.881C237.748,265.947,241.431,261.605,246.6,260.198z M245.487,306.535h10.235c-1.182,0.624-0.834-1.132-0.834,31.982
			c-0.383,0-9.018-0.003-9.401,0.005V306.535L245.487,306.535z M269.185,344.824c0,0.464-0.378,0.841-0.842,0.841h-23.802
			c-0.464,0-0.842-0.378-0.842-0.841v-1.321c0-1.035,0.843-1.878,1.878-1.878h9.311c0,2.386,3.108,2.385,3.108,0
			c0.444,0,9.362-0.044,9.791,0.07c0.223,0.254,0.523,0.438,0.868,0.505c0.327,0.338,0.53,0.796,0.53,1.302V344.824L269.185,344.824
			z M257.996,338.517c0-33.127,0.345-31.36-0.834-31.982h10.235v31.987C267.015,338.515,258.379,338.517,257.996,338.517z
			 M270.506,311.995c0-5.505,0-19.945,0-20.861c4.964-4.641,8.606-7.501,10.228-12.642c0.111,1.356,0.113,2.778-0.008,4.266
			C274.442,291.956,272.071,302.217,270.506,311.995z M293,339.027v-18.851c1.904-0.095,3.803-0.299,5.735-0.647l-1.251,19.814
			L293,339.027z M289.892,320.183v18.844l-4.484,0.316l-1.251-19.786C286.08,319.895,287.979,320.096,289.892,320.183z
			 M301.457,345.471c0,0.107-0.087,0.194-0.194,0.194h-19.814c-0.107,0-0.194-0.087-0.194-0.194c0-1.607,1.307-2.914,2.914-2.914
			h5.759c0.15,0.701,0.772,1.228,1.518,1.228s1.368-0.526,1.518-1.228h5.579C300.15,342.557,301.457,343.864,301.457,345.471z
			 M291.359,317.133c-2.508,0-5.827-0.36-9.201-1.152c-2.466-0.606-4.795-1.763-8.52-3.901c1.527-9.412,3.856-19.238,9.875-27.89
			c0.153-0.22,0.247-0.475,0.272-0.742c0.462-4.904-0.18-8.365-1.491-11.909c-0.041-0.111-0.265-0.726-0.306-0.829
			c-0.016-0.04-0.048-0.161-0.069-0.222c-0.982-2.843-0.331-4.136,0.928-7.144c0.02-0.049,0.038-0.097,0.053-0.148
			c0.066-0.163,0.138-0.322,0.206-0.485c3.696,6.369,12.821,6.428,16.575,0.18c0.042,0.103,0.088,0.202,0.13,0.305
			c0.015,0.05,0.033,0.099,0.053,0.147c0.818,1.955,1.19,2.892,1.316,3.687c0.235,1.372-0.047,2.472-0.388,3.457
			c-0.009,0.026-0.018,0.055-0.026,0.082c-0.013,0.047-0.024,0.094-0.043,0.14c-0.012,0.028-0.024,0.058-0.034,0.087
			c-0.09,0.252-0.184,0.503-0.277,0.756c-0.133,0.36-0.267,0.722-0.398,1.096c-1.098,3.181-1.464,6.815-1.088,10.8
			c0.025,0.267,0.119,0.522,0.272,0.742c6.019,8.651,8.348,18.478,9.875,27.89C304.794,314.538,300.415,317.133,291.359,317.133z
			 M223.182,234.996c-5.832-3.6-13.185,1.955-11.122,8.609c1.134,4.641,8.402,9.411,9.861,10.329
			c0.38,0.237,0.818,0.362,1.264,0.362c0.446,0,0.883-0.125,1.268-0.366C243.987,241.66,230.798,230.291,223.182,234.996z
			 M223.184,251.053c-3.073-1.999-8.353-6-8.353-9.664c0-3.794,4.497-5.8,7.322-3.3c0.588,0.52,1.473,0.52,2.06-0.001
			C228.345,234.425,238.86,240.871,223.184,251.053z M333.316,271.211c-0.001,0-0.002-0.001-0.003-0.002
			c-2.341-1.29-5.344-1.197-7.585,0.189c-2.244-1.387-5.243-1.48-7.589-0.184c-3.099,1.715-4.609,5.377-3.549,8.803
			c1.138,4.657,8.417,9.428,9.875,10.344c0.768,0.478,1.74,0.491,2.536-0.003c4.399-2.766,10.201-7.367,10.201-12.558
			C337.201,275.063,335.713,272.539,333.316,271.211z M325.73,287.481c-2.721-1.767-7.145-5.151-8.16-8.35
			c-1.348-4.233,3.775-7.607,7.129-4.64c0.588,0.52,1.473,0.52,2.06-0.001c1.359-1.205,3.458-1.438,5.053-0.558
			c1.407,0.781,2.28,2.262,2.28,3.867C334.094,281.472,328.803,285.484,325.73,287.481z"/>
	</g>
	<g>
		<path fill="#FFFFFF" d="M26.212,256.837c9.462,0,15.337-11.808,10.639-21.056c3.205-4.338,1.422-11.708-0.269-12.334
			c-0.398-0.148-0.84-0.126-1.221,0.06c-1.947,0.949-3.976,1.581-6.025,1.877c-5.192,0.735-7.428-1.211-11.355,0.568
			c-4.878,2.189-6.227,7.483-6.226,7.485c-1.329,4.963,1.197,9.068,2.241,10.49C14.505,251.206,19.777,256.837,26.212,256.837z
			 M26.212,253.729c-7.375,0-11.076-9.595-8.397-15.926c0.46-1.089,1.058-1.958,1.639-2.625c4.601,4.496,10.919,5.093,14.968,2.745
			C37.438,245.074,33.051,253.729,26.212,253.729z M19.259,228.785c1.47-0.666,2.603-0.538,4.32-0.343
			c3.759,0.425,7.216,0.314,11.56-1.438c2.847,10.247-8.662,11.947-14.429,4.952c-1.849-2.244-5.198,2.818-6.125,5.613
			C13.983,233.59,16.54,230.005,19.259,228.785z M135.359,256.119c-1.504,1.743-5.385,4.568-6.317,2.101
			c-0.302-0.803,0.104-1.7,0.907-2.002c0.824-0.31,2.024-0.932,3.058-2.13c0.914-1.059,1.376-2.185,1.606-3.109
			c-3.612-3.459-4.054-7.062-4.449-10.032c-0.55-4.131-1.967-9.082-5.276-11.507c-3.74-2.74-8.131-1.61-8.908-1.718
			c-1.909-0.275-5.553-0.416-8.466,1.718c-1.702,1.246-2.512,2.793-3.228,4.158c-3.424,6.535-0.527,11.647-6.496,17.38
			c0.628,2.486,2.38,4.381,4.663,5.24c1.618,0.611,1.16,3.009-0.549,3.009c-0.721,0-3.13-1.101-4.862-3.108
			c-1.691-1.958-2.285-4.066-2.485-5.49c-0.074-0.528,0.127-1.058,0.536-1.403c0.659-0.557,1.256-1.187,1.773-1.872
			c1.679-2.222,1.949-4.25,2.291-6.817c0.322-2.417,0.686-5.157,2.376-8.381c0.785-1.499,1.861-3.551,4.144-5.223
			c2.767-2.027,6.496-2.848,10.523-2.318c4.028-0.531,7.756,0.291,10.523,2.318c2.281,1.671,3.358,3.724,4.144,5.222
			c3.447,6.58,1.335,10.789,4.666,15.199c0.518,0.686,1.115,1.316,1.773,1.871C138.831,250.511,136.715,254.548,135.359,256.119z
			 M117.517,231.451c-2.037,3.03-4.539,5.629-7.438,7.724c-1.548,1.118-3.216,2.095-4.957,2.903
			c-0.779,0.362-1.117,1.285-0.756,2.064c0.265,0.571,0.857,0.96,1.575,0.883c2.085,14.831,17.844,15.206,20.434,0.635
			c0.269,0.12,0.417,0.202,0.77,0.202c1.67,0,2.165-2.303,0.624-2.978c-3.62-1.585-6.843-3.995-9.467-7.265
			c0.63-0.78,1.229-1.591,1.795-2.433C121.241,231.482,118.666,229.745,117.517,231.451z M123.454,244.145
			c-0.582,5.237-3.67,9.163-7.248,9.163c-3.471,0-6.576-3.834-7.221-8.918c-0.032-0.253-0.13-0.479-0.265-0.676
			c2.661-1.495,5.114-3.311,7.484-5.74C118.336,240.533,120.732,242.53,123.454,244.145z M62.137,291.425
			c0,5.172,3.706,9.379,8.262,9.379s8.262-4.207,8.262-9.379c0-4.275,0-10.735-8.262-10.735S62.137,287.15,62.137,291.425z
			 M75.552,291.425c0,3.458-2.312,6.271-5.154,6.271s-5.154-2.813-5.154-6.271c0-4.871,0.239-7.627,5.154-7.627
			S75.552,286.554,75.552,291.425z M68.955,269.106c0.436,0.272,0.937,0.415,1.449,0.415c0.509,0,1.009-0.143,1.451-0.419
			c1.235-0.776,12.069-7.75,13.631-14.208c1.998-6.374-2.782-12.929-9.512-12.929c-2,0-3.938,0.598-5.575,1.703
			c-7.793-5.257-17.877,2.271-15.091,11.224C56.87,261.346,67.714,268.325,68.955,269.106z M69.371,246.794
			c0.587,0.52,1.472,0.52,2.061-0.001c5.206-4.615,13.182,0.643,11.077,7.212c-1.543,4.812-8.041,9.748-12.106,12.339
			c-4.627-2.951-12.437-8.924-12.437-14.409C57.965,246.024,64.972,242.9,69.371,246.794z M133.997,299.739
			c0-3.588,0.002,11.511,0.002-27.766c0-6.01-3.408-11.651-8.717-14.528c-0.747-0.693-2.058-0.507-2.535,0.446
			c-0.174,0.346-0.2,0.724-0.112,1.072c-2.004,8.046-11.822,6.487-12.851,0.041c-0.038-0.236-0.13-0.447-0.257-0.632
			c-0.046-0.339-0.192-0.662-0.45-0.911c-0.993-0.957-2.027-0.135-3.237,0.513c-5.407,2.894-8.765,8.501-8.765,14.633v1.829
			c0,6.817-3.953,9.459-11.627,17.237c-0.175,0.175-9.988,9.964-10.124,10.169c-3.262,2.214-6.87,2.02-9.847,0
			c-0.118-0.178-10.994-11.094-11.641-11.614c-4.287-5.192-6.41-6.246-6.41-20.648c0-10.091-11.131-14.815-13.001-13.366
			c-4.955,3.83-11.448,3.845-16.421,0c-1.859-1.437-13.001,3.247-13.001,13.366v31.274c0,2.335,2.02,4.234,4.503,4.234h2.646v33.119
			c-1.091,0.915-1.787,2.287-1.787,3.82v1.321c0,2.178,1.772,3.95,3.949,3.95h23.801c2.178,0,3.95-1.772,3.95-3.95v-1.321
			c0-1.532-0.696-2.904-1.787-3.819V289.68c1.814,2.951,4.367,4.804,7.395,7.498c0.167,0.167,10.945,10.956,11.126,11.106
			c0.007,0.012,0.01,0.024,0.017,0.036c1.417,2.348,2.167,5.04,2.167,7.784c0,0.382-0.04,7.848,0.062,8.217v16.506
			c-2.887,2.748-1.6,7.945,2.395,7.945h13.857c2.178,0,3.949-1.772,3.949-3.949c0-1.51-0.318-2.819-1.554-3.996v-16.506
			c0.102-0.369,0.062-7.835,0.062-8.217c0-2.724,0.74-5.395,2.137-7.73c0.208-0.142,3.632-3.592,3.81-3.77
			c0.133-0.072,0.261-0.157,0.373-0.271c16.298-16.514,17.74-17.117,19.468-22.712c0.05,1.444,0.037,2.907-0.068,4.246
			c-5.852,8.504-8.566,15.564-10.325,26.784c-0.099,0.633,0.2,1.263,0.755,1.584c4.323,2.511,6.975,3.879,9.853,4.652l1.318,20.855
			c-5.111,1.656-5.631,9.03-0.869,9.03h19.813c4.695,0,4.268-7.186-0.694-8.966l1.324-20.969c2.801-0.777,5.433-2.14,9.672-4.602
			c0.555-0.322,0.854-0.951,0.755-1.584C136.299,307.697,135.335,303.554,133.997,299.739z M130.891,292.646
			c-1.177-2.228-2.537-4.449-4.14-6.778c-1.15-14.617,4.472-14.159,1.55-21.751C131.651,268.722,130.891,270.856,130.891,292.646z
			 M88.768,292.746c0.605-0.605,1.593-0.607,2.198,0c0.608,0.607,0.608,1.59,0,2.197l0,0l-9.952,9.952l-2.197-2.198l1.024-1.024
			c0.365-0.198,7.558-7.554,7.85-7.85L88.768,292.746z M76.504,304.781l2.461,2.461c-2.784,4.978-2.32,8.763-2.32,15.113H64.089
			c0-6.359,0.459-10.114-2.298-15.073l2.501-2.501C68.032,307.076,72.586,307.185,76.504,304.781z M59.783,304.896l-9.952-9.952l0,0
			c-1.278-1.276,0.304-3.344,1.874-2.438c0.107,0.106,0.223,0.199,0.351,0.268l9.924,9.925L59.783,304.896z M8.108,297.94h4.04
			c0,7.388,0,0.856,0,4.04C7.583,301.98,8.108,302.295,8.108,297.94z M38.113,344.189c-25.295,0-24.643,0.359-24.643-0.842v-1.321
			c0-1.035,0.842-1.878,1.877-1.878h9.311c0,2.387,3.108,2.385,3.108,0h9.311c1.036,0,1.878,0.843,1.878,1.878
			C38.955,343.035,39.147,344.189,38.113,344.189z M27.766,337.041v-29.932c0-2.053-3.108-2.056-3.108,0v29.932
			c-0.381,0-9.021-0.003-9.401,0.005c0-4.575,0-32.579,0-39.105h21.911v39.105C36.785,337.038,28.149,337.041,27.766,337.041z
			 M40.276,270.846c0-2.053-3.108-2.056-3.108,0c0,1.967,0,23.208,0,23.986H15.257v-23.465c0-2.053-3.108-2.056-3.108,0v23.465
			h-4.04V269.58c0-4.821,3.506-9.033,8.608-10.451c5.785,4.091,13.193,4.101,18.992,0c5.102,1.418,8.608,5.63,8.608,10.451
			c0,12.295,1.588,15.854,4.878,19.94c-1.198,0.479-2.128,1.425-2.596,2.604C40.911,287.085,40.276,283.117,40.276,270.846z
			 M78.137,344.824c0,0.464-0.378,0.841-0.841,0.841c-14.544,0-14.698,0.318-14.698-0.841v-0.388c0-1.035,0.842-1.878,1.878-1.878
			h4.369c0,2.053,3.108,2.056,3.108,0h4.307c1.036,0,1.878,0.843,1.878,1.878L78.137,344.824L78.137,344.824z M71.952,339.449
			v-7.705c0-2.053-3.108-2.056-3.108,0v7.705c-0.436,0-4.299-0.009-4.693,0.016v-14.002h12.432v14.002
			C76.188,339.44,72.387,339.449,71.952,339.449z M94.061,291.816c-0.502-1.035-1.266-1.733-2.235-2.183l3.629-3.678
			c4.047-4.102,4.726-8.323,4.726-13.348c0-3.807,1.592-7.364,4.301-9.88c-0.941,2.286-1.861,4.35-1.134,7.478
			C103.835,282.963,101.751,284.024,94.061,291.816z M117.757,339.027v-18.849c1.903-0.094,3.802-0.299,5.734-0.646l-1.251,19.812
			L117.757,339.027z M114.649,339.027l-4.484,0.316l-1.25-19.783c1.923,0.338,3.823,0.538,5.734,0.625V339.027z M126.214,345.471
			c0,0.107-0.087,0.194-0.194,0.194h-19.813c-0.107,0-0.194-0.087-0.194-0.194c0-1.607,1.307-2.914,2.914-2.914
			c0.11,0,0.217-0.012,0.32-0.034l5.403-0.381c0,2.186,3.108,2.186,3.108,0c5.673,0.4,5.544,0.415,5.544,0.415
			C124.906,342.557,126.214,343.864,126.214,345.471z M116.24,317.135v0.004c-0.013,0-0.073,0.001-0.092,0.002v-0.006
			c-0.011,0-0.129,0.001-0.139,0.001c0,0,0,0-0.001,0c-9.024-0.144-12.838-2.307-17.619-5.053
			c1.719-10.359,4.273-16.724,9.874-24.783c0.601-0.865,0.82-10.223-1.218-15.753c-1.375-3.754-1.037-4.378,0.59-8.31
			c0.072-0.178,0.151-0.352,0.225-0.53c3.694,6.378,12.83,6.432,16.582,0.18c1.444,3.507,2.178,4.703,1.012,7.912
			c-2.39,6.512-2.123,15.594-1.493,16.501c5.601,8.059,8.155,14.424,9.874,24.783C129.072,314.817,125.257,316.991,116.24,317.135z"
			/>
	</g>
	<g>
		<path fill="#FFFFFF" d="M924.705,244.604c-1.071-1.437-3.662-5.585-2.298-10.609c-0.001-0.003,1.388-5.352,6.369-7.557
			c2.29-1.025,4.127-0.819,6.071-0.6c10.338,1.157,12.54-4.089,13.853-1.093c1.826,4.181,1.547,8.715-0.632,11.622
			c4.811,9.34-1.197,21.276-10.874,21.276C930.616,257.643,925.227,251.955,924.705,244.604z M945.634,238.498
			c-4.371,2.536-10.876,1.578-15.37-2.777c-5.5,6.183-1.742,18.805,6.931,18.805C944.232,254.526,948.765,245.75,945.634,238.498z
			 M925.261,238.318c0.926-2.858,4.367-8.078,6.258-5.819c1.386,1.658,3.115,2.887,4.991,3.59c2.306,0.451,4.223-1.508,3.792-3.762
			c-0.157-0.846,0.402-1.659,1.248-1.817c2.49-0.453,2.331,3.758,0.868,5.966c4.138-1.106,5.109-4.955,3.955-9.012
			c-6.908,2.766-11.547,1.309-13.911,1.309c-3.653,0-6.328,3.415-7.04,6.009C925.078,236.049,925.079,237.246,925.261,238.318z
			 M972.8,269.286c-0.988-13.644,7.635-33.874,8.834-36.109c4.168-7.787,17.617-7.716,21.749,0.001
			c1.198,2.236,9.821,22.477,8.833,36.108c-0.064,0.897,0.643,1.671,1.556,1.671c0.809,0,1.493-0.625,1.553-1.446
			c1.135-15.679-9.09-37.608-9.195-37.805c-5.294-9.888-21.91-9.964-27.243-0.001c-0.105,0.196-10.332,22.111-9.196,37.805
			C969.84,271.556,972.948,271.346,972.8,269.286z M1003.884,241.041c0.788,0.345,1.148,1.264,0.803,2.052
			c-0.312,0.713-1.13,1.132-1.953,0.834c-2.613,14.213-17.816,14.197-20.359-0.07c-2.048,0.904-3.17-2.01-1.328-2.817
			c2.072-0.907,4.011-2.09,5.764-3.515c4.311-3.505,4.025-5.181,5.599-5.197c1.652-0.106,1.322,1.628,5.711,5.197
			C999.873,238.951,1001.813,240.134,1003.884,241.041z M999.809,242.448c-2.758-1.598-5.15-3.54-7.343-6.12
			c-2.18,2.564-4.545,4.479-7.191,6.034c0.016,0.063,0.036,0.125,0.044,0.191c0.647,5.097,3.761,8.941,7.241,8.941
			C996.115,251.494,999.185,247.627,999.809,242.448z M1008.589,291.923c11.317,16.376,14.389,34.078,9.657,55.626
			c-0.157,0.715-0.79,1.224-1.522,1.224h-48.271c-0.732,0-1.365-0.509-1.522-1.224c-5.635-25.666-0.374-45.71,17.058-64.898
			c-0.196-2.332-0.658-4.539-1.38-6.715c-2.657,7.906-7.074,14.763-12.916,20.561c-1.024,1.323-2.514,1.999-4.045,2.009
			c-1.457,0-2.717-0.559-3.655-1.485c-0.177-0.175-2.473-2.431-2.634-2.615c-2.288-2.625-5.857-8.014-8.259-14.194l-3.783,60.359
			c0.624,0.318-1.323-0.743,4.908,2.679c2.764,1.296,1.769,5.497-1.31,5.522c-0.32,0-27.574,0-27.252,0
			c-3.076-0.025-4.078-4.225-1.31-5.522c6.273-3.445,4.294-2.366,4.908-2.679l-3.606-57.531c-0.023,0.108-2.949,13.741-2.949,13.741
			s0.044-0.26-1.592,7.809c-0.562,2.772-5.652,0.386-7.731-2.746c-1.698-2.557-1.776-4.939-1.214-7.721
			c3.809-18.941,3.933-18.041,6.496-30.992c0.477-2.408,2.323-4.339,4.705-4.919c5.956-1.448,6.207-1.626,6.83-1.447
			c0.996,0.285,2.215,2.283,7.471,3.079c3.083,0.425,6.86-0.458,9.944-2.822c0.468-0.358,1.184-0.393,1.665-0.277l6.033,1.467
			c7.891,1.921,2.479,11.922,12.46,27.557c14.21-15.605,2.994-25.646,18.05-30.474c1.263-0.409,2.434,0.869,1.908,2.096
			c-0.213,0.582-0.762,1.002-1.413,1.023c-11.953,4.098-1.438,13.496-16.566,29.806c1.555,1.534,2.087,1.942,2.576,3.05
			c5.014-5.829,8.532-12.547,10.406-20.01c-2.943-7.836,4.841-14.431,11.854-8.593c5.476-4.558,12.591-1.657,12.478,5.579
			c0.107,0.626,0.2,1.378,0.277,2.248c0.447,4.821,0.743,8.011-0.121,12.127c-0.353,1.678-0.774,2.999-1.316,4.435
			c-1.613,3.989-3.701,7.47-7.077,10.893c-0.634,0.636-0.592,1.614-0.006,2.184c0.643,0.643,1.648,0.585,2.206,0.013
			c4.635-4.702,7.908-10.482,9.252-16.887c0.945-4.532,0.619-8.081,0.167-12.994c-0.532-5.721-2.146-9.936-8.414-12.292
			c-1.927-0.724-0.835-3.642,1.096-2.917c3.271,1.229,5.838,3.155,7.632,5.724c1.856,2.644,2.441,5.453,2.783,9.13
			C1012.095,275.898,1012.962,282.76,1008.589,291.923z M932.344,262.331c-0.512-0.155-1.021-0.326-1.52-0.531l0.593,1.522
			C931.594,263.132,932.166,262.521,932.344,262.331z M935.325,263.707l0.927,0.927h1.888l0.966-0.966l-0.654-0.654
			c-0.694,0.057-1.754,0.062-2.478,0.002L935.325,263.707z M935.777,287.407l1.512,1.512l1.512-1.512l-1.405-19.657h-0.215
			L935.777,287.407z M943.269,263.321l0.667-1.712c-0.548,0.242-1.105,0.457-1.673,0.638L943.269,263.321z M917.334,297.691
			l-4.38-0.883c0.033,2.357,1.413,4.452,3.456,5.445L917.334,297.691z M938.894,342.874c-0.094,1.966-3.008,1.965-3.101,0
			c-7.456,0-5.172-0.608-11.345,2.783h25.684C944.131,342.361,946.302,342.874,938.894,342.874z M944.244,339.776l2.577-41.128
			h-19.065l2.578,41.128c0.712-0.028-1.294-0.018,5.451-0.018v-31.963c0-2.059,3.116-2.061,3.116,0v31.963
			C945.523,339.758,943.534,339.748,944.244,339.776z M960.663,291.025l2.887-2.936c-3.66-5.549-6.146-11.674-7.397-18.228
			c-1.762-9.229-0.656-7.909-8.283-9.763l-2.595,6.66c-0.194,0.499-0.631,0.864-1.156,0.965c-1.059,0.204-1.479-0.514-2.769-1.891
			l-0.901,0.902l1.511,21.162c0.032,0.451-0.133,0.893-0.453,1.213c-4.818,4.818-3.675,4.761-8.436,0
			c-0.779-0.779-0.547,0.111,1.046-22.202l-0.924-0.924L932,267.257c-0.778,0.833-2.172,0.573-2.589-0.5l-2.595-6.66
			c-8.526,2.073-6.122-0.102-9.503,15.202c-0.731,3.308-1.633,7.391-3.869,18.428c0.779,0.157,0.184,0.037,4.535,0.915
			c5.224-24.341,4.498-20.911,4.99-23.394c0.035-0.176,0.132-0.398,0.214-0.528c0.09-0.142,0.236-0.308,0.404-0.429
			c0.152-0.11,0.354-0.204,0.54-0.25c0.054-0.013,0.263-0.045,0.273-0.045c0.015-0.001,0.292,0.007,0.312,0.01
			c0.096,0.013,0.29,0.072,0.357,0.099c0.184,0.073,0.368,0.196,0.494,0.315c0.135,0.127,0.266,0.308,0.346,0.481
			c0.064,0.138,0.132,0.374,0.144,0.553l1.512,24.077h19.449l1.544-24.592c0.054-0.859,0.788-1.516,1.652-1.458
			c0.842,0.053,1.482,0.766,1.456,1.603C951.913,271.864,953.152,281.103,960.663,291.025z M967.045,291.902l-1.452-1.433
			l-2.864,2.902c1.474,1.454,1.834,2.019,2.883,2.019C967.426,295.391,968.339,293.181,967.045,291.902z M1001.826,283.356
			c0.633-2.35,0.935-4.376,0.798-7.597c-0.755,2.227-1.234,4.492-1.436,6.889C1001.404,282.885,1001.616,283.122,1001.826,283.356z
			 M985.375,274.356c0.914,2.592,1.46,5.211,1.698,7.975c3.385,2.182,7.712,2.121,11.049-0.181c0.387-4.243,1.344-7.208,2.78-10.483
			c1.193-2.722,1.053-3.328,1.053-3.328c0.053-1.525-0.578-3.513-1.928-4.285c-1.703-0.997-4.329-0.282-6.124,1.654
			c-0.674,0.728-2.019,0.658-2.629,0c-2.624-2.83-7.317-3.3-8.002,1.678C982.944,269.551,984.117,270.888,985.375,274.356z
			 M1015.463,345.657c0.346-1.671,0.636-3.316,0.882-4.94c-2.546-1.914-4.706-2.162-7.549,0.378
			c-0.593,0.531-1.493,0.531-2.085-0.001c-0.584-0.521-2.448-1.881-4.015-1.881c-1.564,0-3.427,1.359-4.013,1.882
			c-0.593,0.531-1.494,0.532-2.086-0.002c-0.583-0.521-2.445-1.88-4.009-1.88c-1.574,0-3.47,1.392-4.011,1.88
			c-0.592,0.536-1.496,0.536-2.088,0c-0.584-0.521-2.447-1.88-4.011-1.88s-3.428,1.359-4.015,1.883
			c-0.592,0.53-1.493,0.53-2.085-0.003c-2.833-2.534-5-2.287-7.549-0.373c0.247,1.623,0.539,3.266,0.885,4.937L1015.463,345.657
			L1015.463,345.657z M1006.928,295.032c-1.574,2.615-3.471,5.062-5.673,7.297c-2.829,2.901-7.977,0.964-8.002-3.248
			c-0.023-3.828,3.911-3.991,7.406-12.329c-0.447-0.517-0.925-1.061-1.423-1.616c-4.078,2.457-9.134,2.592-13.375,0.103
			c-14.123,15.757-19.697,32.152-17.484,52.054c2.983-1.688,5.711-1.676,9.046,0.668c3.518-2.469,6.586-2.472,10.11,0
			c3.518-2.469,6.588-2.473,10.109,0c3.519-2.471,6.588-2.471,10.112,0c3.314-2.327,6.036-2.368,9.041-0.671
			C1018.539,321.435,1015.328,307.779,1006.928,295.032z"/>
	</g>
	<g>
		<path fill="#FFFFFF" d="M1115.161,257.495c1.86,0.705,2.922-2.113,1.062-2.814c-2.24-0.845-3.927-2.713-4.515-5.072
			c5.768-5.528,2.988-10.523,6.289-16.822c0.693-1.321,1.478-2.819,3.125-4.025c2.819-2.065,6.344-1.926,8.194-1.663
			c0.752,0.11,4.994-0.994,8.621,1.663c3.196,2.341,4.572,7.123,5.106,11.137c0.386,2.905,0.82,6.369,4.307,9.71
			c-0.589,2.364-2.28,4.229-4.515,5.072c-1.567,0.59-1.122,2.912,0.531,2.912c0.693,0,3.028-1.065,4.706-3.009
			c1.311-1.519,3.362-5.426,1.886-6.672c-3.265-2.759-3.577-5.727-3.933-8.41c-1.359-10.212-6.479-16.734-16.496-15.411
			c-10.114-1.333-15.154,5.323-16.496,15.411c-0.376,2.827-0.729,5.701-3.933,8.41c-1.482,1.252,0.615,5.198,1.886,6.672
			C1112.399,256.22,1114.036,257.07,1115.161,257.495z"/>
		<path fill="#FFFFFF" d="M1130.803,230.709c-2.939,4.374-6.988,7.962-11.997,10.284c-1.457,0.676-0.969,2.869,0.634,2.869
			c0.053,0,0.106-0.011,0.159-0.017c2.016,14.354,17.271,14.719,19.778,0.615c2.092,0.929,3.112-1.916,1.349-2.687
			c-3.465-1.516-6.598-3.834-9.163-7.031c0.61-0.755,1.19-1.54,1.737-2.355C1134.408,230.736,1131.914,229.057,1130.803,230.709z
			 M1136.55,242.994c-0.563,5.069-3.552,8.869-7.015,8.869c-3.359,0-6.364-3.71-6.989-8.631c-0.031-0.245-0.125-0.465-0.255-0.656
			c2.595-1.458,4.959-3.215,7.243-5.555C1131.601,239.504,1133.919,241.434,1136.55,242.994z"/>
		<path fill="#FFFFFF" d="M1151.239,309.3c-0.862-5.497-2.372-10.87-4.482-15.978v-23.394c0-1.047-0.111-2.082-0.316-3.093
			c-0.524-4.043-2.921-7.669-6.617-10.031c-0.483-0.336-0.98-0.653-1.503-0.936c-0.886-0.824-2.361-0.301-2.582,0.793
			c-0.057,0.207-0.073,0.433-0.027,0.676c-0.07,0.366-0.169,0.712-0.287,1.042c-0.031,0.081-0.058,0.165-0.091,0.243
			c-0.007,0.018-0.015,0.035-0.023,0.053c-0.24,0.564-0.531,1.063-0.86,1.502c-0.045,0.059-0.09,0.118-0.137,0.175
			c-0.038,0.047-0.077,0.092-0.116,0.137c-1.213,1.383-2.945,2.125-4.689,2.142c-1.744-0.018-3.476-0.759-4.689-2.142
			c-0.039-0.046-0.078-0.09-0.116-0.137c-0.047-0.057-0.092-0.116-0.137-0.175c-0.329-0.44-0.62-0.938-0.86-1.502
			c-0.007-0.018-0.016-0.035-0.023-0.053c-0.033-0.078-0.06-0.163-0.091-0.243c-0.117-0.331-0.216-0.676-0.287-1.042
			c0.046-0.244,0.03-0.47-0.027-0.676c-0.221-1.094-1.696-1.617-2.581-0.793c-0.522,0.283-1.02,0.6-1.503,0.936
			c-3.696,2.362-6.093,5.988-6.617,10.031c-0.205,1.011-0.316,2.045-0.316,3.093v23.394c-2.11,5.108-3.621,10.481-4.482,15.978
			c-0.096,0.613,0.194,1.222,0.731,1.533c3.313,1.924,6.869,3.393,10.579,4.385l1.575,24.874c-2.254,0.806-3.875,2.956-3.875,5.484
			c0,1.763,1.434,3.196,3.196,3.196h6.28h6.485h6.28c1.762,0,3.196-1.433,3.196-3.196c0-2.528-1.62-4.679-3.875-5.484l1.575-24.874
			c3.71-0.992,7.266-2.461,10.579-4.385C1151.045,310.522,1151.335,309.913,1151.239,309.3z M1141.241,262.323
			c3.234,4.444,2.508,6.915,2.508,24.657c-1.215-2.268-2.546-4.482-4.008-6.612C1138.892,269.902,1143.992,269.47,1141.241,262.323z
			 M1117.78,262.323c-2.751,7.147,2.349,7.579,1.5,18.045c-1.462,2.13-2.793,4.344-4.008,6.612
			C1115.272,269.238,1114.546,266.767,1117.78,262.323z M1139.221,345.577c0,0.104-0.084,0.188-0.188,0.188h-6.28h-6.485h-6.28
			c-0.104,0-0.188-0.084-0.188-0.188c0-1.555,1.265-2.82,2.82-2.82h3.648h1.756c0.173,0.793,0.832,1.184,1.487,1.176
			c0.654,0.008,1.314-0.383,1.487-1.176h1.756h3.648C1137.956,342.757,1139.221,344.022,1139.221,345.577z M1127.987,316.585v23.164
			h-1.719h-2.609l-1.51-23.845C1124.118,316.271,1126.051,316.489,1127.987,316.585z M1131.033,316.585
			c1.936-0.096,3.869-0.314,5.838-0.681l-1.51,23.845h-2.609h-1.719V316.585z M1132.753,313.434v-0.011
			c-0.903,0.081-1.801,0.126-2.695,0.141c-0.182,0.002-0.365,0.004-0.548,0.004s-0.365-0.002-0.548-0.004
			c-0.893-0.016-1.792-0.06-2.695-0.141v0.011c-5.406-0.459-10.578-2.087-15.345-4.695c0.833-4.824,2.189-9.539,4.03-14.042
			c0,0,2.331-6.186,7.026-12.943c0.522-0.752,0.945-6.495-1.177-12.235c-0.321-0.876-0.541-1.574-0.674-2.188h0.03
			c-0.422-2.033,0.16-3.253,1.381-6.163c1.802,2.974,4.884,4.471,7.972,4.46c3.088,0.011,6.169-1.486,7.971-4.46
			c1.221,2.911,1.803,4.13,1.381,6.163h0.03c-0.133,0.613-0.353,1.312-0.674,2.188c-2.122,5.74-1.7,11.483-1.177,12.235
			c4.695,6.756,7.026,12.943,7.026,12.943c1.841,4.503,3.198,9.218,4.03,14.042C1143.33,311.348,1138.159,312.976,1132.753,313.434z
			"/>
	</g>
	<g>
		<path fill="#FFFFFF" d="M465.255,267.322h0.078c-0.819-7.784-8.486-11.83-11.517-11.83c-0.478-0.012-0.853,0.069-1.08,0.246
			c-2.367,1.843-5.125,2.773-7.893,2.782c-2.768-0.009-5.526-0.939-7.893-2.782c-0.228-0.178-0.602-0.259-1.08-0.246
			c-3.031,0-10.698,4.046-11.517,11.83h0.078c-0.046,0.44-0.078,0.888-0.078,1.351c0,0.323-0.004,30.095,0.007,30.418
			c0.033,4.812,1.421,3.954,6.918,3.954v36.328c-1.056,0.886-1.73,2.214-1.73,3.697v1.88c0,2.108,1.715,3.823,3.823,3.823h2.47
			h18.002h2.47c2.108,0,3.823-1.715,3.823-3.823v-1.88c0-1.483-0.674-2.811-1.73-3.697v-36.328c5.497,0,6.885,0.859,6.918-3.954
			c0.012-0.323,0.007-30.095,0.007-30.418C465.333,268.21,465.301,267.762,465.255,267.322z M431.223,300.036
			c-4.489,0-3.855,0.186-3.855-3.911h3.911C431.279,298.615,431.307,299.284,431.223,300.036z M456.314,345.765h-2.47h-18.002h-2.47
			c-1.053,0-0.815-1.222-0.815-2.695c0-1.003,0.815-1.818,1.817-1.818h1.467h7.448v0.827c0,1.017,0.785,1.51,1.553,1.488
			c0.768,0.022,1.553-0.471,1.553-1.488v-0.827h7.448h1.467c1.002,0,1.817,0.815,1.817,1.818
			C457.128,344.543,457.367,345.765,456.314,345.765z M450.445,338.243c-0.002,0-0.005,0-0.007,0c-0.4,0-0.795,0-1.172,0
			c-0.438,0-0.851,0-1.225,0c-0.182,0-0.352,0-0.511,0c-0.547,0-0.95,0-1.133,0V305c0-0.831-0.674-1.504-1.504-1.504
			c-0.017,0-0.032,0.004-0.049,0.005c-0.017-0.001-0.032-0.005-0.049-0.005c-0.831,0-1.504,0.674-1.504,1.504v33.243
			c-0.183,0-0.586,0-1.132,0c-0.159,0-0.329,0-0.511,0c-0.374,0-0.788,0-1.225,0c-0.377,0-0.772,0-1.172,0c-0.002,0-0.005,0-0.007,0
			c-1.198,0-2.444,0-3.399,0.001l0,0c-0.856,0.001-1.461,0.002-1.555,0.004c0-8.833,0-33.35,0-42.123h1.555h18.002h1.555
			c0,8.773,0,33.29,0,42.123c-0.093-0.002-0.698-0.003-1.555-0.004l0,0C452.888,338.244,451.643,338.243,450.445,338.243z
			 M455.399,270.403v22.714h-1.555h-18.002h-1.555v-22.714c0-1.987-3.008-1.99-3.008,0v22.714h-3.917v-24.444
			c0-4.649,3.366-8.708,8.271-10.096c2.813,1.98,6.017,2.96,9.21,2.952c3.193,0.008,6.397-0.972,9.21-2.952
			c4.906,1.388,8.271,5.447,8.271,10.096v24.444h-3.917v-22.714C458.407,268.413,455.399,268.415,455.399,270.403z M458.463,300.036
			c-0.084-0.752-0.056-1.421-0.056-3.911h3.911C462.318,300.222,462.952,300.036,458.463,300.036z"/>
		<path fill="#FFFFFF" d="M444.892,256.338c9.16,0,14.846-11.429,10.298-20.382c2.056-2.784,2.32-7.124,0.598-11.124
			c-0.337-0.781-1.26-1.135-2.041-0.757c-8.377,4.087-11.937,0.153-16.823,2.367c-4.729,2.123-6.027,7.246-6.026,7.245
			c-1.287,4.807,1.159,8.779,2.17,10.156C433.56,250.888,438.663,256.338,444.892,256.338z M444.892,253.33
			c-8.371,0-11.454-12.314-6.541-17.957c4.464,4.362,10.567,4.922,14.488,2.655C455.761,244.95,451.512,253.33,444.892,253.33z
			 M438.161,229.184c1.423-0.644,2.519-0.521,4.181-0.331c3.564,0.403,6.931,0.326,11.19-1.391
			c2.739,9.858-8.357,11.599-13.966,4.793c-0.256-0.311-0.625-0.505-1.026-0.542c-1.627-0.142-4.107,3.574-4.904,5.976
			C433.055,233.835,435.528,230.366,438.161,229.184z"/>
	</g>
	<g>
		<path fill="#FFFFFF" d="M589.886,257.887c9.624,0,15.653-11.883,10.844-21.219c3.264-4.355,1.467-11.788-0.253-12.426
			c-0.395-0.146-0.834-0.126-1.214,0.056c-1.995,0.959-4.074,1.598-6.175,1.897c-5.318,0.743-7.595-1.219-11.597,0.569
			c-4.987,2.207-6.354,7.538-6.353,7.537c-1.36,5.012,1.225,9.15,2.292,10.582C577.95,252.215,583.326,257.887,589.886,257.887z
			 M589.886,254.779c-8.836,0-12.211-12.809-6.912-18.755c4.701,4.558,11.185,5.172,15.328,2.77
			C601.424,246.023,596.908,254.779,589.886,254.779z M582.754,229.604c1.515-0.676,2.679-0.547,4.445-0.349
			c3.905,0.436,7.451,0.291,11.841-1.464c2.903,10.21-8.82,12.192-14.814,5.021c-1.734-2.074-4.819,2.342-5.819,4.673
			c-0.159,0.371-0.3,0.747-0.423,1.128C577.277,234.442,580.023,230.813,582.754,229.604z M575.913,302.776h-3.925
			c-0.087-0.777-0.058-1.445-0.058-4.04h4.04C575.97,301.309,575.999,301.999,575.913,302.776z M579.078,298.735h21.91
			c0,1.297,0,1.049,0,4.691h-21.91C579.078,301.653,579.078,300.484,579.078,298.735z M579.078,306.535h10.235
			c-1.182,0.624-0.834-1.132-0.834,31.982c-0.383,0-9.018-0.003-9.401,0.005V306.535z M602.776,344.824
			c0,0.464-0.378,0.841-0.842,0.841h-23.802c-0.464,0-0.842-0.378-0.842-0.841v-1.321c0-1.035,0.843-1.878,1.878-1.878h9.311
			c0,2.386,3.108,2.385,3.108,0c0.444,0,9.362-0.044,9.791,0.07c0.223,0.254,0.523,0.438,0.868,0.505
			c0.327,0.338,0.53,0.796,0.53,1.302V344.824z M591.587,338.517c0-33.127,0.345-31.36-0.834-31.982h10.235v31.987
			C600.606,338.515,591.971,338.517,591.587,338.517z M610.906,267.213c-1.119-0.411-6.13-2.079-7.36-2.261
			c-0.293-0.049-0.578-0.091-0.844-0.118c-0.44-0.046-0.873,0.098-1.2,0.392c-0.327,0.295-0.513,0.714-0.513,1.154v29.247h-21.91
			v-23.465c0-0.858-0.696-1.554-1.554-1.554c-0.858,0-1.554,0.696-1.554,1.554v23.465h-4.632v-24.881
			c0-4.8,3.684-9.142,8.853-10.549c5.801,4.044,13.427,4.227,19.519-0.09c3.455-0.172,8.782,1.215,11.952,2.541l2.46-2.293
			c-6.417-3.093-14.858-3.568-15.635-3.172c-0.777,0.38-3.567,2.996-8.594,2.996c-3.02,0-5.935-1.003-8.43-2.9
			c-1.935-1.469-13.233,3.498-13.233,13.467v31.546c0,0.12,0,0.295,0.032,0.492c0.145,1.133,0.764,2.107,1.651,2.783
			c0.046,0.034,0.092,0.069,0.142,0.098c0.768,0.54,1.713,0.87,2.744,0.87h3.171v33.148c-1.091,0.915-1.787,2.287-1.787,3.819v1.321
			c0,2.178,1.772,3.949,3.95,3.949h23.802c2.178,0,3.95-1.772,3.95-3.949v-1.321c0-1.532-0.696-2.904-1.787-3.819v-26.211v-1.478
			c0-5.505,0-19.945,0-20.861v-13.736v-9.166c0.702,0.166,5.267,1.757,5.959,2L610.906,267.213z"/>
		<g>
			<path fill="#FFFFFF" d="M640.237,245.403c1.044-1.422,3.569-5.527,2.241-10.49c0.001-0.002-1.348-5.296-6.226-7.485
				c-3.927-1.779-6.163,0.167-11.355-0.568c-2.049-0.296-4.078-0.928-6.025-1.877c-0.381-0.185-0.823-0.208-1.221-0.06
				c-1.691,0.626-3.474,7.997-0.269,12.334c-4.698,9.248,1.177,21.056,10.639,21.056
				C634.455,258.313,639.728,252.682,640.237,245.403z M619.811,239.399c4.049,2.348,10.367,1.751,14.968-2.745
				c0.581,0.668,1.179,1.537,1.639,2.625c2.679,6.331-1.022,15.926-8.397,15.926C621.182,255.205,616.795,246.55,619.811,239.399z
				 M639.648,239.046c-0.927-2.795-4.276-7.857-6.125-5.613c-5.767,6.995-17.276,5.296-14.429-4.952
				c4.344,1.751,7.801,1.863,11.56,1.438c1.717-0.195,2.85-0.323,4.32,0.343C637.692,231.481,640.249,235.066,639.648,239.046z"/>
			<path fill="#FFFFFF" d="M643.084,299.416h4.04c0,4.355,0.526,4.04-4.04,4.04c0-0.132,0-0.242,0-0.343c0,0.004,0-0.144,0-0.599
				C643.084,301.983,643.084,301.033,643.084,299.416z M616.278,343.503c0-1.035,0.842-1.878,1.878-1.878h9.311
				c0,2.385,3.108,2.387,3.108,0h9.311c1.035,0,1.877,0.843,1.877,1.878v1.321c0,1.201,0.652,0.842-24.643,0.842
				C616.086,345.665,616.278,344.511,616.278,343.503z M627.467,308.584v29.932c-0.383,0-9.019-0.003-9.402,0.005v-39.105h21.911
				c0,6.526,0,34.531,0,39.105c-0.38-0.007-9.021-0.005-9.401-0.005v-29.932C630.575,306.528,627.467,306.531,627.467,308.584z
				 M605.402,282.319L605.402,282.319l-3.373,3.373v4.397c2.73-2.729,5.45-5.451,5.533-5.535c2.76-2.456,3.93-2.754,7.395-6.34
				v61.47c-1.091,0.915-1.787,2.287-1.787,3.819v1.321c0,2.178,1.772,3.95,3.95,3.95h23.801c2.178,0,3.949-1.772,3.949-3.95v-1.321
				c0-1.533-0.696-2.904-1.787-3.82v-33.119h2.646c2.483,0,4.503-1.9,4.503-4.234v-31.274c0-10.118-11.142-14.803-13.001-13.366
				c-4.974,3.845-11.467,3.83-16.421,0c-1.87-1.449-13.001,3.275-13.001,13.366c0,0.342-1.916,1.217-5.78,5.793v4.446l1.147-1.147
				c0.128-0.069,0.244-0.162,0.351-0.268l2.512-2.985c3.29-4.087,4.878-4.212,4.878-5.839c0-4.821,3.506-9.033,8.608-10.451
				c5.799,4.101,13.207,4.091,18.992,0c5.102,1.418,8.607,5.63,8.607,10.451v25.252h-4.04v-23.465c0-2.056-3.108-2.053-3.108,0
				v23.465h-21.911c0-0.779,0-22.02,0-23.986c0-2.056-3.108-2.053-3.108,0c0,2.974-0.635,2.138-6.322,7.178L605.402,282.319z"/>
		</g>
	</g>
	<g>
		<path fill="#FFFFFF" d="M800.022,290.783l-4.305,2.486c-1.373,0.794-0.805,2.9,0.779,2.9c0.646,0,0.762-0.201,5.08-2.695
			C803.357,292.445,801.798,289.755,800.022,290.783z"/>
		<path fill="#FFFFFF" d="M799.866,282.183c0-0.858-0.696-1.554-1.554-1.554h-5.144c-2.056,0-2.053,3.108,0,3.108h5.144
			C799.17,283.737,799.866,283.041,799.866,282.183z"/>
		<path fill="#FFFFFF" d="M786.737,289.189l-3.519-3.519c-3.699-4.156-5.535-1.232-5.535-14.615
			c0-10.091-11.131-14.815-13.001-13.366c-4.954,3.83-11.448,3.845-16.421,0c-1.859-1.437-13.001,3.247-13.001,13.366v31.274
			c0,2.335,2.02,4.234,4.503,4.234h2.646v33.119c-1.091,0.915-1.787,2.287-1.787,3.82v1.321c0,2.178,1.772,3.95,3.949,3.95h23.801
			c2.178,0,3.95-1.772,3.95-3.95v-1.321c0-1.532-0.696-2.904-1.787-3.819v-53.527c1.814,2.951,4.367,4.804,7.395,7.498
			c0.017,0.017,0.151,0.151,0.376,0.377l3.047,2.302c1.392,0.9,2.892,1.873,5.384-0.619
			C790.311,292.139,786.737,289.189,786.737,289.189z M742.409,302.514c0,0.455,0,0.603,0,0.599c0,0.101,0,0.211,0,0.343
			c-4.566,0-4.04,0.315-4.04-4.04h4.04C742.409,301.033,742.409,301.983,742.409,302.514z M768.372,345.665
			c-25.295,0-24.643,0.359-24.643-0.842v-1.321c0-1.035,0.842-1.878,1.877-1.878h9.311c0,2.387,3.108,2.385,3.108,0h9.311
			c1.036,0,1.878,0.843,1.878,1.878C769.214,344.511,769.407,345.665,768.372,345.665z M754.918,308.584v29.932
			c-0.381,0-9.021-0.003-9.401,0.005c0-4.575,0-32.579,0-39.105h21.911v39.105c-0.383-0.007-9.019-0.005-9.402-0.005v-29.932
			C758.026,306.531,754.918,306.528,754.918,308.584z M776.857,288.6c-5.686-5.04-6.322-4.007-6.322-16.278
			c0-2.053-3.108-2.056-3.108,0c0,1.967,0,23.208,0,23.986h-21.911v-23.465c0-2.053-3.108-2.056-3.108,0v23.465h-4.04v-25.252
			c0-4.821,3.505-9.033,8.607-10.451c5.785,4.091,13.193,4.101,18.992,0c5.102,1.418,8.608,5.63,8.608,10.451
			c0,12.295,1.588,10.853,4.878,14.94C778.255,286.475,777.325,287.421,776.857,288.6z M784.711,292.722
			c-0.538,0.73-1.567,0.885-2.297,0.347l-2.709-1.944c-1.746-1.288,0.201-3.933,1.95-2.643l2.709,1.944
			C785.094,290.964,785.249,291.993,784.711,292.722z"/>
		<path fill="#FFFFFF" d="M795.716,271.096l4.242,2.455c1.778,1.029,3.335-1.661,1.557-2.69l-4.242-2.455
			C795.492,267.376,793.939,270.068,795.716,271.096z"/>
		<path fill="#FFFFFF" d="M806.383,265.118c1.012,1.758,3.725,0.242,2.694-1.55l-2.129-3.699c-0.429-0.744-1.379-1-2.122-0.572
			c-0.744,0.428-0.999,1.378-0.571,2.122L806.383,265.118z"/>
		<path fill="#FFFFFF" d="M806.446,299.152l-2.191,3.792c-0.6,1.038,0.156,2.332,1.344,2.332c1.162,0,1.279-0.66,3.538-4.569
			C810.166,298.926,807.471,297.374,806.446,299.152z"/>
		<path fill="#FFFFFF" d="M817.109,279.422c5.847-5.198,8.824-12.944,7.961-20.719c-0.229-2.044-3.315-1.697-3.09,0.343
			c1.339,12.064-7.082,18.183-10.189,20.946c-1.841,1.637-2.007,4.467-0.37,6.31c1.63,1.83,4.455,2.018,6.31,0.369l3.252-2.892
			c7.259-6.453,10.953-16.069,9.879-25.721c-0.095-0.853-0.866-1.465-1.716-1.373c-0.853,0.095-1.467,0.863-1.373,1.716
			c0.961,8.651-2.349,17.27-8.856,23.054l-3.252,2.892c-0.544,0.484-1.441,0.428-1.922-0.112c-0.499-0.562-0.448-1.424,0.113-1.923
			L817.109,279.422z"/>
		<path fill="#FFFFFF" d="M836.576,239.091c-4.728-4.287-3.584-8.995-8.472-12.258c-7.97-5.319-20.512-0.84-19.87,11.501
			c-0.075,0.319-0.046,0.654,0.078,0.953c0.13,1.168,0.386,2.286,0.741,3.302c1.738,4.971,6.192,10.004,10.379,9.461
			c0.826-0.107,1.389-0.38,1.986-0.668c1.347-0.652,2.547-1.616,3.576-2.872c0.795,1.442,1.804,2.443,3.015,3.295
			c0.081,0.125,0.175,0.243,0.295,0.344c5.477,4.62,4.356,9.268,3.871,11.929c-2.685,14.731,3.808,16.384,2.774,23.113
			c-0.439,2.862-1.889,5.615-4.313,8.189h-10.43c-7.422,0-13.567-5.815-13.697-12.962c-0.097-5.294,3.762-9.482,3.801-9.523
			c2.805-2.934,6.17-3.834,7.925-4.109c0.64-0.101,1.15-0.587,1.282-1.22c0.13-0.634-0.145-1.283-0.692-1.629
			c-0.607-0.383-2.593-1.784-2.664-3.702c-0.02-0.534,0.029-0.958,0.338-1.544c0.413-0.783,1.263-1.323,2.249-1.949
			c1.495-0.949,3.355-2.129,4.327-4.647c0.309-0.801-0.09-1.7-0.89-2.009c-0.8-0.307-1.7,0.088-2.01,0.89
			c-0.602,1.562-1.757,2.294-3.093,3.143c-1.188,0.754-2.535,1.609-3.333,3.125c-0.67,1.272-0.722,2.328-0.694,3.108
			c0.064,1.697,0.813,3.077,1.693,4.124c-7.728,2.692-11.454,10.108-11.346,16c0.153,8.374,6.944,15.255,15.411,15.945l4.127,36.18
			c-1.101,0-2.216,0-3.09,0.001l0,0c-0.856,0.001-1.461,0.002-1.555,0.004c-1.555,0-3.008,1.125-3.008,1.125
			c-1.056,0.886-1.73,2.214-1.73,3.697v1.88c0,2.108,1.715,3.823,3.823,3.823h2.47h7.806h3.217v-3.008v-4.513v-3.008l0,0
			c-0.033,0-0.073,0-0.104,0l2.049-37.019c2.904-3.061,4.664-6.393,5.205-9.918c0.556-3.622-0.395-5.854-1.402-8.218
			c-5.483-12.866,2.44-16.724-2.709-25.463c5.933,0.522,10.212-3.787,11.256-9.26C845.668,242.087,841.502,243.559,836.576,239.091z
			 M819.849,342.122h-2.47c-1.053,0-0.815-1.222-0.815-2.695c0-1.003,0.815-1.818,1.818-1.818h1.467h7.448h0.358v4.513H819.849z
			 M827.297,334.601c-0.182,0-0.586,0-1.132,0c-0.03,0-0.066,0-0.097,0l-4.119-36.111h7.705l-1.999,36.112h-0.358V334.601z
			 M822.956,246.066c-0.825,1.143-1.797,1.99-2.89,2.519c-0.525,0.254-0.722,0.344-1.033,0.384c-2.14,0.273-5.641-3.39-7.046-7.405
			c-0.247-0.708-0.446-1.56-0.555-2.489c1.984-2.21,5.722-3.204,9.195-0.441c2.001,1.593,2.427,3.442,2.919,5.584
			c0.093,0.407,0.19,0.825,0.3,1.249C823.499,245.551,823.181,245.755,822.956,246.066z M828.969,248.609
			c-3.485-3.247-1.282-8.328-6.408-12.407c-0.659-0.525-2.666-2.122-5.654-2.338c-1.888-0.139-3.802,0.333-5.323,1.169
			c0.398-1.943,1.324-3.842,3.059-5.241c3.484-2.811,8.704-2.397,11.734-0.373c3.803,2.538,2.819,7.177,8.109,11.975
			c2.015,1.828,4.446,3.206,7.242,4.109C839.202,252.616,832.265,251.683,828.969,248.609z"/>
		<path fill="#FFFFFF" d="M796.216,231.542c-0.001,0-0.002-0.001-0.003-0.002c-2.341-1.29-5.344-1.197-7.585,0.189
			c-2.244-1.387-5.243-1.48-7.589-0.184c-3.099,1.715-4.609,5.377-3.549,8.803c1.138,4.657,8.417,9.428,9.875,10.344
			c0.768,0.478,1.74,0.491,2.536-0.003c4.399-2.766,10.201-7.367,10.201-12.558C800.102,235.394,798.613,232.87,796.216,231.542z
			 M788.63,247.812c-2.721-1.767-7.145-5.151-8.16-8.35c-1.348-4.233,3.775-7.607,7.129-4.64c0.588,0.52,1.473,0.52,2.06-0.001
			c1.359-1.205,3.458-1.438,5.053-0.558c1.407,0.781,2.28,2.262,2.28,3.867C796.994,241.803,791.703,245.815,788.63,247.812z"/>
		<path fill="#FFFFFF" d="M756.472,258.313c9.462,0,15.337-11.808,10.639-21.056c3.205-4.338,1.422-11.708-0.269-12.334
			c-0.398-0.148-0.84-0.126-1.221,0.06c-1.947,0.949-3.976,1.581-6.025,1.877c-5.192,0.735-7.428-1.211-11.355,0.568
			c-4.878,2.189-6.227,7.483-6.226,7.485c-1.329,4.963,1.197,9.068,2.241,10.49C744.765,252.682,750.037,258.313,756.472,258.313z
			 M756.472,255.205c-7.375,0-11.076-9.595-8.397-15.926c0.46-1.089,1.058-1.958,1.639-2.625c4.601,4.496,10.919,5.093,14.968,2.745
			C767.697,246.55,763.31,255.205,756.472,255.205z M749.518,230.261c1.47-0.666,2.603-0.537,4.32-0.343
			c3.759,0.425,7.216,0.314,11.56-1.438c2.847,10.247-8.662,11.947-14.429,4.952c-1.849-2.244-5.198,2.818-6.125,5.613
			C744.243,235.066,746.8,231.481,749.518,230.261z"/>
		<path fill="#FFFFFF" d="M783.463,290.553"/>
	</g>
</g>
<g>
	<path fill="none" stroke="#FFFFFF" stroke-width="3.7" stroke-linecap="square" stroke-miterlimit="22.9256" d="M591.841,516.711
		c11.666,11.666,24.033,18.213,27.623,14.624"/>
	<path fill="none" stroke="#FFFFFF" stroke-width="3.7" stroke-linecap="square" stroke-miterlimit="22.9256" d="M591.841,516.711
		c-11.666-11.666-18.213-24.033-14.624-27.623"/>
	<path fill="none" stroke="#FFFFFF" stroke-width="3.7" stroke-linecap="square" stroke-miterlimit="22.9256" d="M548.869,553.689
		c-0.771,1.885-0.494,4.049,0.725,5.269c1.22,1.219,3.383,1.496,5.269,0.725c0,0,59.117-22.864,62.976-26.723
		c1.262-1.263,1.564-1.564,1.625-1.625c3.59-3.59-2.958-15.957-14.624-27.623s-24.033-18.213-27.623-14.624
		c-0.061,0.061-0.362,0.362-1.625,1.625C571.733,494.573,548.869,553.689,548.869,553.689z"/>
	
		<line fill="none" stroke="#FFFFFF" stroke-width="3.7" stroke-linecap="round" stroke-miterlimit="22.9256" x1="595.6" y1="522.161" x2="595.6" y2="542.825"/>
	
		<line fill="none" stroke="#FFFFFF" stroke-width="3.7" stroke-linecap="round" stroke-miterlimit="22.9256" x1="584.11" y1="508.356" x2="584.11" y2="547.42"/>
	
		<line fill="none" stroke="#FFFFFF" stroke-width="3.7" stroke-linecap="round" stroke-miterlimit="22.9256" x1="572.621" y1="495.987" x2="572.621" y2="552.016"/>
	
		<line fill="none" stroke="#FFFFFF" stroke-width="3.7" stroke-linecap="round" stroke-miterlimit="22.9256" x1="561.131" y1="522.792" x2="561.131" y2="556.612"/>
	
		<circle fill="none" stroke="#FFFFFF" stroke-width="3.7" stroke-linecap="square" stroke-miterlimit="22.9256" cx="604.792" cy="462.398" r="6.894"/>
	<path fill="none" stroke="#FFFFFF" stroke-width="3.7" stroke-linecap="square" stroke-miterlimit="22.9256" d="M604.792,519.846
		c8.904-11.059,22.973-20.77,34.469-13.787c9.694,5.888,5.936,15.032-0.191,15.99c-6.128,0.958-9.575-4.404-9-6.798"/>
	<polygon fill="none" stroke="#FFFFFF" stroke-width="3.7" stroke-linecap="square" stroke-miterlimit="22.9256" points="
		647.306,474.694 644.98,482.707 650.3,489.339 641.334,489.939 636.837,496.467 633.404,489.05 625.735,486.006 632.292,481.119 
		632.572,472.171 639.372,477.276 	"/>
	<path fill="none" stroke="#FFFFFF" stroke-width="3.7" stroke-linecap="square" stroke-miterlimit="22.9256" d="M587.424,499.593
		c6.062-11.549,9.893-29.526-1.016-32.599c-6.798-1.915-11.49,1.723-11.49,6.894s6.319,7.468,9.192,4.596"/>
	<path fill="none" stroke="#FFFFFF" stroke-width="3.7" stroke-linecap="square" stroke-miterlimit="22.9256" d="M617.917,455.975
		c6.273,11.234,2.251,25.427-8.985,31.7"/>
</g>
<g>
	
		<path fill="none" stroke="#FFFFFF" stroke-width="3.7" stroke-linecap="round" stroke-linejoin="round" stroke-miterlimit="22.9256" d="
		M14.134,520.132v39.776h11.49V459.732c0,0-20.624,4.813-20.624,44.489C5.001,521.115,14.134,520.132,14.134,520.132z"/>
	
		<path fill="none" stroke="#FFFFFF" stroke-width="3.7" stroke-linecap="round" stroke-linejoin="round" stroke-miterlimit="22.9256" d="
		M52.14,460.421c-7.377,0-13.359,8.144-13.359,18.193v10.165c0,7.235,3.122,13.427,7.61,16.359v54.771h11.49v-54.767
		c4.491-2.931,7.614-9.127,7.614-16.362v-10.165C65.495,468.564,59.514,460.421,52.14,460.421z"/>
	<g>
		
			<path fill="none" stroke="#FFFFFF" stroke-width="3.7" stroke-linecap="round" stroke-linejoin="round" stroke-miterlimit="22.9256" d="
			M78.651,460.026v28.753c0,7.235,3.122,13.427,7.61,16.359v54.771h11.492v-54.767c4.488-2.931,7.611-9.127,7.611-16.362v-28.753"/>
		
			<line fill="none" stroke="#FFFFFF" stroke-width="3.7" stroke-linecap="round" stroke-linejoin="round" stroke-miterlimit="22.9256" x1="79.708" y1="481.093" x2="104.31" y2="481.093"/>
		<g>
			
				<line fill="none" stroke="#FFFFFF" stroke-width="3.7" stroke-linecap="round" stroke-linejoin="round" stroke-miterlimit="22.9256" x1="87.517" y1="479.324" x2="87.517" y2="460.173"/>
			
				<line fill="none" stroke="#FFFFFF" stroke-width="3.7" stroke-linecap="round" stroke-linejoin="round" stroke-miterlimit="22.9256" x1="96.504" y1="479.324" x2="96.504" y2="460.173"/>
		</g>
	</g>
</g>
<g>
	<g>
		<path fill="#FFFFFF" d="M251.838,560.315c-1.021,0-1.849-0.828-1.849-1.849v-6.4l-30.901-34.363l-29.99,34.347v6.416
			c0,1.021-0.828,1.849-1.849,1.849s-1.849-0.828-1.849-1.849v-7.109c0-0.447,0.162-0.879,0.456-1.216l31.818-36.422
			c0.348-0.399,0.85-0.613,1.379-0.613c0.004,0,0.009,0,0.013,0c0.524,0,1.024,0.203,1.375,0.593l32.771,36.432
			c0.305,0.339,0.474,0.77,0.474,1.226v7.109C253.687,559.487,252.859,560.315,251.838,560.315z"/>
		<path fill="#FFFFFF" d="M293.624,560.438H180.469c-1.021,0-1.849-0.828-1.849-1.849s0.828-1.849,1.849-1.849h113.154
			c1.021,0,1.849,0.828,1.849,1.849S294.645,560.438,293.624,560.438z"/>
		<path fill="#FFFFFF" d="M219.05,560.562c-1.021,0-1.849-0.828-1.849-1.849v-43.758c0-1.021,0.828-1.849,1.849-1.849h38.284
			c0.525,0,1.025,0.223,1.375,0.613l32.715,36.402c0.305,0.339,0.474,0.78,0.474,1.236v7.109c0,1.021-0.828,1.849-1.849,1.849
			s-1.849-0.828-1.849-1.849v-6.401l-31.69-35.262h-35.611v41.909C220.899,559.734,220.072,560.562,219.05,560.562z"/>
		<path fill="#FFFFFF" d="M203.396,553.289h-15.777c-1.021,0-1.849-0.828-1.849-1.849s0.828-1.849,1.849-1.849h15.777
			c1.021,0,1.849,0.828,1.849,1.849S204.417,553.289,203.396,553.289z"/>
		<path fill="#FFFFFF" d="M289.926,553.289h-53.742c-1.021,0-1.849-0.828-1.849-1.849s0.828-1.849,1.849-1.849h53.742
			c1.021,0,1.849,0.828,1.849,1.849S290.947,553.289,289.926,553.289z"/>
	</g>
	<path fill="#FFFFFF" d="M195.261,532.335h-15.729c-0.65,0-1.253-0.342-1.587-0.899c-0.334-0.558-0.35-1.25-0.043-1.823
		l9.775-18.232h-4.506c-0.65,0-1.252-0.341-1.586-0.898s-0.351-1.249-0.045-1.822l9.216-17.248h-4.811
		c-0.65,0-1.252-0.341-1.586-0.899c-0.334-0.558-0.351-1.25-0.044-1.823l14.573-27.215c0.322-0.601,0.948-0.976,1.63-0.976
		s1.308,0.375,1.63,0.976l14.573,27.215c0.307,0.573,0.29,1.265-0.044,1.823c-0.334,0.558-0.936,0.899-1.586,0.899h-4.812
		l9.216,17.248c0.306,0.573,0.289,1.265-0.045,1.822c-0.334,0.557-0.936,0.898-1.586,0.898h-4.54l0.738,1.41
		c0.474,0.905,0.125,2.022-0.78,2.496c-0.904,0.474-2.022,0.124-2.496-0.78l-2.156-4.116c-0.3-0.573-0.279-1.262,0.056-1.815
		s0.935-0.892,1.582-0.892h4.512l-9.216-17.248c-0.306-0.573-0.289-1.265,0.045-1.822c0.334-0.557,0.936-0.898,1.586-0.898h4.808
		l-11.486-21.45l-11.486,21.45h4.808c0.65,0,1.252,0.341,1.586,0.898s0.351,1.249,0.045,1.822l-9.216,17.248h4.511
		c0.65,0,1.253,0.342,1.587,0.899c0.334,0.558,0.35,1.25,0.043,1.823l-9.775,18.232h12.639c1.021,0,1.849,0.828,1.849,1.849
		C197.11,531.507,196.282,532.335,195.261,532.335z"/>
	<path fill="#FFFFFF" d="M237.094,510.148h-6.827c-1.021,0-1.849-0.828-1.849-1.849s0.828-1.849,1.849-1.849h3.749l-8.127-15.279
		c-0.305-0.573-0.287-1.264,0.048-1.82c0.334-0.556,0.936-0.897,1.585-0.897h3.996l-9.987-18.651l-4.817,8.987
		c-0.482,0.9-1.602,1.239-2.503,0.756c-0.9-0.482-1.239-1.603-0.756-2.503l6.447-12.024c0.322-0.601,0.948-0.971,1.63-0.971
		c0,0,0,0,0.001,0c0.682,0,1.308,0.371,1.629,0.972l13.074,24.412c0.307,0.573,0.29,1.264-0.044,1.822
		c-0.334,0.558-0.936,0.898-1.586,0.898H230.6l8.127,15.279c0.305,0.573,0.287,1.264-0.048,1.82
		C238.345,509.807,237.743,510.148,237.094,510.148z"/>
	<path fill="#FFFFFF" d="M273.129,491.96c-8.651,0-15.69-7.038-15.69-15.69s7.038-15.69,15.69-15.69c4.69,0,9.097,2.074,12.091,5.69
		c0.555,0.671,0.567,1.638,0.029,2.322c-0.539,0.684-1.482,0.9-2.264,0.518c-1.091-0.532-2.263-0.802-3.485-0.802
		c-4.39,0-7.961,3.571-7.961,7.961c0,4.39,3.571,7.961,7.961,7.961c1.222,0,2.394-0.27,3.485-0.802
		c0.782-0.381,1.725-0.166,2.264,0.518c0.538,0.684,0.526,1.652-0.029,2.322C282.226,489.886,277.819,491.96,273.129,491.96z
		 M273.129,464.279c-6.612,0-11.992,5.38-11.992,11.992s5.38,11.992,11.992,11.992c1.312,0,2.595-0.212,3.806-0.617
		c-5.199-1.171-9.095-5.827-9.095-11.375s3.895-10.204,9.095-11.375C275.724,464.491,274.441,464.279,273.129,464.279z"/>
</g>
<g>
	<path fill="#FFFFFF" d="M425.716,482.665c-2.618,0-5.122-0.925-7.129-2.648c-2.732-2.347-4.138-5.888-3.762-9.473
		c0.114-1.085,1.085-1.872,2.17-1.758c1.085,0.114,1.872,1.085,1.758,2.17c-0.241,2.296,0.659,4.563,2.407,6.065
		c1.422,1.222,3.236,1.818,5.104,1.674c1.869-0.142,3.572-1.003,4.793-2.425c0.789-0.918,1.328-2.027,1.561-3.205
		c0.211-1.07,1.25-1.768,2.32-1.555c1.07,0.211,1.766,1.25,1.555,2.32c-0.364,1.845-1.208,3.579-2.44,5.013
		c-1.909,2.222-4.569,3.568-7.49,3.79C426.28,482.655,425.997,482.665,425.716,482.665z"/>
	<path fill="#FFFFFF" d="M439.67,520.326c-3.884,0-6.937-0.53-7.232-0.583c-0.898-0.161-1.569-0.917-1.622-1.828
		c-1.231-21.069-0.044-33.245,0.007-33.753c0.038-0.375,0.182-0.731,0.415-1.027c0.093-0.118,2.319-2.905,5.865-4.757
		c3.428-1.791,8.723-3.042,14.483,1.17c2.109,1.542,3.174,4.107,2.781,6.693c-0.134,0.887-0.432,1.72-0.864,2.467
		c0.852,1.904,7.596,17.605,2.176,25.595C452.314,519.266,445.161,520.326,439.67,520.326z M434.668,516.071
		c1.543,0.183,4.083,0.397,6.817,0.267c3.791-0.18,8.764-1.063,10.926-4.25c3.326-4.903,0.092-15.474-1.992-20.554
		c-0.228,0.107-0.463,0.202-0.705,0.285c-8.412,2.882-10.961,2.956-12.242,2.698c-1.069-0.215-1.762-1.256-1.546-2.325
		c0.215-1.069,1.254-1.761,2.325-1.546c0.174,0.034,1.94,0.261,10.183-2.562c1.096-0.376,1.854-1.285,2.028-2.434
		c0.174-1.143-0.278-2.232-1.208-2.912c-3.308-2.419-6.781-2.707-10.323-0.857c-2.045,1.069-3.571,2.574-4.233,3.293
		C434.485,487.816,433.746,498.875,434.668,516.071z"/>
	<path fill="#FFFFFF" d="M399.681,566.974c-0.706,0-1.425-0.125-2.129-0.387c-1.52-0.566-2.723-1.693-3.388-3.173
		s-0.708-3.128-0.122-4.64l11.129-28.717c0.092-0.237,0.229-0.455,0.403-0.64l12.737-13.532c0.748-0.794,1.998-0.831,2.791-0.084
		c0.794,0.747,0.832,1.997,0.084,2.791l-12.473,13.252L397.725,560.2c-0.202,0.52-0.187,1.086,0.042,1.595
		c0.228,0.509,0.642,0.896,1.164,1.091c1.061,0.395,2.222-0.119,2.643-1.17l10.774-26.919c0.156-0.39,0.433-0.72,0.79-0.943
		l16.391-10.2c0.806-0.631,1.284-1.61,1.284-2.636v-3.219c0-1.091,0.884-1.975,1.975-1.975s1.975,0.884,1.975,1.975v3.219
		c0,2.289-1.095,4.474-2.928,5.844c-0.045,0.034-0.091,0.065-0.139,0.095l-15.921,9.908l-10.534,26.318
		C404.296,565.545,402.068,566.974,399.681,566.974z"/>
	<path fill="#FFFFFF" d="M445.776,566.525c-0.264,0-0.529-0.018-0.792-0.055c-1.586-0.22-3.025-1.098-3.948-2.407l-16.438-23.332
		c-0.05-0.07-0.095-0.144-0.135-0.22l-1.314-2.506c-0.506-0.966-0.134-2.159,0.832-2.666c0.965-0.506,2.159-0.134,2.666,0.832
		l1.254,2.392l16.363,23.227c0.3,0.425,0.748,0.698,1.263,0.77c0.514,0.071,1.02-0.069,1.424-0.396
		c0.75-0.608,0.911-1.672,0.374-2.475c-0.007-0.01-0.014-0.021-0.021-0.032l-14.172-22.087c-0.103-0.16-0.182-0.335-0.235-0.519
		l-1.749-6.058c-0.302-1.048,0.302-2.143,1.35-2.445c1.049-0.302,2.142,0.302,2.445,1.35l1.669,5.782l14.007,21.831
		c1.666,2.509,1.16,5.826-1.182,7.723C448.4,566.071,447.099,566.525,445.776,566.525z"/>
	<path fill="#FFFFFF" d="M434.655,474.798c-0.273,0-0.546-0.057-0.801-0.17l-15.39-6.83c-4.068-0.239-7.316-3.814-7.685-4.235
		c-0.719-0.82-0.637-2.068,0.184-2.787c0.819-0.717,2.064-0.637,2.783,0.179l0,0c0.604,0.682,2.345,2.276,4.137,2.762l2.482-4.108
		c1.394-2.307,4.167-3.366,6.744-2.575c0.068,0.021,0.135,0.046,0.201,0.074l6.96,2.994c2.425,0.799,4.077,3.116,4.032,5.677
		c-0.003,0.141-0.02,0.282-0.053,0.419l-1.672,7.08c-0.135,0.572-0.518,1.054-1.044,1.315
		C435.257,474.73,434.956,474.798,434.655,474.798z M421.759,464.94l11.521,5.113l1.068-4.519c-0.059-0.779-0.594-1.46-1.35-1.692
		c-0.068-0.021-0.135-0.046-0.201-0.074l-6.932-2.982c-0.817-0.211-1.679,0.137-2.12,0.866L421.759,464.94z"/>
	<path fill="#FFFFFF" d="M424.899,514.416h-8.639c-0.847,0-1.6-0.54-1.871-1.343l-5.644-16.719
		c-0.921-2.728,0.545-5.709,3.268-6.645c2.54-0.872,5.316,0.302,6.458,2.732l1.359,2.892l0.809-6.11
		c0.143-1.081,1.136-1.841,2.217-1.698c1.081,0.143,1.841,1.136,1.698,2.217l-1.692,12.779c-0.115,0.869-0.789,1.558-1.655,1.692
		c-0.867,0.136-1.717-0.318-2.09-1.111l-4.221-8.98c-0.283-0.602-0.971-0.893-1.601-0.677c-0.675,0.232-1.038,0.971-0.81,1.647
		l5.19,15.376h6.092l6.767-11.507c0.553-0.94,1.763-1.254,2.703-0.701s1.254,1.763,0.701,2.703l-7.339,12.48
		C426.246,514.045,425.599,514.416,424.899,514.416z"/>
	<path fill="#FFFFFF" d="M408.435,489.579c-0.289,0-0.582-0.064-0.859-0.198l-10.776-5.222c-0.27-0.131-0.508-0.322-0.693-0.559
		l-12.031-15.349c-0.897-1.144-1.284-2.566-1.09-4.007c0.193-1.44,0.942-2.711,2.109-3.577c2.203-1.637,5.263-1.346,7.119,0.674
		l12.002,13.062l12.363,5.63c0.992,0.452,1.431,1.623,0.979,2.615s-1.623,1.431-2.615,0.979l-12.728-5.797
		c-0.241-0.11-0.457-0.266-0.636-0.461l-12.273-13.357c-0.484-0.527-1.283-0.602-1.856-0.176c-0.304,0.226-0.5,0.557-0.55,0.933
		s0.051,0.747,0.284,1.045l11.749,14.99l10.365,5.023c0.981,0.476,1.391,1.657,0.916,2.638
		C409.873,489.169,409.168,489.579,408.435,489.579z"/>
	<path fill="#FFFFFF" d="M388.205,463.019c-0.225,0-0.454-0.039-0.678-0.121c-1.024-0.375-1.551-1.509-1.176-2.533l7.404-20.243
		c0.18-0.493,0.549-0.893,1.025-1.114c0.476-0.22,1.02-0.242,1.512-0.061l16.655,6.14c1.023,0.377,1.547,1.512,1.17,2.534
		l-4.119,11.196c-0.182,0.495-0.555,0.897-1.034,1.115c-0.48,0.219-1.027,0.237-1.52,0.049l-14.706-5.587l-2.679,7.326
		C389.767,462.522,389.01,463.019,388.205,463.019z M394.096,450.687l12.886,4.895l2.749-7.472l-12.947-4.773L394.096,450.687z"/>
	<path fill="#FFFFFF" d="M380.155,485.883c-0.221,0-0.446-0.038-0.666-0.116c-1.027-0.368-1.56-1.498-1.192-2.525l5.399-15.06
		c0.368-1.027,1.498-1.56,2.525-1.192c1.026,0.368,1.56,1.498,1.192,2.525l-5.399,15.06
		C381.725,485.381,380.965,485.883,380.155,485.883z"/>
</g>
</svg>
