<?xml version="1.0" encoding="utf-8"?>
<!-- Generator: Adobe Illustrator 17.0.0, SVG Export Plug-In . SVG Version: 6.00 Build 0)  -->
<!DOCTYPE svg PUBLIC "-//W3C//DTD SVG 1.1//EN" "http://www.w3.org/Graphics/SVG/1.1/DTD/svg11.dtd" [
	<!ENTITY ns_extend "http://ns.adobe.com/Extensibility/1.0/">
	<!ENTITY ns_ai "http://ns.adobe.com/AdobeIllustrator/10.0/">
	<!ENTITY ns_graphs "http://ns.adobe.com/Graphs/1.0/">
	<!ENTITY ns_vars "http://ns.adobe.com/Variables/1.0/">
	<!ENTITY ns_imrep "http://ns.adobe.com/ImageReplacement/1.0/">
	<!ENTITY ns_sfw "http://ns.adobe.com/SaveForWeb/1.0/">
	<!ENTITY ns_custom "http://ns.adobe.com/GenericCustomNamespace/1.0/">
	<!ENTITY ns_adobe_xpath "http://ns.adobe.com/XPath/1.0/">
]>
<svg version="1.1" id="레이어_1" xmlns:x="&ns_extend;" xmlns:i="&ns_ai;" xmlns:graph="&ns_graphs;"
	 xmlns="http://www.w3.org/2000/svg" xmlns:xlink="http://www.w3.org/1999/xlink" x="0px" y="0px" width="612.28px"
	 height="858.9px" viewBox="0 0 612.28 858.9" enable-background="new 0 0 612.28 858.9" xml:space="preserve">
<metadata>
	<sfw  xmlns="&ns_sfw;">
		<slices></slices>
		<sliceSourceBounds  x="41.187" y="-787.488" width="470.43" height="749.664" bottomLeftOrigin="true"></sliceSourceBounds>
	</sfw>
</metadata>
<g>
	
		<line fill="none" stroke="#FFFFFF" stroke-width="4.0436" stroke-linecap="round" stroke-linejoin="round" stroke-miterlimit="10" x1="271.033" y1="187.893" x2="272.549" y2="187.893"/>
	
		<line fill="none" stroke="#FFFFFF" stroke-width="4.0436" stroke-linecap="round" stroke-linejoin="round" stroke-miterlimit="10" x1="264.554" y1="182.704" x2="268.202" y2="182.704"/>
	
		<polyline fill="none" stroke="#FFFFFF" stroke-width="4.0436" stroke-linecap="round" stroke-linejoin="round" stroke-miterlimit="10" points="
		253.919,219.841 295.468,194.38 339.158,221.186 	"/>
	
		<line fill="none" stroke="#FFFFFF" stroke-width="4.0436" stroke-linecap="round" stroke-linejoin="round" stroke-miterlimit="10" x1="263.577" y1="214.625" x2="263.577" y2="259.699"/>
	
		<line fill="none" stroke="#FFFFFF" stroke-width="4.0436" stroke-linecap="round" stroke-linejoin="round" stroke-miterlimit="10" x1="329.862" y1="215.951" x2="329.862" y2="259.699"/>
	
		<rect x="278.16" y="221.917" fill="none" stroke="#FFFFFF" stroke-width="4.0436" stroke-linecap="round" stroke-linejoin="round" stroke-miterlimit="10" width="38.166" height="17.616"/>
	
		<polyline fill="none" stroke="#FFFFFF" stroke-width="4.0436" stroke-linecap="round" stroke-linejoin="round" stroke-miterlimit="10" points="
		264.666,211.003 264.666,194.432 273.946,194.432 273.946,205.702 	"/>
	
		<line fill="none" stroke="#FFFFFF" stroke-width="4.0436" stroke-linecap="round" stroke-linejoin="round" stroke-miterlimit="10" x1="261.351" y1="194.432" x2="277.261" y2="194.432"/>
	
		<line fill="none" stroke="#FFFFFF" stroke-width="4.0436" stroke-linecap="round" stroke-linejoin="round" stroke-miterlimit="10" x1="288.434" y1="224.118" x2="288.434" y2="238.798"/>
	
		<line fill="none" stroke="#FFFFFF" stroke-width="4.0436" stroke-linecap="round" stroke-linejoin="round" stroke-miterlimit="10" x1="304.583" y1="224.118" x2="304.583" y2="238.798"/>
	
		<line fill="none" stroke="#FFFFFF" stroke-width="4.0436" stroke-linecap="round" stroke-linejoin="round" stroke-miterlimit="10" x1="265.563" y1="253.734" x2="281.473" y2="253.734"/>
	
		<line fill="none" stroke="#FFFFFF" stroke-width="4.0436" stroke-linecap="round" stroke-linejoin="round" stroke-miterlimit="10" x1="268.879" y1="243.79" x2="268.879" y2="214.625"/>
	
		<line fill="none" stroke="#FFFFFF" stroke-width="4.0436" stroke-linecap="round" stroke-linejoin="round" stroke-miterlimit="10" x1="314.616" y1="253.734" x2="329.199" y2="253.734"/>
	
		<line fill="none" stroke="#FFFFFF" stroke-width="4.0436" stroke-linecap="round" stroke-linejoin="round" stroke-miterlimit="10" x1="258.756" y1="253.53" x2="261.626" y2="253.53"/>
	
		<line fill="none" stroke="#FFFFFF" stroke-width="4.0436" stroke-linecap="round" stroke-linejoin="round" stroke-miterlimit="10" x1="280.36" y1="229.257" x2="286.234" y2="229.257"/>
	
		<line fill="none" stroke="#FFFFFF" stroke-width="4.0436" stroke-linecap="round" stroke-linejoin="round" stroke-miterlimit="10" x1="306.785" y1="229.257" x2="308.254" y2="229.257"/>
	
		<line fill="none" stroke="#FFFFFF" stroke-width="4.0436" stroke-linecap="round" stroke-linejoin="round" stroke-miterlimit="10" x1="252.436" y1="262.599" x2="341.205" y2="262.599"/>
</g>
<g>
	
		<line fill="none" stroke="#FFFFFF" stroke-width="3.8" stroke-linecap="round" stroke-linejoin="round" stroke-miterlimit="22.9256" x1="82.708" y1="525.017" x2="84.165" y2="525.017"/>
	
		<line fill="none" stroke="#FFFFFF" stroke-width="3.8" stroke-linecap="round" stroke-linejoin="round" stroke-miterlimit="22.9256" x1="76.478" y1="519.884" x2="79.985" y2="519.884"/>
	
		<polyline fill="none" stroke="#FFFFFF" stroke-width="3.8" stroke-linecap="round" stroke-linejoin="round" stroke-miterlimit="22.9256" points="
		66.252,556.62 106.202,531.433 148.211,557.951 	"/>
	
		<line fill="none" stroke="#FFFFFF" stroke-width="3.8" stroke-linecap="round" stroke-linejoin="round" stroke-miterlimit="22.9256" x1="75.538" y1="551.46" x2="75.538" y2="596.048"/>
	
		<line fill="none" stroke="#FFFFFF" stroke-width="3.8" stroke-linecap="round" stroke-linejoin="round" stroke-miterlimit="22.9256" x1="139.273" y1="552.772" x2="139.273" y2="596.048"/>
	
		<rect x="89.56" y="558.674" fill="none" stroke="#FFFFFF" stroke-width="3.8" stroke-linecap="round" stroke-linejoin="round" stroke-miterlimit="22.9256" width="36.698" height="17.426"/>
	
		<polyline fill="none" stroke="#FFFFFF" stroke-width="3.8" stroke-linecap="round" stroke-linejoin="round" stroke-miterlimit="22.9256" points="
		76.585,547.878 76.585,531.485 85.508,531.485 85.508,542.633 	"/>
	
		<line fill="none" stroke="#FFFFFF" stroke-width="3.8" stroke-linecap="round" stroke-linejoin="round" stroke-miterlimit="22.9256" x1="73.398" y1="531.485" x2="88.695" y2="531.485"/>
	
		<line fill="none" stroke="#FFFFFF" stroke-width="3.8" stroke-linecap="round" stroke-linejoin="round" stroke-miterlimit="22.9256" x1="99.439" y1="560.851" x2="99.439" y2="575.373"/>
	
		<line fill="none" stroke="#FFFFFF" stroke-width="3.8" stroke-linecap="round" stroke-linejoin="round" stroke-miterlimit="22.9256" x1="114.966" y1="560.851" x2="114.966" y2="575.373"/>
	
		<line fill="none" stroke="#FFFFFF" stroke-width="3.8" stroke-linecap="round" stroke-linejoin="round" stroke-miterlimit="22.9256" x1="77.447" y1="590.148" x2="92.746" y2="590.148"/>
	
		<line fill="none" stroke="#FFFFFF" stroke-width="3.8" stroke-linecap="round" stroke-linejoin="round" stroke-miterlimit="22.9256" x1="80.636" y1="580.311" x2="80.636" y2="551.46"/>
	
		<line fill="none" stroke="#FFFFFF" stroke-width="3.8" stroke-linecap="round" stroke-linejoin="round" stroke-miterlimit="22.9256" x1="124.613" y1="590.148" x2="138.635" y2="590.148"/>
	
		<line fill="none" stroke="#FFFFFF" stroke-width="3.8" stroke-linecap="round" stroke-linejoin="round" stroke-miterlimit="22.9256" x1="70.903" y1="589.946" x2="73.662" y2="589.946"/>
	
		<line fill="none" stroke="#FFFFFF" stroke-width="3.8" stroke-linecap="round" stroke-linejoin="round" stroke-miterlimit="22.9256" x1="91.676" y1="565.935" x2="97.323" y2="565.935"/>
	
		<line fill="none" stroke="#FFFFFF" stroke-width="3.8" stroke-linecap="round" stroke-linejoin="round" stroke-miterlimit="22.9256" x1="117.084" y1="565.935" x2="118.496" y2="565.935"/>
	
		<line fill="none" stroke="#FFFFFF" stroke-width="3.8" stroke-linecap="round" stroke-linejoin="round" stroke-miterlimit="22.9256" x1="48.3" y1="598.917" x2="150.18" y2="598.917"/>
	<g>
		
			<path fill="none" stroke="#FFFFFF" stroke-width="3.8" stroke-linecap="round" stroke-linejoin="round" stroke-miterlimit="22.9256" d="
			M46.014,572.537c4.647-1.429,8.134-4.702,10.07-8.428"/>
		
			<path fill="none" stroke="#FFFFFF" stroke-width="3.8" stroke-linecap="round" stroke-linejoin="round" stroke-miterlimit="22.9256" d="
			M46.014,581.215c4.647-1.431,8.134-4.703,10.07-8.427"/>
		
			<path fill="none" stroke="#FFFFFF" stroke-width="3.8" stroke-linecap="round" stroke-linejoin="round" stroke-miterlimit="22.9256" d="
			M46.014,589.891c4.647-1.424,8.134-4.7,10.07-8.424"/>
		
			<path fill="none" stroke="#FFFFFF" stroke-width="3.8" stroke-linecap="round" stroke-linejoin="round" stroke-miterlimit="22.9256" d="
			M65.853,572.537c-4.646-1.429-8.133-4.702-10.067-8.428"/>
		
			<path fill="none" stroke="#FFFFFF" stroke-width="3.8" stroke-linecap="round" stroke-linejoin="round" stroke-miterlimit="22.9256" d="
			M65.853,581.215c-4.646-1.431-8.133-4.703-10.067-8.427"/>
		
			<path fill="none" stroke="#FFFFFF" stroke-width="3.8" stroke-linecap="round" stroke-linejoin="round" stroke-miterlimit="22.9256" d="
			M65.853,589.891c-4.646-1.424-8.133-4.7-10.067-8.424"/>
		
			<line fill="none" stroke="#FFFFFF" stroke-width="3.8" stroke-linecap="round" stroke-linejoin="round" stroke-miterlimit="22.9256" x1="55.85" y1="565.306" x2="55.85" y2="597.124"/>
	</g>
</g>
<path fill="#FFFFFF" stroke="#FFFFFF" stroke-miterlimit="10" d="M501.036,240.303c2.462-2.283,3.889-5.5,3.889-8.911
	c0-6.7-5.451-12.151-12.149-12.151c-1.842,0-3.571,0.443-5.138,1.18c-0.491-0.491-0.995-0.956-1.531-1.357
	c1.886-1.858,2.973-4.406,2.973-7.102c0-5.498-4.472-9.972-9.972-9.972c-3.634,0-6.786,1.973-8.529,4.883
	c-0.869-1.334-1.829-2.544-2.962-3.435c1.434-1.513,2.252-3.529,2.252-5.656c0-4.538-3.693-8.229-8.23-8.229
	c-4.537,0-8.227,3.691-8.227,8.229c0,2.128,0.818,4.143,2.249,5.656c-1.132,0.891-2.092,2.101-2.961,3.436
	c-1.743-2.911-4.896-4.885-8.53-4.885c-5.5,0-9.972,4.474-9.972,9.972c0,2.696,1.087,5.243,2.973,7.102
	c-0.535,0.401-1.039,0.866-1.53,1.357c-1.566-0.737-3.294-1.18-5.136-1.18c-6.702,0-12.152,5.451-12.152,12.151
	c0,3.411,1.427,6.628,3.889,8.911c-5.133,3.672-8.843,10.571-10.064,18.874c-0.102,0.687,0.373,1.326,1.061,1.427
	c0.062,0.008,0.124,0.013,0.183,0.013c0.616,0,1.152-0.45,1.244-1.074c1.208-8.225,5.176-15.133,10.352-18.029
	c0.38-0.213,0.622-0.607,0.642-1.043c0.016-0.435-0.19-0.85-0.553-1.095c-2.655-1.799-4.24-4.785-4.24-7.985
	c0-5.313,4.325-9.636,9.638-9.636s9.635,4.323,9.635,9.636c0,3.202-1.585,6.188-4.24,7.985c-0.363,0.244-0.57,0.66-0.553,1.095
	c0.02,0.435,0.262,0.83,0.645,1.043c5.173,2.894,9.141,9.802,10.352,18.029c0.098,0.684,0.714,1.141,1.427,1.061
	c0.688-0.101,1.162-0.74,1.061-1.427c-1.224-8.306-4.934-15.204-10.067-18.874c2.462-2.282,3.889-5.498,3.889-8.911
	c0-3.918-1.896-7.372-4.784-9.596c0.648-0.586,1.317-1.118,2.03-1.517c0.383-0.213,0.625-0.607,0.645-1.043
	c0.016-0.435-0.19-0.85-0.55-1.095c-2.056-1.393-3.284-3.704-3.284-6.179c0-4.112,3.346-7.458,7.458-7.458
	c4.112,0,7.458,3.346,7.458,7.458c0,2.477-1.228,4.788-3.28,6.179c-0.363,0.246-0.57,0.66-0.553,1.095
	c0.02,0.435,0.262,0.83,0.645,1.043c4.073,2.28,7.199,7.736,8.155,14.239c0.092,0.625,0.629,1.074,1.244,1.074
	c0.059,0,0.121-0.005,0.183-0.013c0.688-0.101,1.162-0.74,1.061-1.427c-0.969-6.577-3.876-12.069-7.913-15.087
	c1.886-1.858,2.973-4.406,2.973-7.102c0-0.775-0.109-1.52-0.277-2.244c1.153-2.275,2.699-4.063,4.484-5.061
	c0.38-0.213,0.622-0.607,0.642-1.043c0.016-0.435-0.19-0.85-0.553-1.095c-1.571-1.066-2.511-2.837-2.511-4.736
	c0-3.151,2.563-5.714,5.713-5.714c3.153,0,5.716,2.563,5.716,5.714c0,1.897-0.94,3.668-2.514,4.736
	c-0.363,0.246-0.57,0.66-0.553,1.095c0.02,0.435,0.262,0.83,0.642,1.043c1.785,0.998,3.332,2.785,4.485,5.058
	c-0.168,0.725-0.278,1.472-0.278,2.247c0,2.696,1.087,5.243,2.973,7.102c-4.033,3.019-6.94,8.51-7.91,15.087
	c-0.102,0.687,0.373,1.326,1.061,1.427c0.701,0.098,1.326-0.376,1.427-1.061c0.959-6.505,4.082-11.961,8.152-14.239
	c0.383-0.213,0.625-0.607,0.645-1.043c0.016-0.435-0.19-0.85-0.55-1.095c-2.056-1.393-3.284-3.704-3.284-6.179
	c0-4.112,3.346-7.458,7.458-7.458c4.112,0,7.458,3.346,7.458,7.458c0,2.477-1.228,4.788-3.28,6.179
	c-0.363,0.246-0.57,0.66-0.553,1.095c0.02,0.435,0.262,0.83,0.645,1.043c0.714,0.4,1.383,0.932,2.031,1.517
	c-2.889,2.223-4.784,5.677-4.784,9.596c0,3.411,1.427,6.628,3.889,8.911c-5.133,3.672-8.843,10.571-10.064,18.874
	c-0.101,0.687,0.373,1.326,1.061,1.427c0.062,0.008,0.124,0.013,0.183,0.013c0.616,0,1.152-0.45,1.244-1.074
	c1.208-8.225,5.176-15.133,10.352-18.029c0.38-0.213,0.622-0.607,0.642-1.043c0.016-0.435-0.19-0.85-0.553-1.095
	c-2.655-1.799-4.24-4.785-4.24-7.985c0-5.313,4.325-9.636,9.638-9.636c5.313,0,9.635,4.323,9.635,9.636
	c0,3.2-1.585,6.186-4.24,7.985c-0.363,0.246-0.57,0.66-0.553,1.095c0.02,0.435,0.262,0.83,0.645,1.043
	c5.173,2.894,9.141,9.802,10.352,18.029c0.098,0.684,0.714,1.141,1.427,1.061c0.688-0.101,1.162-0.74,1.061-1.427
	C509.879,250.871,506.166,243.971,501.036,240.303z"/>
<g>
	<g>
		<path fill="#FFFFFF" d="M161.625,76.782c-0.521,0.164-1.061,0.09-1.5-0.164c-0.39-0.223-0.701-0.591-0.848-1.053l-1.96-6.187
			l-0.858-2.707v27.272c0,1.035-0.837,1.872-1.872,1.872c-0.064,0-0.126-0.003-0.187-0.01c-0.041-0.003-0.085-0.008-0.126-0.015
			c-0.021-0.003-0.041-0.008-0.059-0.013c-0.003,0.003-0.005,0-0.008-0.003c-0.059-0.01-0.118-0.026-0.175-0.044
			c-0.049-0.013-0.095-0.031-0.141-0.051c-0.026-0.01-0.049-0.021-0.074-0.031c-0.015-0.008-0.031-0.015-0.046-0.023
			c-0.624-0.303-1.053-0.943-1.053-1.682V79.846c0-0.56-0.455-1.014-1.014-1.014c-0.56,0-1.012,0.455-1.012,1.014v14.097
			c0,0.696-0.375,1.3-0.935,1.618c-0.039,0.023-0.077,0.044-0.118,0.064c-0.015,0.008-0.031,0.015-0.046,0.023
			c-0.023,0.01-0.049,0.021-0.074,0.031c-0.046,0.021-0.092,0.039-0.141,0.051c-0.057,0.018-0.116,0.033-0.175,0.044
			c-0.003,0.003-0.005,0.005-0.01,0.003c-0.018,0.005-0.039,0.01-0.056,0.013c-0.041,0.008-0.082,0.013-0.123,0.015
			c-0.062,0.008-0.126,0.01-0.19,0.01c-1.035,0-1.872-0.837-1.872-1.872V66.671l-0.858,2.707l-1.96,6.187
			c-0.146,0.462-0.457,0.83-0.848,1.053c-0.28,0.162-0.601,0.252-0.935,0.252c-0.187,0-0.378-0.028-0.568-0.087
			c-0.984-0.311-1.531-1.364-1.217-2.35l1.785-5.637l2.137-6.747c0.56-1.767,2.18-2.953,4.035-2.953h6.367
			c1.854,0,3.475,1.187,4.035,2.953l2.137,6.747l1.785,5.637C163.156,75.419,162.611,76.471,161.625,76.782z"/>
		<circle fill="#FFFFFF" cx="151.705" cy="54.055" r="3.801"/>
	</g>
	
		<path fill="none" stroke="#FFFFFF" stroke-width="4.1589" stroke-linecap="round" stroke-linejoin="round" stroke-miterlimit="22.9256" d="
		M168.665,117.616c-5.565,0-10.399-3.443-12.841-8.496c-2.443,5.054-7.277,8.496-12.843,8.496c-5.564,0-10.398-3.443-12.841-8.496
		c-2.443,5.054-7.277,8.496-12.842,8.496c-5.565,0-10.399-3.443-12.842-8.496c-2.442,5.054-7.277,8.496-12.842,8.496
		c-5.565,0-10.399-3.443-12.842-8.496c-2.442,5.054-7.276,8.496-12.842,8.496"/>
	
		<path fill="none" stroke="#FFFFFF" stroke-width="4.1589" stroke-linecap="round" stroke-linejoin="round" stroke-miterlimit="22.9256" d="
		M168.665,132.393c-5.565,0-10.399-3.443-12.841-8.496c-2.443,5.054-7.277,8.496-12.843,8.496c-5.564,0-10.398-3.443-12.841-8.496
		c-2.443,5.054-7.277,8.496-12.842,8.496c-5.565,0-10.399-3.443-12.842-8.496c-2.442,5.054-7.277,8.496-12.842,8.496
		c-5.565,0-10.399-3.443-12.842-8.496c-2.442,5.054-7.276,8.496-12.842,8.496"/>
	
		<polyline fill="none" stroke="#FFFFFF" stroke-width="3.8877" stroke-linecap="round" stroke-linejoin="round" stroke-miterlimit="22.9256" points="
		78.064,100.38 106.233,54.537 133.146,100.769 	"/>
	
		<polyline fill="none" stroke="#FFFFFF" stroke-width="3.8877" stroke-linecap="round" stroke-linejoin="round" stroke-miterlimit="22.9256" points="
		125.579,87.524 133.293,79.392 145.933,95.921 151.208,91.143 163.383,109.605 	"/>
</g>
<g>
	
		<path fill="none" stroke="#FFFFFF" stroke-width="3.8877" stroke-linecap="round" stroke-linejoin="round" stroke-miterlimit="22.9256" d="
		M318.854,59.143c3.184,0,5.766,2.581,5.766,5.766c0,3.184-2.581,5.765-5.766,5.765c-3.184,0-5.765-2.581-5.765-5.765
		C313.089,61.724,315.67,59.143,318.854,59.143L318.854,59.143z"/>
	
		<line fill="none" stroke="#FFFFFF" stroke-width="3.8877" stroke-linecap="round" stroke-linejoin="round" stroke-miterlimit="22.9256" x1="318.949" y1="50.592" x2="318.949" y2="54.64"/>
	
		<line fill="none" stroke="#FFFFFF" stroke-width="3.8877" stroke-linecap="round" stroke-linejoin="round" stroke-miterlimit="22.9256" x1="308.798" y1="54.718" x2="311.661" y2="57.581"/>
	
		<line fill="none" stroke="#FFFFFF" stroke-width="3.8877" stroke-linecap="round" stroke-linejoin="round" stroke-miterlimit="22.9256" x1="304.538" y1="64.813" x2="308.587" y2="64.813"/>
	
		<line fill="none" stroke="#FFFFFF" stroke-width="3.8877" stroke-linecap="round" stroke-linejoin="round" stroke-miterlimit="22.9256" x1="308.665" y1="74.965" x2="311.527" y2="72.102"/>
	
		<line fill="none" stroke="#FFFFFF" stroke-width="3.8877" stroke-linecap="round" stroke-linejoin="round" stroke-miterlimit="22.9256" x1="318.76" y1="79.225" x2="318.76" y2="75.176"/>
	
		<line fill="none" stroke="#FFFFFF" stroke-width="3.8877" stroke-linecap="round" stroke-linejoin="round" stroke-miterlimit="22.9256" x1="328.911" y1="75.099" x2="326.049" y2="72.236"/>
	
		<line fill="none" stroke="#FFFFFF" stroke-width="3.8877" stroke-linecap="round" stroke-linejoin="round" stroke-miterlimit="22.9256" x1="333.171" y1="65.003" x2="329.123" y2="65.003"/>
	
		<line fill="none" stroke="#FFFFFF" stroke-width="3.8877" stroke-linecap="round" stroke-linejoin="round" stroke-miterlimit="22.9256" x1="329.044" y1="54.852" x2="326.182" y2="57.714"/>
	
		<path fill="none" stroke="#FFFFFF" stroke-width="4.1589" stroke-linecap="round" stroke-linejoin="round" stroke-miterlimit="22.9256" d="
		M339.094,117.616c-5.565,0-10.399-3.443-12.841-8.496c-2.443,5.054-7.277,8.496-12.843,8.496c-5.564,0-10.398-3.443-12.841-8.496
		c-2.443,5.054-7.277,8.496-12.842,8.496c-5.565,0-10.399-3.443-12.842-8.496c-2.442,5.054-7.277,8.496-12.842,8.496
		c-5.565,0-10.399-3.443-12.842-8.496c-2.442,5.054-7.276,8.496-12.842,8.496"/>
	
		<path fill="none" stroke="#FFFFFF" stroke-width="4.1589" stroke-linecap="round" stroke-linejoin="round" stroke-miterlimit="22.9256" d="
		M339.094,132.393c-5.565,0-10.399-3.443-12.841-8.496c-2.443,5.054-7.277,8.496-12.843,8.496c-5.564,0-10.398-3.443-12.841-8.496
		c-2.443,5.054-7.277,8.496-12.842,8.496c-5.565,0-10.399-3.443-12.842-8.496c-2.442,5.054-7.277,8.496-12.842,8.496
		c-5.565,0-10.399-3.443-12.842-8.496c-2.442,5.054-7.276,8.496-12.842,8.496"/>
	
		<polyline fill="none" stroke="#FFFFFF" stroke-width="3.8877" stroke-linecap="round" stroke-linejoin="round" stroke-miterlimit="22.9256" points="
		248.493,100.38 276.662,54.537 303.575,100.769 	"/>
	
		<polyline fill="none" stroke="#FFFFFF" stroke-width="3.8877" stroke-linecap="round" stroke-linejoin="round" stroke-miterlimit="22.9256" points="
		296.008,87.524 303.721,79.392 316.362,95.921 321.637,91.143 333.812,109.605 	"/>
</g>
<g>
	<rect x="458.97" y="70.866" fill="#FFFFFF" stroke="#FFFFFF" stroke-miterlimit="10" width="2.997" height="46.951"/>
	<path fill="#FFFFFF" stroke="#FFFFFF" stroke-miterlimit="10" d="M483.135,119.583l-2.7-1.3l15.657-32.509l-35.623-14.433
		l-35.624,14.433l15.657,32.509l-2.699,1.3l-16.35-33.948c-0.18-0.373-0.197-0.804-0.048-1.19c0.149-0.386,0.451-0.693,0.835-0.849
		l37.667-15.261c0.359-0.146,0.765-0.146,1.124,0l37.666,15.261c0.384,0.155,0.687,0.462,0.835,0.849
		c0.149,0.386,0.132,0.817-0.047,1.19L483.135,119.583z"/>
	<rect x="434.562" y="86.469" fill="#FFFFFF" stroke="#FFFFFF" stroke-miterlimit="10" width="4.64" height="2.996"/>
	<rect x="481.7" y="86.469" fill="#FFFFFF" stroke="#FFFFFF" stroke-miterlimit="10" width="4.641" height="2.996"/>
	<path fill="#FFFFFF" stroke="#FFFFFF" stroke-miterlimit="10" d="M486.88,79.846h-2.997V61.462h-46.831v18.384h-2.996V59.964
		c0-0.828,0.67-1.498,1.498-1.498h49.827c0.828,0,1.499,0.67,1.499,1.498V79.846z"/>
	<path fill="#FFFFFF" stroke="#FFFFFF" stroke-miterlimit="10" d="M476.587,59.964h-2.997v-7.746h-26.245v7.746h-2.996V50.72
		c0-0.828,0.67-1.498,1.498-1.498h29.242c0.828,0,1.499,0.67,1.499,1.498V59.964z"/>
	<path fill="#FFFFFF" stroke="#FFFFFF" stroke-miterlimit="10" d="M461.882,50.186h-2.997V39.822c0-0.828,0.671-1.498,1.499-1.498
		h11.518c0.548,0,1.053,0.299,1.316,0.781c0.262,0.482,0.24,1.068-0.056,1.529l-1.428,2.213h8.548v2.996h-11.298
		c-0.549,0-1.053-0.299-1.316-0.781c-0.262-0.482-0.24-1.069,0.057-1.529l1.428-2.213h-7.269V50.186z"/>
	<path fill="#FFFFFF" stroke="#FFFFFF" stroke-miterlimit="10" d="M439.677,131.027c-3.423,0-6.407-2.191-7.43-5.453l2.859-0.897
		c0.629,2.005,2.465,3.352,4.57,3.352c0.002,0,0.004,0,0.006,0c2.343-0.004,4.373-1.754,4.719-4.072l0.191-1.276l4.062-0.006
		l0.194,1.275c0.352,2.318,2.383,4.062,4.724,4.062c0.003,0,0.005,0,0.008,0c2.345-0.003,4.376-1.756,4.724-4.075l0.191-1.271
		l4.114-0.016l0.192,1.281c0.348,2.319,2.378,4.071,4.723,4.075c0.003,0,0.005,0,0.008,0c2.342,0,4.371-1.745,4.724-4.062
		l0.193-1.275l4.063,0.005l0.19,1.275c0.346,2.319,2.375,4.07,4.719,4.074c0.002,0,0.004,0,0.006,0c2.104,0,3.94-1.347,4.569-3.353
		l2.859,0.897c-1.022,3.262-4.007,5.452-7.429,5.453c-0.003,0-0.006,0-0.009,0c-2.982-0.005-5.65-1.747-6.942-4.311
		c-1.297,2.558-3.966,4.292-6.944,4.293c-0.004,0-0.008,0-0.013,0c-2.999-0.005-5.681-1.768-6.967-4.354
		c-1.283,2.589-3.968,4.355-6.968,4.361c-0.004,0-0.009,0-0.013,0c-2.978,0-5.647-1.736-6.944-4.293
		c-1.292,2.562-3.959,4.305-6.941,4.311C439.682,131.027,439.679,131.027,439.677,131.027z"/>
</g>
<path fill="#FFFFFF" stroke="#FFFFFF" stroke-linejoin="round" stroke-miterlimit="10" d="M142.035,215.109l-29.249-4.054
	l-12.893-26.564l-12.893,26.564l-29.249,4.054l21.28,20.471l-5.183,29.07l26.045-13.914l26.046,13.914l-5.185-29.07L142.035,215.109
	z M122.444,259.841l-22.552-12.047l-22.55,12.047l4.487-25.169l-18.424-17.725l25.325-3.509l11.163-23l11.162,23l25.325,3.509
	l-18.425,17.725L122.444,259.841z"/>
<polygon fill="#FFFFFF" stroke="#FFFFFF" stroke-linejoin="round" stroke-miterlimit="10" points="158.098,209.351 139.538,206.779 
	131.357,189.923 122.873,207.403 125.209,208.537 131.357,195.869 137.808,209.161 152.443,211.189 141.796,221.432 
	144.389,235.977 131.969,229.342 130.745,231.632 147.884,240.787 144.595,222.341 "/>
<polygon fill="#FFFFFF" stroke="#FFFFFF" stroke-linejoin="round" stroke-miterlimit="10" points="55.396,235.977 57.989,221.432 
	47.342,211.189 61.977,209.161 68.428,195.869 74.576,208.537 76.912,207.403 68.428,189.923 60.247,206.779 41.687,209.351 
	55.19,222.341 51.901,240.787 69.04,231.632 67.816,229.342 "/>
<g>
	<g>
		<path fill="#FFFFFF" d="M303.485,605.628c-0.845,0-1.53-0.685-1.53-1.53v-5.297l-25.577-28.442l-24.823,28.429v5.311
			c0,0.845-0.685,1.53-1.53,1.53s-1.53-0.685-1.53-1.53v-5.884c0-0.37,0.134-0.728,0.377-1.006l26.336-30.146
			c0.288-0.33,0.704-0.507,1.141-0.507c0.003,0,0.007,0,0.011,0c0.434,0,0.848,0.168,1.138,0.491l27.124,30.155
			c0.252,0.281,0.392,0.637,0.392,1.015v5.884C305.016,604.943,304.33,605.628,303.485,605.628z"/>
		<path fill="#FFFFFF" d="M338.072,605.73h-93.658c-0.845,0-1.53-0.685-1.53-1.53s0.685-1.53,1.53-1.53h93.657
			c0.845,0,1.53,0.685,1.53,1.53S338.917,605.73,338.072,605.73z"/>
		<path fill="#FFFFFF" d="M276.347,605.833c-0.845,0-1.53-0.685-1.53-1.53v-36.218c0-0.845,0.685-1.53,1.53-1.53h31.688
			c0.435,0,0.848,0.185,1.138,0.507l27.078,30.13c0.252,0.281,0.392,0.646,0.392,1.023v5.884c0,0.845-0.685,1.53-1.53,1.53
			c-0.845,0-1.53-0.685-1.53-1.53V598.8l-26.23-29.186h-29.475v34.688C277.877,605.148,277.193,605.833,276.347,605.833z"/>
		<path fill="#FFFFFF" d="M263.39,599.813h-13.059c-0.845,0-1.53-0.685-1.53-1.53c0-0.845,0.685-1.53,1.53-1.53h13.059
			c0.845,0,1.53,0.685,1.53,1.53C264.92,599.128,264.235,599.813,263.39,599.813z"/>
		<path fill="#FFFFFF" d="M335.011,599.813h-44.482c-0.845,0-1.53-0.685-1.53-1.53c0-0.845,0.685-1.53,1.53-1.53h44.482
			c0.845,0,1.53,0.685,1.53,1.53C336.541,599.128,335.856,599.813,335.011,599.813z"/>
	</g>
	<path fill="#FFFFFF" d="M256.657,582.469h-13.019c-0.538,0-1.037-0.283-1.314-0.744c-0.276-0.462-0.29-1.035-0.036-1.509
		l8.091-15.091h-3.73c-0.538,0-1.036-0.282-1.313-0.743c-0.276-0.461-0.291-1.034-0.037-1.508l7.628-14.276h-3.982
		c-0.538,0-1.036-0.282-1.313-0.744c-0.276-0.462-0.291-1.035-0.036-1.509l12.062-22.526c0.267-0.497,0.785-0.808,1.349-0.808
		c0.565,0,1.083,0.31,1.349,0.808l12.062,22.526c0.254,0.474,0.24,1.047-0.036,1.509c-0.276,0.462-0.775,0.744-1.313,0.744h-3.983
		l7.628,14.276c0.253,0.474,0.239,1.047-0.037,1.508c-0.276,0.461-0.775,0.743-1.313,0.743h-3.758l0.611,1.167
		c0.392,0.749,0.103,1.674-0.646,2.066c-0.748,0.392-1.674,0.103-2.066-0.646l-1.785-3.407c-0.248-0.474-0.231-1.045,0.046-1.502
		s0.774-0.738,1.309-0.738h3.735l-7.628-14.276c-0.253-0.474-0.239-1.047,0.037-1.508c0.276-0.461,0.775-0.743,1.313-0.743h3.98
		l-9.507-17.754l-9.507,17.754h3.98c0.538,0,1.036,0.282,1.313,0.743c0.276,0.461,0.291,1.034,0.037,1.508l-7.628,14.276h3.734
		c0.538,0,1.037,0.283,1.314,0.744c0.276,0.462,0.29,1.035,0.036,1.509l-8.091,15.091h10.461c0.845,0,1.53,0.685,1.53,1.53
		C258.187,581.784,257.502,582.469,256.657,582.469z"/>
	<path fill="#FFFFFF" d="M291.282,564.105h-5.651c-0.845,0-1.53-0.685-1.53-1.53c0-0.845,0.685-1.53,1.53-1.53h3.103l-6.727-12.646
		c-0.252-0.474-0.238-1.046,0.04-1.506c0.276-0.46,0.775-0.742,1.312-0.742h3.307l-8.266-15.437l-3.987,7.439
		c-0.399,0.745-1.326,1.026-2.072,0.626c-0.745-0.399-1.026-1.327-0.626-2.072l5.336-9.952c0.267-0.497,0.785-0.804,1.349-0.804
		c0,0,0,0,0.001,0c0.564,0,1.083,0.307,1.348,0.805l10.821,20.206c0.254,0.474,0.24,1.046-0.036,1.508
		c-0.276,0.462-0.775,0.743-1.313,0.743h-3.316l6.727,12.646c0.252,0.474,0.238,1.046-0.04,1.506
		C292.317,563.823,291.819,564.105,291.282,564.105z"/>
	<path fill="#FFFFFF" d="M321.108,553.694c-7.16,0-12.987-5.825-12.987-12.987s5.825-12.987,12.987-12.987
		c3.882,0,7.53,1.717,10.008,4.71c0.459,0.555,0.469,1.356,0.024,1.922c-0.446,0.566-1.227,0.745-1.874,0.429
		c-0.903-0.44-1.873-0.664-2.885-0.664c-3.634,0-6.589,2.956-6.589,6.589s2.956,6.589,6.589,6.589c1.011,0,1.982-0.223,2.885-0.664
		c0.647-0.315,1.428-0.137,1.874,0.429c0.445,0.566,0.435,1.367-0.024,1.922C328.638,551.978,324.99,553.694,321.108,553.694z
		 M321.108,530.783c-5.473,0-9.926,4.453-9.926,9.926s4.453,9.926,9.926,9.926c1.086,0,2.148-0.175,3.15-0.511
		c-4.303-0.969-7.528-4.823-7.528-9.415c0-4.592,3.224-8.446,7.528-9.415C323.256,530.958,322.194,530.783,321.108,530.783z"/>
</g>
<g id="beach_lounger-_deck_chair">
	<g>
		
			<line fill="none" stroke="#FFFFFF" stroke-width="3.7998" stroke-linecap="round" stroke-linejoin="round" stroke-miterlimit="22.9256" x1="84.064" y1="734.027" x2="84.064" y2="761.585"/>
		
			<path fill="none" stroke="#FFFFFF" stroke-width="3.7998" stroke-linecap="round" stroke-linejoin="round" stroke-miterlimit="22.9256" d="
			M75.797,728.516c-8.267,9.645-22.046,2.756-22.046,2.756v-4.134l29.173-13.26c0.724-0.329,1.556-0.329,2.281,0l29.173,13.26v4.134
			c0,0-13.779,6.889-20.668-2.756"/>
		
			<path fill="none" stroke="#FFFFFF" stroke-width="3.7998" stroke-linecap="round" stroke-linejoin="round" stroke-miterlimit="22.9256" d="
			M74.419,731.271c0,0,9.645,5.511,19.29,0"/>
	</g>
	<g>
		
			<path fill="none" stroke="#FFFFFF" stroke-width="3.7998" stroke-linecap="round" stroke-linejoin="round" stroke-miterlimit="22.9256" d="
			M124.022,751.94c-5.511-4.134-11.575,1.721-13.779,4.134c-2.628,2.878-11.023,11.023-11.023,11.023H60.64
			c-2.756,0-6.889,1.378-6.889,5.512v2.756"/>
		
			<polyline fill="none" stroke="#FFFFFF" stroke-width="3.7998" stroke-linecap="round" stroke-linejoin="round" stroke-miterlimit="22.9256" points="
			118.511,760.207 103.354,775.363 62.018,775.363 		"/>
		
			<line fill="none" stroke="#FFFFFF" stroke-width="3.7998" stroke-linecap="round" stroke-linejoin="round" stroke-miterlimit="22.9256" x1="68.907" y1="775.363" x2="63.396" y2="785.009"/>
		
			<line fill="none" stroke="#FFFFFF" stroke-width="3.7998" stroke-linecap="round" stroke-linejoin="round" stroke-miterlimit="22.9256" x1="103.354" y1="775.363" x2="108.866" y2="785.009"/>
	</g>
	
		<path fill="none" stroke="#FFFFFF" stroke-width="3.7998" stroke-linecap="round" stroke-linejoin="round" stroke-miterlimit="22.9256" d="
		M99.019,713.359c2.837-8.027,10.493-13.778,19.492-13.778c11.415,0,20.668,9.253,20.668,20.668
		c0,11.415-9.253,20.668-20.668,20.668c-2.94,0-5.737-0.614-8.269-1.72"/>
</g>
<g>
	<g>
		
			<path fill="none" stroke="#FFFFFF" stroke-width="3.3978" stroke-linecap="round" stroke-linejoin="round" stroke-miterlimit="22.9256" d="
			M308.428,742.861l8.111-4.704l-0.26-22.392l-0.051-4.372c-0.003-0.312,0.082-0.616,0.24-0.88c0.572-0.948,1.715-1.387,2.77-1.061
			l0.911,0.277c1.171,0.363,2.013,1.387,2.13,2.613l2.883,29.825c0.082,0.832,0.007,1.671-0.219,2.479l-0.318,1.133
			c-0.209,0.77-0.647,1.458-1.25,1.972l-13.264,15.312c-0.866,0.743-1.407,1.804-1.496,2.948l-0.558,6.451"/>
		
			<path fill="none" stroke="#FFFFFF" stroke-width="3.3978" stroke-linecap="round" stroke-linejoin="round" stroke-miterlimit="22.9256" d="
			M289.562,772.46l0.106-19.115c0.147-0.664,0.445-1.284,0.866-1.815l19.18-23.406l0.675-0.825c0.743-0.938,2.088-1.123,3.054-0.421
			l1.161,0.846c1.037,0.757,1.339,2.174,0.695,3.287l-6.872,11.85l-3.016,4.629"/>
		
			<path fill="none" stroke="#FFFFFF" stroke-width="3.3978" stroke-linecap="round" stroke-linejoin="round" stroke-miterlimit="22.9256" d="
			M309.708,728.162l1.802-10.842c0.117-0.571,0.426-1.085,0.875-1.457l0,0c1.024-0.848,2.471-0.956,3.61-0.27l0.284,0.171"/>
		
			<rect x="286.245" y="772.461" fill="none" stroke="#FFFFFF" stroke-width="3.3978" stroke-linecap="round" stroke-linejoin="round" stroke-miterlimit="22.9256" width="23.565" height="7.761"/>
		
			<line fill="none" stroke="#FFFFFF" stroke-width="3.3978" stroke-linecap="round" stroke-linejoin="round" stroke-miterlimit="22.9256" x1="309.126" y1="780.222" x2="309.126" y2="785.789"/>
		
			<line fill="none" stroke="#FFFFFF" stroke-width="3.3978" stroke-linecap="round" stroke-linejoin="round" stroke-miterlimit="22.9256" x1="287.95" y1="780.222" x2="287.95" y2="785.789"/>
	</g>
	<g>
		
			<path fill="none" stroke="#FFFFFF" stroke-width="3.3978" stroke-linecap="round" stroke-linejoin="round" stroke-miterlimit="22.9256" d="
			M259.361,742.861l-8.111-4.704l0.26-22.392l0.051-4.372c0.003-0.312-0.082-0.616-0.24-0.88c-0.572-0.948-1.715-1.387-2.77-1.061
			l-0.911,0.277c-1.171,0.363-2.013,1.387-2.13,2.613l-2.883,29.825c-0.082,0.832-0.007,1.671,0.219,2.479l0.318,1.133
			c0.209,0.77,0.647,1.458,1.25,1.972l13.264,15.312c0.866,0.743,1.407,1.804,1.496,2.948l0.558,6.451"/>
		
			<path fill="none" stroke="#FFFFFF" stroke-width="3.3978" stroke-linecap="round" stroke-linejoin="round" stroke-miterlimit="22.9256" d="
			M278.227,772.46l-0.106-19.115c-0.147-0.664-0.445-1.284-0.866-1.815l-19.18-23.406l-0.675-0.825
			c-0.743-0.938-2.089-1.123-3.054-0.421l-1.161,0.846c-1.037,0.757-1.339,2.174-0.695,3.287l6.872,11.85l3.017,4.629"/>
		
			<path fill="none" stroke="#FFFFFF" stroke-width="3.3978" stroke-linecap="round" stroke-linejoin="round" stroke-miterlimit="22.9256" d="
			M258.08,728.162l-1.802-10.842c-0.117-0.571-0.426-1.085-0.875-1.457l0,0c-1.024-0.848-2.472-0.956-3.61-0.27l-0.284,0.171"/>
		
			<rect x="257.978" y="772.461" fill="none" stroke="#FFFFFF" stroke-width="3.3978" stroke-linecap="round" stroke-linejoin="round" stroke-miterlimit="22.9256" width="23.565" height="7.761"/>
		
			<line fill="none" stroke="#FFFFFF" stroke-width="3.3978" stroke-linecap="round" stroke-linejoin="round" stroke-miterlimit="22.9256" x1="258.663" y1="780.222" x2="258.663" y2="785.789"/>
		
			<line fill="none" stroke="#FFFFFF" stroke-width="3.3978" stroke-linecap="round" stroke-linejoin="round" stroke-miterlimit="22.9256" x1="279.839" y1="780.222" x2="279.839" y2="785.789"/>
	</g>
	<g>
		
			<path fill="none" stroke="#FFFFFF" stroke-width="3.3978" stroke-linecap="round" stroke-linejoin="round" stroke-miterlimit="22.9256" d="
			M281.875,738.905c0,0,4.542-19.31,0.673-36.405"/>
		
			<path fill="none" stroke="#FFFFFF" stroke-width="3.3978" stroke-linecap="round" stroke-linejoin="round" stroke-miterlimit="22.9256" d="
			M284.109,724.1c0,0,6.346-4.879,6.682-12.618"/>
		
			<path fill="none" stroke="#FFFFFF" stroke-width="3.3978" stroke-linecap="round" stroke-linejoin="round" stroke-miterlimit="22.9256" d="
			M284.109,719.698c0,0-5.935-5.187-7.113-9.898"/>
		
			<path fill="none" stroke="#FFFFFF" stroke-width="3.3978" stroke-linecap="round" stroke-linejoin="round" stroke-miterlimit="22.9256" d="
			M283.762,732.792c0,0-16.004-1.05-14.328-14.725c1.762-14.375,7.615-21.711,5.988-29.596c9.268,2.469,17.56,9.117,21.364,19.195
			C302.05,721.61,297.438,730.49,283.762,732.792z"/>
	</g>
</g>
<g>
	<g transform="matrix( 1, 0, 0, 1, 0,0) ">
		<g>
			<path fill="#FFFFFF" stroke="#FFFFFF" stroke-width="1.5" stroke-miterlimit="10" d="M255.049,430.879
				c-0.522,0-0.945-0.499-0.945-1.115v-6.54h-9.764c-0.3,0-0.582-0.168-0.76-0.453c-0.178-0.286-0.231-0.653-0.143-0.991
				l10.709-40.798c0.123-0.467,0.488-0.785,0.903-0.785c0,0,0,0,0.001,0c0.415,0,0.78,0.319,0.902,0.787l10.646,40.798
				c0.089,0.338,0.036,0.705-0.143,0.99c-0.178,0.284-0.46,0.453-0.76,0.453h-9.701v6.54
				C255.994,430.38,255.571,430.879,255.049,430.879z M255.049,420.995h9.366l-9.369-35.905l-9.424,35.905H255.049z"/>
		</g>
	</g>
	<g transform="matrix( 1, 0, 0, 1, 0,0) ">
		<g>
			<path fill="#FFFFFF" stroke="#FFFFFF" stroke-width="1.5" stroke-miterlimit="10" d="M273.317,411.557
				c-0.522,0-0.945-0.499-0.945-1.115v-3.196h-5.039c-0.3,0-0.582-0.168-0.76-0.453c-0.178-0.284-0.231-0.652-0.143-0.99
				l5.984-22.888c0.122-0.467,0.488-0.787,0.903-0.787s0.781,0.319,0.903,0.787l5.984,22.888c0.089,0.338,0.036,0.705-0.143,0.99
				c-0.178,0.284-0.46,0.453-0.76,0.453h-5.039v3.196C274.262,411.058,273.839,411.557,273.317,411.557z M273.317,405.017h4.703
				l-4.703-17.991l-4.703,17.991H273.317z"/>
		</g>
	</g>
	<g transform="matrix( 1, 0, 0, 1, 0,0) ">
		<g>
			<path fill="#FFFFFF" stroke="#FFFFFF" stroke-width="1.5" stroke-miterlimit="10" d="M323.395,426.42
				c-0.522,0-0.945-0.499-0.945-1.115v-5.054h-7.685c-0.3,0-0.582-0.168-0.76-0.453c-0.178-0.284-0.231-0.653-0.143-0.991
				l8.629-32.921c0.123-0.467,0.488-0.785,0.903-0.785h0.001c0.415,0,0.78,0.319,0.902,0.788l8.567,32.921
				c0.089,0.338,0.035,0.706-0.143,0.989c-0.178,0.284-0.46,0.453-0.76,0.453h-7.622v5.054
				C324.34,425.921,323.917,426.42,323.395,426.42z M323.395,418.022h7.288l-7.292-28.021l-7.345,28.021H323.395z"/>
		</g>
	</g>
	<g transform="matrix( 1, 0, 0, 1, 0,0) ">
		<g>
			<path fill="#FFFFFF" stroke="#FFFFFF" stroke-width="1.5" stroke-miterlimit="10" d="M280.688,436.007
				c-0.359,0-0.704-0.244-0.861-0.656c-3.959-10.337-2.085-18.097,5.571-23.061c1.636-1.089,3.092-2.035,4.358-2.832
				c5.278-2.53,6.503-4.588,6.618-5.878c0.138-1.549-1.299-3.114-2.625-4.211h-15.706c-0.522,0-0.945-0.499-0.945-1.115
				c0-0.615,0.423-1.115,0.945-1.115h41.827c0.522,0,0.945,0.499,0.945,1.115c0,0.615-0.423,1.115-0.945,1.115h-15.53
				c3.373,2.711,4.985,5.205,4.929,7.591c-0.049,2.125-1.408,3.983-4.034,5.521c-5.607,4.006-8.43,7.834-8.322,11.329
				c0.105,3.338,2.907,6.683,8.33,9.94c0.465,0.279,0.651,0.949,0.413,1.498c-0.236,0.549-0.806,0.769-1.27,0.488
				c-6.168-3.703-9.23-7.577-9.363-11.844c-0.138-4.427,2.905-8.797,9.301-13.362c2.021-1.187,3.025-2.395,3.055-3.632
				c0.033-1.388-1.09-3.82-6.621-7.524l-0.007-0.004h-4.077c1.182,1.459,1.713,2.946,1.581,4.443
				c-0.249,2.798-2.767,5.305-7.699,7.664c-1.164,0.739-2.607,1.676-4.237,2.762c-6.742,4.372-8.298,10.976-4.767,20.196
				c0.215,0.56,0.004,1.221-0.472,1.475C280.951,435.975,280.818,436.007,280.688,436.007z M304.182,393.945
				c-0.187,0-0.376-0.065-0.541-0.202c-0.427-0.354-0.53-1.049-0.231-1.553l18.078-30.543c0.274-0.46,0.796-0.605,1.214-0.348
				l11.604,7.199l5.241-6.182c0.369-0.435,0.967-0.435,1.336,0c0.369,0.435,0.369,1.141,0,1.576l-5.733,6.762
				c-0.293,0.347-0.743,0.425-1.107,0.199l-11.483-7.124l-17.603,29.741C304.772,393.779,304.479,393.945,304.182,393.945z
				 M290.199,393.945c-0.267,0-0.533-0.134-0.72-0.393l-0.535-0.743l-15.87-22.293l-8.592,5.103
				c-0.37,0.221-0.824,0.128-1.112-0.231l-10.973-13.729l-7.303,4.513c-0.459,0.29-1.032,0.076-1.275-0.47
				c-0.242-0.544-0.064-1.219,0.399-1.504l7.937-4.905c0.373-0.231,0.834-0.142,1.126,0.222l10.982,13.74l8.631-5.127
				c0.391-0.231,0.866-0.116,1.148,0.279l16.879,23.703c0.338,0.469,0.29,1.173-0.108,1.57
				C290.633,393.858,290.416,393.945,290.199,393.945z"/>
		</g>
	</g>
	<g transform="matrix( 1, 0, 0, 1, 0,0) ">
		<g>
			<path fill="#FFFFFF" stroke="#FFFFFF" stroke-width="1.5" stroke-miterlimit="10" d="M343.868,399.369h-16.503
				c-0.522,0-0.945-0.499-0.945-1.115c0-0.615,0.423-1.115,0.945-1.115h16.503c0.522,0,0.945,0.499,0.945,1.115
				C344.813,398.87,344.389,399.369,343.868,399.369z"/>
		</g>
	</g>
	<g transform="matrix( 1, 0, 0, 1, 0,0) ">
		<g>
			<path fill="#FFFFFF" stroke="#FFFFFF" stroke-width="1.5" stroke-miterlimit="10" d="M268.845,399.369h-8.882
				c-0.522,0-0.945-0.499-0.945-1.115c0-0.615,0.423-1.115,0.945-1.115h8.882c0.522,0,0.945,0.499,0.945,1.115
				C269.79,398.87,269.366,399.369,268.845,399.369z"/>
		</g>
	</g>
</g>
<g>
	<path fill="#FFFFFF" stroke="#FFFFFF" stroke-width="0.75" stroke-miterlimit="10" d="M142.156,401.958H51.725
		c-0.859,0-1.555,0.803-1.555,1.795s0.696,1.795,1.555,1.795h90.432c0.859,0,1.555-0.803,1.555-1.795
		S143.016,401.958,142.156,401.958z"/>
	<path fill="#FFFFFF" stroke="#FFFFFF" stroke-width="0.75" stroke-miterlimit="10" d="M78.165,411.444
		c0-0.991-0.696-1.795-1.555-1.795H53.947c-0.859,0-1.555,0.803-1.555,1.795s0.696,1.795,1.555,1.795H76.61
		C77.469,413.239,78.165,412.436,78.165,411.444z"/>
	<path fill="#FFFFFF" stroke="#FFFFFF" stroke-width="0.75" stroke-miterlimit="10" d="M116.605,411.444
		c0-0.991-0.696-1.795-1.555-1.795H93.274c-0.859,0-1.555,0.803-1.555,1.795s0.696,1.795,1.555,1.795h21.775
		C115.908,413.239,116.605,412.436,116.605,411.444z"/>
	<path fill="#FFFFFF" stroke="#FFFFFF" stroke-width="0.75" stroke-miterlimit="10" d="M86.831,413.239
		c0.859,0,1.555-0.803,1.555-1.795s-0.696-1.795-1.555-1.795h-4.666c-0.859,0-1.555,0.803-1.555,1.795s0.696,1.795,1.555,1.795
		H86.831z"/>
	<path fill="#FFFFFF" stroke="#FFFFFF" stroke-width="0.75" stroke-miterlimit="10" d="M125.27,413.239
		c0.859,0,1.555-0.803,1.555-1.795s-0.696-1.795-1.555-1.795h-4.666c-0.859,0-1.555,0.803-1.555,1.795s0.696,1.795,1.555,1.795
		H125.27z"/>
	<path fill="#FFFFFF" stroke="#FFFFFF" stroke-width="0.75" stroke-miterlimit="10" d="M139.712,409.65h-7.999
		c-0.859,0-1.555,0.803-1.555,1.795s0.696,1.795,1.555,1.795h7.999c0.859,0,1.555-0.803,1.555-1.795S140.571,409.65,139.712,409.65z
		"/>
	<path fill="#FFFFFF" stroke="#FFFFFF" stroke-width="0.75" stroke-miterlimit="10" d="M136.602,417.341h-17.775
		c-0.859,0-1.555,0.803-1.555,1.795s0.696,1.795,1.555,1.795h17.775c0.859,0,1.555-0.803,1.555-1.795
		S137.461,417.341,136.602,417.341z"/>
	<path fill="#FFFFFF" stroke="#FFFFFF" stroke-width="0.75" stroke-miterlimit="10" d="M101.273,417.341H76.832
		c-0.859,0-1.555,0.803-1.555,1.795s0.696,1.795,1.555,1.795h24.441c0.859,0,1.555-0.803,1.555-1.795
		S102.132,417.341,101.273,417.341z"/>
	<path fill="#FFFFFF" stroke="#FFFFFF" stroke-width="0.75" stroke-miterlimit="10" d="M113.938,419.136
		c0-0.991-0.696-1.795-1.555-1.795h-4.666c-0.859,0-1.555,0.803-1.555,1.795s0.696,1.795,1.555,1.795h4.666
		C113.242,420.931,113.938,420.127,113.938,419.136z"/>
	<path fill="#FFFFFF" stroke="#FFFFFF" stroke-width="0.75" stroke-miterlimit="10" d="M71.944,419.136
		c0-0.991-0.696-1.795-1.555-1.795h-1.111c-0.859,0-1.555,0.803-1.555,1.795s0.696,1.795,1.555,1.795h1.111
		C71.248,420.931,71.944,420.127,71.944,419.136z"/>
	<path fill="#FFFFFF" stroke="#FFFFFF" stroke-width="0.75" stroke-miterlimit="10" d="M64.39,419.136
		c0-0.991-0.696-1.795-1.555-1.795h-5.333c-0.859,0-1.555,0.803-1.555,1.795s0.696,1.795,1.555,1.795h5.333
		C63.693,420.931,64.39,420.127,64.39,419.136z"/>
	<path fill="#FFFFFF" stroke="#FFFFFF" stroke-width="0.75" stroke-miterlimit="10" d="M132.158,430.929h-18.664
		c-0.859,0-1.555,0.803-1.555,1.795c0,0.991,0.696,1.795,1.555,1.795h18.664c0.859,0,1.555-0.803,1.555-1.795
		C133.713,431.733,133.017,430.929,132.158,430.929z"/>
	<path fill="#FFFFFF" stroke="#FFFFFF" stroke-width="0.75" stroke-miterlimit="10" d="M105.051,430.929
		c-0.859,0-1.555,0.803-1.555,1.795c0,0.991,0.696,1.795,1.555,1.795h3.555c0.859,0,1.555-0.803,1.555-1.795
		c0-0.991-0.696-1.795-1.555-1.795H105.051z"/>
	<path fill="#FFFFFF" stroke="#FFFFFF" stroke-width="0.75" stroke-miterlimit="10" d="M71.944,434.519h6.888
		c0.859,0,1.555-0.803,1.555-1.795c0-0.991-0.696-1.795-1.555-1.795h-6.888c-0.859,0-1.555,0.803-1.555,1.795
		C70.389,433.715,71.085,434.519,71.944,434.519z"/>
	<path fill="#FFFFFF" stroke="#FFFFFF" stroke-width="0.75" stroke-miterlimit="10" d="M66.389,430.929H62.39
		c-0.859,0-1.555,0.803-1.555,1.795c0,0.991,0.696,1.795,1.555,1.795h3.999c0.859,0,1.555-0.803,1.555-1.795
		C67.945,431.733,67.248,430.929,66.389,430.929z"/>
	<path fill="#FFFFFF" stroke="#FFFFFF" stroke-width="0.75" stroke-miterlimit="10" d="M51.269,396.919
		c0.853,0,1.545-0.798,1.545-1.783c0-1.479,1.043-2.682,2.324-2.682c0.239,0,0.476,0.043,0.705,0.126
		c0.539,0.198,1.129,0.04,1.537-0.412c0.408-0.452,0.57-1.125,0.421-1.755c-0.225-0.953-0.339-1.934-0.339-2.917
		c0-6.104,4.304-11.07,9.598-11.069l0.087,0.003c0.601,0.016,1.16-0.393,1.417-1.026c3.205-7.891,10.153-12.99,17.701-12.99
		c8.502,0,15.973,6.267,18.59,15.595c0.178,0.635,0.649,1.102,1.22,1.21c0.572,0.108,1.147-0.161,1.491-0.698
		c0.445-0.693,1.126-1.091,1.866-1.091c1.274,0,2.312,1.19,2.324,2.657c0,0.012,0,0.024,0,0.036c0,0.669,0.325,1.282,0.841,1.587
		c0.516,0.305,1.137,0.251,1.607-0.141c1.641-1.364,3.577-2.086,5.602-2.086c4.691,0,8.767,4.027,9.48,9.367
		c0.078,0.586,0.404,1.089,0.869,1.341c0.465,0.253,1.008,0.222,1.45-0.082c0.901-0.621,1.934-0.949,2.988-0.949
		c3.221,0,5.842,3.024,5.842,6.741c0,0.985,0.692,1.783,1.545,1.783c0.853,0,1.545-0.798,1.545-1.783
		c0-5.683-4.007-10.306-8.931-10.306c-0.924,0-1.837,0.165-2.709,0.485c-0.707-2.54-2.012-4.83-3.784-6.599
		c-2.302-2.298-5.247-3.563-8.294-3.563c-1.931,0-3.802,0.496-5.51,1.451c-0.882-2.074-2.731-3.504-4.864-3.504
		c-0.847,0-1.674,0.234-2.418,0.664c-3.563-9.474-11.646-15.679-20.75-15.679c-8.42,0-16.194,5.478-20.071,14.047
		c-6.593,0.513-11.821,6.866-11.821,14.602c0,0.483,0.021,0.965,0.062,1.445c-2.654,0.399-4.711,3.025-4.711,6.195
		C49.724,396.121,50.416,396.919,51.269,396.919z"/>
	<path fill="#FFFFFF" stroke="#FFFFFF" stroke-width="0.75" stroke-miterlimit="10" d="M110.317,363.756
		c0.571-0.377,1.536-0.636,2.532-0.235c1.007,0.405,1.821,1.432,2.354,2.969c0.217,0.626,0.72,1.059,1.302,1.121
		c0.048,0.005,0.095,0.008,0.142,0.008c0.53,0,1.028-0.313,1.315-0.836c0.102-0.186,2.53-4.54,5.449-2.694
		c0.753,0.477,1.699,0.158,2.112-0.711c0.413-0.869,0.137-1.96-0.616-2.436c-3.224-2.04-6.145-0.323-8.016,1.748
		c-0.98-1.462-2.114-2.192-3.017-2.556c-1.684-0.678-3.59-0.487-5.1,0.508c-0.746,0.492-1.005,1.588-0.579,2.449
		C108.621,363.949,109.571,364.247,110.317,363.756z"/>
	<path fill="#FFFFFF" stroke="#FFFFFF" stroke-width="0.75" stroke-miterlimit="10" d="M128.156,354.128
		c1.685-0.246,2.343,2.803,2.348,2.826c0.131,0.656,0.564,1.179,1.13,1.343c0.128,0.037,0.257,0.055,0.385,0.055
		c0.438,0,0.86-0.213,1.158-0.604c0.338-0.424,1.563-1.694,3.159-0.263c0.678,0.608,1.655,0.467,2.183-0.316
		c0.527-0.783,0.404-1.91-0.274-2.518c-1.98-1.775-3.996-1.655-5.52-0.861c-0.901-1.83-2.502-3.581-4.959-3.223
		c-0.852,0.124-1.456,1.022-1.348,2.005C126.526,353.556,127.305,354.253,128.156,354.128z"/>
	<path fill="#FFFFFF" stroke="#FFFFFF" stroke-width="0.75" stroke-miterlimit="10" d="M98.829,432.724
		c0-0.991-0.696-1.795-1.555-1.795h-11.11c-0.859,0-1.555,0.803-1.555,1.795c0,0.991,0.696,1.795,1.555,1.795h11.11
		C98.133,434.519,98.829,433.715,98.829,432.724z"/>
</g>
</svg>
