<?xml version="1.0" encoding="utf-8"?>
<!-- Generator: Adobe Illustrator 17.0.0, SVG Export Plug-In . SVG Version: 6.00 Build 0)  -->
<!DOCTYPE svg PUBLIC "-//W3C//DTD SVG 1.1//EN" "http://www.w3.org/Graphics/SVG/1.1/DTD/svg11.dtd" [
	<!ENTITY ns_extend "http://ns.adobe.com/Extensibility/1.0/">
	<!ENTITY ns_ai "http://ns.adobe.com/AdobeIllustrator/10.0/">
	<!ENTITY ns_graphs "http://ns.adobe.com/Graphs/1.0/">
	<!ENTITY ns_vars "http://ns.adobe.com/Variables/1.0/">
	<!ENTITY ns_imrep "http://ns.adobe.com/ImageReplacement/1.0/">
	<!ENTITY ns_sfw "http://ns.adobe.com/SaveForWeb/1.0/">
	<!ENTITY ns_custom "http://ns.adobe.com/GenericCustomNamespace/1.0/">
	<!ENTITY ns_adobe_xpath "http://ns.adobe.com/XPath/1.0/">
]>
<svg version="1.1" id="레이어_1" xmlns:x="&ns_extend;" xmlns:i="&ns_ai;" xmlns:graph="&ns_graphs;"
	 xmlns="http://www.w3.org/2000/svg" xmlns:xlink="http://www.w3.org/1999/xlink" x="0px" y="0px" width="387px" height="434.5px"
	 viewBox="35.5 0 387 434.5" enable-background="new 35.5 0 387 434.5" xml:space="preserve">
<metadata>
	<sfw  xmlns="&ns_sfw;">
		<slices></slices>
		<sliceSourceBounds  x="162.025" y="179.975" width="385.761" height="431.742" bottomLeftOrigin="true"></sliceSourceBounds>
	</sfw>
</metadata>
<path id="KOR99" fill="#B4D3D6" stroke="#FFFFFF" stroke-linecap="round" stroke-linejoin="round" d="M260.171,322.372l-0.526,0.243
	l-0.365-0.081l0.081-0.405l0.405-0.202l0.608-0.729l0.081,0.365l0.284,0.081v0.324L260.171,322.372z M247.292,321.724l0.365,0.284
	l-0.284,0.365l-0.729-0.405l-0.972,0.162l-0.446-0.689l0.365-0.526l-0.365-0.162l-0.324-0.446l0.243-0.202l0.729,0.689l0.972,0.851
	L247.292,321.724L247.292,321.724z M237.49,318.767l0.445,0.486l0.365-0.284l0.365,0.162l0.203-0.243l0.608,0.081l0.243,0.162
	l-0.243,0.486l-0.567,0.081l-1.296-0.284L237.49,318.767L237.49,318.767z M235.911,318.322l-0.203-0.202l-1.256-0.405l-0.405-0.648
	l0.446-0.648l1.337,0.284l0.445,0.891v0.365L235.911,318.322L235.911,318.322z M256.121,314.555L256,314.758h-1.175l-0.405-0.121
	l-1.013-0.567l0.202-0.243l1.053-0.324l0.445,0.243L256.121,314.555L256.121,314.555z M242.715,313.543l0.081,0.324l-0.77-0.243
	l-0.284-0.689l0.081-0.365l0.284-0.162l0.648,0.365l0.284,0.405L242.715,313.543z M256.364,312.166l1.296,0.608l0.77-0.121
	l0.608,0.284v0.445l-0.365,0.162l-0.567-0.081l-0.567-0.365l-1.377-0.243l-0.284-0.405L256.364,312.166L256.364,312.166z
	 M254.42,308.764l0.445,1.58l0.284,0.445l0.486,0.162l0.243,0.729l-0.365,0.689l-0.729,0.405l-1.094-0.162l-0.365-0.405l0.162-0.365
	l-0.081-0.405l-0.486-0.891l-0.04-1.175l0.527,0.608l0.203-0.608l-0.162-0.243v-0.486l0.405-0.486l0.284,0.081l0.04,0.486
	L254.42,308.764L254.42,308.764z M232.023,307.589h-0.162l-0.486-1.053l0.891,0.162l0.203,0.284l-0.081,0.527L232.023,307.589
	L232.023,307.589z M235.911,306.82l-0.689,0.608l-1.094-1.661l0.284-0.567l0.689-0.243l2.714,0.648l-0.04,0.405l-0.851,0.162
	L235.911,306.82L235.911,306.82z M256.769,299.772l-0.243,0.121l-0.324-1.742l0.243-0.77l-0.243-0.648l1.256-0.77l0.081,0.851
	l-0.567,0.972l0.284,0.324v0.891l-0.081,0.445L256.769,299.772L256.769,299.772z M264.707,295.358l-0.891,0.689l-0.162-0.365
	l-0.324-0.324l-0.324,0.121l-0.324,0.324l-0.202-0.243l0.04-0.486l0.567-0.284l0.081-0.365l-0.243-0.365l0.526-0.243l0.365-0.324
	v-0.527l0.648-0.284l0.243-0.405l0.324-0.04l0.04,0.85l-0.202,0.729v0.689L264.707,295.358L264.707,295.358z M259.239,288.918
	l0.04,0.77l-0.77-0.729l-0.445-0.526l0.77-0.081L259.239,288.918L259.239,288.918z M135.994,231.893l-0.77,0.608l-0.243-0.324
	l0.122-0.81l0.689-0.567l0.446,0.689L135.994,231.893z M125.302,228.936l0.446,0.405l0.486,0.243l-0.405,0.284l-0.932,0.081
	l-0.365-0.405l-0.202,0.527l-0.243,0.243l-0.284-0.405V229.3l-0.284-0.567l-0.041-0.446l0.81,0.162l0.365,0.405L125.302,228.936z
	 M119.51,227.032l-0.648,0.284l-0.486-0.04l0.162-0.608l0.851-0.121L119.51,227.032L119.51,227.032z M94.562,205.283l-0.162,0.365
	l-0.324,0.081l0.122,0.486l-0.365,0.243l-0.446-0.324l-0.203-0.567L93.752,205L94.562,205.283L94.562,205.283z M101.204,197.143
	l-1.175,0.486l-0.77-0.162l0.365-0.527l0.486-0.527l0.851,0.122L101.204,197.143L101.204,197.143z M118.417,188.597l-0.365,0.486
	l-0.608-0.365l-0.608,0.243l-0.041-0.202l0.284-0.851l0.446-0.446l0.243-0.77l0.284,0.162l0.202,0.932l0.446,0.486L118.417,188.597
	L118.417,188.597z M122.791,184.749l0.324,0.891l0.284,0.365l1.094,0.243v0.284l-0.527,0.243l-4.01-1.094l-0.284-0.486l0.203-0.446
	h0.405l0.851,0.405l0.324-0.162l0.081-0.446l0.689-0.203l0.324,0.041L122.791,184.749L122.791,184.749z M100.394,161.056
	l-0.203,0.405l-0.324,0.162l-0.284-0.203l-0.972,0.486l-0.446-0.405l0.324-0.202l1.418-0.608l0.365-0.729l0.284,0.365
	L100.394,161.056z M95.088,133.029l0.365,0.162l0.203,0.365l-1.053,0.081l-0.486-0.608l-0.365-1.094h0.527l0.365,0.567l-0.122,0.324
	L95.088,133.029L95.088,133.029z M123.682,131.612l-1.053,0.284l-0.284-0.243l-0.405-1.053l0.162-0.405l1.539,0.405l0.203,0.648
	L123.682,131.612L123.682,131.612z M92.861,128.048v0.567l-0.77-0.081v0.527l-0.081,0.527l-0.405,0.081v-0.365l-0.324-0.243
	l0.041-0.527l0.284-0.203l0.041-0.527l0.324-0.081L92.861,128.048L92.861,128.048z M100.556,126.63l-0.608,1.904h-0.527
	l-0.243-0.324l0.608-0.527L99.3,127.44l-0.365,0.041l0.405-0.608L100.556,126.63L100.556,126.63z M120.037,125.941l0.243,1.418
	l-0.405-0.405l-0.324-0.122v-0.851L120.037,125.941L120.037,125.941z M111.694,120.514l0.608,0.486l0.162,0.689l0.324,0.324
	l0.324,0.567l-0.608-0.243l-0.324-0.567h-0.486l-0.567-0.203l-0.324-0.648h0.567L111.694,120.514L111.694,120.514z M101.568,120.231
	l0.405,0.527l0.162,0.365v0.81l-0.932-0.04l-0.324-0.486l-0.162-0.729l0.122-0.405L101.568,120.231L101.568,120.231z
	 M136.318,116.748l0.284,1.418l-1.053-0.446l-0.284-0.689l0.446-0.567L136.318,116.748z M113.557,113.589l2.39,0.81l0.81-0.162
	l0.162,0.446l-0.446,0.689l-0.729,0.121l-0.608-0.203l-0.567-0.324h-0.446l-0.932-0.689l0.081-0.567L113.557,113.589
	L113.557,113.589z M123.075,105.245l-0.729,0.405l-0.81-0.04l-0.486-1.661l-0.324-0.324l-0.041-0.527l0.284-0.689l0.365-0.081
	l0.527,0.405l0.77,1.013l0.608,0.608L123.075,105.245L123.075,105.245z M125.14,93.824l-0.202,0.203l-1.904-0.527l-0.243-0.405
	l0.567-0.608l0.527-0.284l0.203-0.284l0.446-0.243l0.567,0.122l0.284,0.405l-0.081,1.296L125.14,93.824L125.14,93.824z
	 M116.756,92.69l-0.405,0.162l-0.203-0.284l-0.446-1.175l-0.608-0.81l0.405-0.243l1.053,0.567l0.891,0.972l1.904,0.081l0.284,0.365
	l-0.81,0.324L116.756,92.69L116.756,92.69z M111.815,84.549l-0.324,0.122l-1.053-0.77l-0.77-0.972v-0.243l1.661-0.162l0.121,0.324
	l-0.081,1.175L111.815,84.549L111.815,84.549z M108.008,80.783l0.324,1.053l-0.162,0.527l-0.527-0.081l-1.013-0.932l-0.932-0.081
	l-0.446-0.446l2.349-0.81L108.008,80.783z M104.201,79.77l-0.203,0.608l-0.243-0.162l-0.608-0.081l-0.122-0.527l0.446-0.203
	L104.201,79.77z M110.155,77.381l-0.162,0.162l-0.891-0.486l0.405-0.202l0.77,0.04l0.405,0.446L110.155,77.381L110.155,77.381z"/>
<path id="KOR2494" fill="#B4D3D6" stroke="#FFFFFF" stroke-linecap="round" stroke-linejoin="round" d="M264.95,133.394l-0.77,0.891
	l-0.851,0.527l-0.77-0.284l-0.608,0.365l-1.499,1.58l-1.62,1.377l-1.094,1.013l-1.296,0.446l-0.81,0.648l-0.567,1.013l-1.985,1.418
	l-1.377,2.025l-0.689,1.499l-0.81,1.499l0.446,0.81l0.851,0.77l-0.932,3.159l-5.387,2.228l-2.268-0.729l-0.972-1.944l-1.499-1.296
	l-1.094-0.77l-0.81-0.932l-0.851,0.81l-0.648,1.053l-0.324,1.256l-0.445,1.337l-1.863-0.162l-1.985-0.689l-1.013-0.689l-1.094,0.729
	l-1.053,1.418l-1.296,0.081l-1.013-0.648l-0.77,1.296l-0.81,1.742l-0.446,1.661l1.256,1.58l0.932,1.782l-4.577-0.689l-2.43-1.094
	l-1.377,2.106l-2.268,1.053l-1.985,1.337l-0.162,0.972l0.04,0.729l-0.365,0.81l-1.418,1.944l-0.932,1.013l-0.932,0.162l-0.972,0.446
	l0.729,1.823l2.511,0.446l3.119,4.577l-1.134,1.134l-0.648,1.823l-0.243,4.334l-0.405,1.904l0.405,1.377l0.729,1.256l-0.932,1.823
	l-1.418,1.256l0.365,3.767l2.592-0.608l1.539,0.527l1.823,1.499l1.256,0.608l3.281-0.81l1.418,1.094l0.729,4.131l-1.337-0.081
	l-1.539-0.284l-1.58,1.337l0.365,2.147l0.04,1.053l-0.162,1.337l-0.608,0.729l-0.486,0.891l-0.567,2.025l-0.972,1.944l-1.62,0.567
	l-1.539,0.729l-0.81,0.891l-0.851,0.729l-0.932-0.486l-0.932-0.891l-2.349,1.053l-2.066,1.256l-1.053-0.284l-0.567-0.729
	l-2.876-0.972l-0.972-1.134l-1.094-0.648l-0.405,0.567l-0.527,0.122l-0.608-0.567l-0.527-0.648l-1.458-2.268l-1.337-2.309
	l-0.527-2.754l0.081-2.714l-0.648-2.39l-1.985-1.215l-1.904-0.608l-2.066,0.446l-0.162-2.268l0.121-2.187l0.77-3.078l1.418-2.633
	l0.608-1.337l0.648-1.175l1.053-0.81l0.243-1.377l-0.81-0.284l-0.891-0.405l-1.094,0.81l-0.851,1.134l-0.648-2.106l-0.122-1.418
	l-0.77-0.446l0.081-0.891l-0.891-0.203l-0.729,1.053l-2.066,0.486L183,181.153l0.243-1.377l-0.365-0.891l-0.567-0.284l-0.446-0.486
	l-0.243-0.608l0.162-0.608l0.284-0.77l0.122-0.851l-0.122-0.81l-0.202-0.486l0.121-0.608l0.324-0.77l0.041-0.851l-4.86-0.324
	l-4.739,0.972l0.284-2.471l0.81-2.309l-0.121-1.337l1.256-2.714l1.782-2.592l1.337-2.349l0.567-0.567l0.608,0.081l0.567-0.162
	l0.324-0.608l0.121-0.689l0.162-0.891l0.324-0.81l0.162-0.932l-0.121-0.891l-0.446-0.81l-0.527-0.486l0.081-1.661l-0.851-0.567
	l-1.094-2.228l-0.851-0.527l-0.77-0.77l-0.527-1.215l2.876-0.81l2.754-1.337l2.106-0.729l0.608-2.349l1.013-1.134l1.661-0.689
	l0.77-1.013l0.527-1.337l1.013-1.053l1.256,0.243l0.365,0.486l1.58-1.134l3.078-5.711l0.689-1.296l1.013-0.77l0.527-0.77
	l0.446-0.851l6.764-1.863l6.804-0.932l-0.567,3.888l1.985-0.486l1.944,0.162l1.094,0.608l0.486-0.446l0.446-0.527l1.296-0.891
	l-0.365-3.929l1.215-1.499l3.281-1.094l2.43,2.592v1.742l0.81,1.094l2.106-0.486l2.106-1.215l1.296-0.972l1.539,0.324l1.256-0.689
	l1.499-1.134l3.564,1.256l3.645,0.608l1.175,0.324l-0.729,1.701l-1.863,1.337l-1.094,1.701l0.689,0.77l0.891,0.527h0.608
	l0.567-0.284l1.944-0.648l3.038-0.324l0.648,0.689l-0.122,1.134l1.296,1.337l0.445,1.053l1.175-0.081l1.377-0.243l1.539-0.486
	l1.539-0.041l1.499,1.175l1.701,1.094l1.661,0.324l1.661,0.203l1.296,0.567L264.95,133.394L264.95,133.394z"/>
<path id="KOR2495" fill="#B4D3D6" stroke="#FFFFFF" stroke-linecap="round" stroke-linejoin="round" d="M132.066,94.715l0.405,0.972
	l-0.324,0.162l-0.567,0.405l-0.202,0.284l-1.134,0.243l-0.486-0.081l-2.187,0.972l-0.81,0.729l-0.446,0.81l-2.795,2.106
	l-0.608-0.122h-0.851l-0.284-1.013l-0.486-0.324l-0.243,0.284l-0.324-0.77l-0.405-0.081l-0.648,0.689l-0.486-0.243l-0.689-0.162
	l0.405-0.405l-0.121-0.446l-0.689-0.648l-0.203-0.446l0.243-0.608l0.405-0.081l0.527,0.243l2.916-2.025l2.066-0.243l1.418,0.041
	l1.296-0.689l0.446-1.823l0.891-0.324l0.77,0.77l1.094,0.486l0.729,0.081l0.527,0.284l0.486,0.648L132.066,94.715L132.066,94.715z
	 M141.26,104.84l-0.162-0.567l-3.362-0.405l-1.58,1.985l-1.62-1.215l0.648-1.499l0.851-1.256l-0.527-0.932l-2.187-1.175l0.122-1.458
	l-0.203-1.175l0.648-1.094l1.823-0.527l0.567-0.284l0.121-0.689l-0.851-0.243l-0.243,0.729l-1.337,0.122l-0.324-0.81l-0.162-1.458
	l0.324-1.985l6.197-0.203l3.807,3.645l-0.041,1.904l0.689,1.58l1.053,0.689l0.608,0.972l-0.608,2.025l-0.891,1.742l-1.337,0.972
	L141.26,104.84L141.26,104.84z"/>
<path id="KOR2496" fill="#B4D3D6" stroke="#FFFFFF" stroke-linecap="round" stroke-linejoin="round" d="M314.483,165.916
	l-0.648-0.04l-2.147-0.486l-2.066,0.932l-4.415-1.661l0.689-1.904l-0.203-1.782l-0.567-1.985l-0.162-2.228l0.851-2.147l0.689-1.985
	l-0.486-0.608l-0.567-0.527l0.284-1.823l-4.698-0.365l-1.377-0.77l-1.499-0.648l-0.608-1.458l-0.445-1.701l-2.106-1.013
	l-1.337-1.985l-0.284-2.633l0.445-1.985l1.094-0.81l1.215-0.446l1.863,0.729l1.539-1.134l-0.648-1.863l-1.985-1.215l-2.187-0.486
	l-1.742,0.891l-1.701,0.446l-2.349-1.094l-2.511-0.405l-0.85,0.324l-0.689-0.081l-0.567-0.729l-0.77-0.324l-1.823,1.418l-1.904,0.77
	l-0.162-1.418l0.162-1.377l-1.134-0.567l-1.215-0.284l-0.891-1.58l-1.782-0.162l-1.742,0.851l-1.134,1.418l0.405,1.985l-0.203,1.823
	l-0.365,1.701l-1.661-0.122l-1.904-0.446l-1.58-0.648l-1.661-0.891l-1.256-0.81l-1.296-0.567l-1.661-0.202l-1.661-0.324
	l-1.701-1.094l-1.499-1.175l-1.539,0.04l-1.539,0.486l-1.377,0.243l-1.175,0.081l-0.445-1.053l-1.296-1.337l0.122-1.134
	l-0.648-0.689l-3.038,0.324l-1.944,0.648l-0.567,0.284h-0.608l-0.891-0.527l-0.689-0.77l1.094-1.701l1.863-1.337l0.729-1.701
	l-1.175-0.324l-3.645-0.608l-3.564-1.256l-1.499,1.134l-1.256,0.689l-1.539-0.324l-1.296,0.972l-2.106,1.215l-2.106,0.486
	l-0.81-1.094v-1.742l-2.43-2.592l-3.281,1.094L218,120.222l0.365,3.929l-1.296,0.891l-0.446,0.527l-0.486,0.446l-1.094-0.608
	l-1.944-0.162l-1.985,0.486l0.567-3.888l-6.804,0.932l-6.764,1.863l3.443-6.44l2.876-7.047l3.929-8.424l0.486-1.823l-0.365-1.823
	l0.851-1.458l1.175-1.458l1.296-0.527l0.648-1.418l-0.729-1.256l-0.932-0.81l-1.539-0.162l-1.58-0.608l-2.147-0.284l-3.605-1.985
	l-1.62-0.689l-1.62-1.053l-1.742-0.284l-1.742,0.567l-1.418-1.215l0.121-1.337l0.689-1.377l0.243-1.58l0.041-1.661l-1.701,0.567
	l-0.77-0.972l1.863-2.228l-0.324-1.458l-0.486-1.458l0.365-1.094l-0.04-1.337l-0.122-1.256l3.281-2.39l1.296-0.446l0.729-1.134
	l0.324-3.281l-1.499-2.349l-1.256-0.243l-1.175-0.527l-0.891-2.43l-1.418-0.041l-1.539,0.081l-1.62-1.215l-0.81-2.147l-0.324-3.848
	l-0.608-1.904l-0.446-0.405l-0.486,0.122l-0.365,0.324l-0.405,0.041l-1.094-0.77l-2.673,0.932l-2.471-0.567l-0.972-0.608
	l-1.013-0.932l-0.04-1.539l0.486-1.458l0.648-1.053l-0.446-0.365l-0.527-0.122l-0.527,0.081l-0.446,0.365l-0.851,1.094l-0.972,0.972
	l-1.458,0.243l-1.256-0.851l-0.243-0.81l-0.122-0.81l-0.446-0.284l-0.486,0.527l-0.162,0.81l-0.04,2.673l-0.81,1.337l-2.349-1.134
	l-2.147-1.944l-0.77-0.81l-0.81,0.122l-0.689-1.053l-0.446-1.337l-0.608-0.689l-0.689-0.567l-0.527-1.296l-3.2-2.025l-1.296-0.648
	l0.405-0.446l3.483-2.916l4.091-2.552l4.293-1.782l4.131-0.446l2.066,0.243l7.898-0.689l6.075,1.823l1.944-0.162l3.767-1.134
	l12.353-1.094l0.527,0.365l0.81,1.175l0.77,0.81l0.891,0.203l4.253-0.891l6.723,0.405l4.374-0.365l4.374-1.539l4.091-2.673
	l3.402-3.564l1.499-2.147l1.256-2.268l0.81-2.552l0.284-2.876l-0.527-2.835l-0.162-1.418l0.405-1.053l1.742-1.377l3.645-1.904
	l4.901,9.72l0.608,2.592l1.499,3.929l5.67,11.219l4.415,11.786l0.729,1.256l2.268,2.876l0.891,2.39l10.692,15.309l4.131,6.035
	l4.982,5.508l0.689,0.567l3.321,3.929l0.203,1.661v1.985l0.405,1.701l2.268,1.256l0.648,1.377l1.863,6.116l0.851,1.377l1.013,0.608
	l0.81,0.891l2.916,5.751l1.782,2.187l0.608,1.215l0.203,1.296l0.445,1.256l3.119,3.402l0.972,2.795l0.891,6.116l1.175,3.321
	l3.321,4.617l0.243,0.932l-0.405,0.932l-0.567,0.891l-0.405,0.891v0.77l0.445,2.511l0.567,7.169l0.608,3.321l2.106,6.723
	l0.203,3.321l-0.689,3.038l-1.418,2.795L314.483,165.916L314.483,165.916z"/>
<path id="KOR2497" fill="#B4D3D6" stroke="#FFFFFF" stroke-linecap="round" stroke-linejoin="round" d="M167.221,88.518
	l-0.608,2.309l1.782-0.04l1.499-0.527l1.296-0.041l0.486,1.175l-0.162,1.215l-0.891,0.446l-0.972,0.648v1.458l0.527,0.608
	l-1.094,1.499l-0.608,1.053l-1.661,0.972l-1.823,0.446l-1.904,0.932l-0.729-1.661l-1.58,0.365l-1.62,0.486l-1.094,0.648
	l-1.175,0.202l-2.754-0.121l-1.904-2.471l-1.863-0.567l-1.256-0.81l-0.324-2.349l-1.296-1.782l-1.499-1.863l0.932-2.066l1.823,0.081
	l2.025,1.256l1.539-0.486l1.377-0.851l0.081-1.377l0.365-1.296l2.876-0.284l1.499-1.863l0.891-1.944l1.296-1.337l1.985-0.486
	l2.309,0.162l1.094,1.904l0.446,2.592l0.648,1.782L167.221,88.518L167.221,88.518z"/>
<path id="KOR2498" fill="#B4D3D6" stroke="#FFFFFF" stroke-linecap="round" stroke-linejoin="round" d="M105.335,116.545
	l-0.284,0.486l-0.81,0.851l-0.567,0.243l-0.77,0.121l-0.648-0.284l-0.567-1.175l-0.608,0.324l-0.284-0.081l0.202-1.62l0.365-1.094
	l0.446-0.648l0.527,0.365l0.446,0.77l0.486,0.365l1.58,0.851L105.335,116.545L105.335,116.545z M125.748,115.776l-0.527,0.648
	l-0.729,0.162l-0.486-0.365l-0.527,0.041l-0.446-0.243l-0.121-1.013l0.121-1.053l0.527-0.729l1.134-0.608l1.458,0.121l0.648,0.446
	l0.243,0.972l-0.284,0.365l-0.689,0.203l-0.243,0.527L125.748,115.776L125.748,115.776z M131.904,112.738l0.243,0.648l0.77,0.446
	l1.215,0.486l0.324,0.365l0.324,1.053l-0.324,0.729l-3.281,2.633l-1.499,0.162l0.04-0.405l0.689-0.932l0.081-0.567l-0.284-0.446
	l0.81-0.972l0.04-0.972l-0.324-1.175l-0.486-0.81l-0.486-0.567l0.162-0.162l1.053,0.527l0.891-0.81l0.202,0.081L131.904,112.738
	L131.904,112.738z M118.822,82.079l-1.296,0.081l-4.334-3.402l0.567-0.486l0.243-0.648l0.365-1.539l0.527-0.81l0.365-0.284
	l0.365-0.122l0.243,0.162l0.243,0.567l0.203,1.499l0.405,0.81l0.405,0.446l1.661,1.377l0.608,0.729l0.122,0.77L118.822,82.079
	L118.822,82.079z M112.828,69.685l1.215,0.729l1.256-0.041l1.175,0.203l0.608,0.648l-0.446,1.458l-1.134,0.972l-1.377,0.122
	l-2.673-0.608l-1.337,0.648h-0.608l-0.243-0.891l0.122-0.284l0.729-2.228l0.81-0.77l0.891-0.243L112.828,69.685L112.828,69.685z
	 M129.028,84.792l-0.729,1.701l-0.648,0.567l-0.486,0.081l-0.365-0.202l-0.689-0.729l-0.486-0.284l-0.324,0.122l-0.527,0.405
	l-3.362,0.203l-1.256-0.608l-1.337-1.742l1.985-0.527l0.486-0.324l0.527-0.851l-0.081-0.365l-0.365-0.243l-0.324-0.446l-2.268-4.374
	l-0.162-0.689l0.243-0.851l-0.041-3.848l0.243-0.891l0.648-0.203l1.499-1.782l1.175-0.284l1.013,0.729l0.972,1.134l0.972,0.891
	l2.066,1.053l0.81,0.81l0.324,1.296l-0.081,0.689l-0.324,1.094l-0.081,0.486l0.162,0.527l0.567,1.094l0.162,0.608l0.203,2.916
	l-0.203,0.689l0.324,0.446l0.567,1.215L129.028,84.792L129.028,84.792z M198.123,124.645l-0.446,0.851l-0.527,0.77l-1.013,0.77
	l-0.689,1.296l-3.078,5.711l-1.58,1.134l-0.365-0.486l-1.256-0.243l-1.013,1.053l-0.527,1.337l-0.77,1.013l-1.661,0.689
	l-1.013,1.134l-0.608,2.349l-2.106,0.729l-2.754,1.337l-2.876,0.81l-2.997-0.405l-2.471-2.066l-2.795-1.256l-5.306,2.268h-2.511
	l-3.038-0.608l0.851-0.648l0.972-0.446l0.689-0.77l0.405-1.944l-0.122-0.365l-0.689-0.81l0.324-0.324h0.689l0.891-0.527l0.567-0.081
	l0.405-0.284l0.203-0.932l-3.848,1.094l-0.567,0.81l0.203,2.471l-0.486,0.567l-1.499,0.486l-2.106-0.284l-2.511-1.458l-2.268-2.268
	l-0.891-2.147l3.848-0.405v-0.486l-0.851-0.608l0.689-0.081l0.689,0.04l0.648,0.203l0.527,0.446l-0.243-1.539l-0.891-1.377
	l-0.648-1.539l0.486-2.147l-0.729-0.324l-0.567,0.729l-0.324,1.296l-0.122,1.296l-0.324,1.418l-0.608,0.324l-0.608-0.608
	l-1.215,0.243l-1.215,0.324l-2.957-0.891v-0.932l-0.284-0.77l0.243-1.094l-0.122-1.377l0.729-1.377l0.891-1.215l1.013-0.486
	l1.094-0.405l1.62-0.041l1.742-0.486l0.365-0.527l0.122-1.499l-0.405-0.284l-0.891,0.486l-1.337,1.175l-0.851-0.203l-0.608-0.365
	l-0.324-0.608v-0.972l-1.499,0.77l-1.256,0.891l-2.268,2.471l-0.608,0.486l-0.729,0.243h-0.689l-0.405-0.446v-0.729l0.405-0.729
	l0.932-1.337l-1.863,0.446l-0.567-0.203l-0.243-1.094l0.365-0.81l0.77-0.446l0.891-0.324l0.648-0.365l0.77-1.053l-0.202-0.284
	l-1.701,0.243l-0.567-0.365l-0.446-0.851l-0.446-1.094l-0.486-1.013l0.284-0.081l0.567-0.486l0.486,0.365l0.689-0.041l1.256-0.324
	l1.013,0.284l0.851,0.527l0.851,0.243l0.972-0.486l-0.081,0.932l0.081,0.851l0.324,0.689l0.608,0.284l0.689-0.243l0.284-0.77
	l0.324-1.742l1.094-1.62l0.891,0.162l1.013,0.608l1.418-0.243l-0.324-0.648l-0.405-0.486l-0.486-0.324l-0.608-0.162h-0.891
	l-0.405-0.608l-0.932-0.162l-0.77,0.243l-0.77-0.041l-1.215-0.243l-2.025-0.648l-2.795-2.106l-0.122-0.932l1.215-1.823l0.851-0.851
	l2.025-0.608l1.337-0.972l0.891-1.742l0.608-2.025l-0.608-0.972l-1.053-0.689l-0.689-1.58l0.04-1.904l-3.807-3.645l-6.197,0.203
	l-0.81-1.904l-1.215-2.066l-0.729-0.729l-0.041-1.094l-0.243-1.62l-0.689-2.552l-0.932-6.683l0.243-1.094l0.851-0.162l3.524,1.296
	l1.134-0.243l0.932-0.446l0.851-0.162l0.851,0.567l0.324,0.972l0.121,1.458l-0.081,1.539l-0.365,1.053l-0.041,1.904l1.985,1.661
	l2.511,1.053l1.539,0.081l-1.215-1.256l-3.686-2.673l1.053-2.876l0.324-1.701l-0.243-1.215l-0.608-1.256l-0.121-1.661l0.284-1.62
	l0.648-1.296l-0.486-0.608l-0.608,0.081l-0.972,0.689l-0.446-7.007l0.324-1.904l0.77-0.567l1.215-0.162l1.62-0.608l2.552-2.066
	l5.508-8.384l1.094-1.134L153,44.598l1.053-1.256l2.187-5.387l0.77-1.013l1.296,0.648l3.2,2.025l0.527,1.296l0.689,0.567
	l0.608,0.689l0.446,1.337l0.689,1.053l0.81-0.122l0.77,0.81l2.147,1.944l2.349,1.134l0.81-1.337l0.04-2.673l0.162-0.81l0.486-0.527
	l0.446,0.284l0.122,0.81l0.243,0.81l1.256,0.851l1.458-0.243l0.972-0.972l0.851-1.094l0.446-0.365l0.527-0.081l0.527,0.122
	l0.446,0.365l-0.648,1.053l-0.486,1.458l0.04,1.539l1.013,0.932l0.972,0.608l2.471,0.567l2.673-0.932l1.094,0.77l0.405-0.041
	l0.365-0.324l0.486-0.122l0.446,0.405l0.608,1.904l0.324,3.848l0.81,2.147l1.62,1.215l1.539-0.081l1.418,0.041l0.891,2.43
	l1.175,0.527l1.256,0.243l1.499,2.349l-0.324,3.281l-0.729,1.134l-1.296,0.446l-3.281,2.39l0.122,1.256l0.04,1.337l-0.365,1.094
	l0.486,1.458l0.324,1.458l-1.863,2.228l0.77,0.972l1.701-0.567l-0.041,1.661l-0.243,1.58l-0.689,1.377l-0.121,1.337l1.418,1.215
	l1.742-0.567l1.742,0.284l1.62,1.053l1.62,0.689l3.605,1.985l2.147,0.284l1.58,0.608l1.539,0.162l0.932,0.81l0.729,1.256
	l-0.648,1.418l-1.296,0.527l-1.175,1.458l-0.851,1.458l0.365,1.823l-0.486,1.823l-3.929,8.424l-2.876,7.047L198.123,124.645
	L198.123,124.645z M167.221,88.518l-0.04-1.985l-0.648-1.782l-0.446-2.592l-1.094-1.904l-2.309-0.162L160.7,80.58l-1.296,1.337
	l-0.891,1.944l-1.499,1.863l-2.876,0.284l-0.365,1.296l-0.081,1.377l-1.377,0.851l-1.539,0.486l-2.025-1.256l-1.823-0.081
	l-0.932,2.066l1.499,1.863l1.296,1.782l0.324,2.349l1.256,0.81l1.863,0.567l1.904,2.471l2.754,0.122l1.175-0.203l1.094-0.648
	l1.62-0.486l1.58-0.365l0.729,1.661l1.904-0.932l1.823-0.446l1.661-0.972l0.608-1.053l1.094-1.499l-0.527-0.608v-1.458l0.972-0.648
	l0.891-0.446l0.162-1.215l-0.486-1.175l-1.296,0.04l-1.499,0.527l-1.782,0.041L167.221,88.518L167.221,88.518z"/>
<path id="KOR2499" fill="#B4D3D6" stroke="#FFFFFF" stroke-linecap="round" stroke-linejoin="round" d="M114.812,245.339
	l0.121,0.445l-0.243,0.608l-1.175,1.013l-0.77,0.891l-0.729,0.567l-0.365,0.081l-0.284-0.284l-0.202-0.527l0.121-0.486l0.689-0.365
	l-0.405-0.324l0.486-0.405l0.243-0.324l0.608-0.162l-0.081-0.446l0.972,0.162l0.729-0.689L114.812,245.339z M198.893,212.654
	l0.527,0.648l0.608,0.567l0.527-0.122l0.405-0.567l1.094,0.648l0.972,1.134l2.876,0.972l0.567,0.729l1.053,0.284l2.066-1.256
	l2.349-1.053l0.932,0.891l0.932,0.486l0.851-0.729l0.81-0.891l2.633,4.496l-0.324,5.063l-2.349,2.511l-0.608,1.661l-3.2,1.701
	l-1.58,0.486l-0.851-0.081l-0.648,0.405l-1.215,2.592l-1.377,1.458l-1.458,1.296l-0.729,2.066l-0.162,2.43l-0.81,1.782l-1.013,1.863
	l-0.729,2.39l-0.567,2.43l-0.891,1.863l-0.04,1.985l1.62,0.689l0.243,0.851l0.121,1.013l0.729,1.863l-0.121,1.985l0.648,1.499
	l0.932,0.608l-0.405,2.187l-2.673,3.2l-0.405,2.106l-0.122,1.944l-1.337,1.377l-3.645-2.957l-4.091-1.499l-2.349,1.296l-1.863,2.025
	l-1.985,0.284h-2.147l-2.309,0.324l-2.39-0.04l-1.094-0.648l-0.972-0.77l-1.094,0.284h-1.337l-1.944,0.324l-1.823,1.094l-2.39-0.365
	l-1.539-1.62l0.081-2.592l-1.337-1.499l-0.365-1.458l0.567-2.268l-1.296-1.985l-1.904,0.122l-0.446,0.81l-0.648,0.608l-0.405,1.053
	l-0.162,1.094l-1.944,0.04l-3.038-4.091l-1.944-1.62l-1.134-0.445l-1.134-0.081l-1.094,1.256l-2.147-0.203l-1.62,1.418v1.094
	l0.04,1.053l-0.567,0.891l-0.81,0.608l0.04,0.81l0.122,0.81l-0.527,1.134l-0.851,0.729l-1.053,0.526l-1.094,0.284l-0.932,0.567
	l-0.851,0.648l-2.147,0.324l-2.066,0.729l-1.904,0.486l-1.58-0.527l0.081-2.147l0.405-2.106l0.365-2.876l-1.823-0.486l-6.237,1.742
	l-1.337,0.405l-0.891-1.013l-0.284-0.81l0.446-1.863l1.094-2.309l1.742-4.05l1.458-2.147l2.106-0.729l2.39-0.486l2.025-0.121
	l0.932-0.77l0.932-1.296l1.256-0.324l1.134,1.296l1.175,1.458l0.851,0.284l-0.81-2.957l-0.608-1.337l-0.972-0.567l-9.072,1.499
	l-3.159-1.985l0.243-2.957l1.499-0.77l1.296-1.296l1.215-1.377l1.904-1.134l2.39-1.296l1.782-2.511l0.284-2.349l1.701-1.053
	l0.405-0.324l2.268-0.243l2.268,0.284l1.418,1.094l1.013,0.243l0.689,1.215l0.284-0.648l0.203-0.891l0.081-0.932l-1.418-1.134
	l-1.256-0.608l-1.377-0.932l-1.134-0.851l-0.567-0.324l0.162-0.689l0.527-0.729l0.527-0.446l0.567-0.121l3.605,0.243l0.77-0.081
	l0.567-0.284l0.405-0.729l0.162-0.567l0.284-0.405l0.891-0.162l0.284-0.243l-0.324-0.608l-0.689-0.567l-0.77-0.284l-0.202,0.162
	l-4.698,1.904l-1.58,0.081l-3.119-0.203l-3.038-0.243l-0.04-1.377l-0.203-1.863l-0.608-0.527l-1.904-0.648l-2.795,0.446l-0.284-2.39
	l5.792-0.648l3.159-0.405l3.2-0.162l1.053-0.648l1.094,0.324l1.337-0.689l2.349-1.782l2.997-1.215l1.296-0.891l0.121-1.134
	l-3.767,1.134l2.876-3.564l3.078-0.324l3.605-0.77l6.642-2.106l2.349,0.486l-0.567,3.483l1.377,2.147l1.863-0.365l1.823-0.689
	l3.524-0.689l0.932-0.324l0.891-0.405l1.337-0.284l0.891-1.337l1.053-1.094l2.066,1.823l2.876,5.184l2.106,1.053l0.851,0.243
	l0.365,0.77l-0.446,0.891l0.243,0.648l3.726,0.486l1.377-0.324l1.904-0.081l1.904-0.527l1.539-1.377L198.893,212.654
	L198.893,212.654z"/>
<path id="KOR2500" fill="#B4D3D6" stroke="#FFFFFF" stroke-linecap="round" stroke-linejoin="round" d="M154.989,273.811
	l3.281,1.256l1.296,3.605l-2.511,3.362l-3.969-0.648l-3.483-2.106l-1.742-3.848l1.377-1.296l2.309,0.608l1.661-0.405
	L154.989,273.811L154.989,273.811z"/>
<path id="KOR2502" fill="#B4D3D6" stroke="#FFFFFF" stroke-linecap="round" stroke-linejoin="round" d="M121.049,176.851
	l-0.121,0.891l0.162,0.77l0.486,1.458l0.891,1.337l0.365,1.256l-0.648-0.284l-2.835,0.162l-0.932-0.162l-0.162-1.175l0.324-0.405
	l0.486-0.486l0.243-0.689l-1.499,0.972l-0.729-0.365l0.203-1.175l1.134-1.62l-0.405-0.486l-0.891,1.053l-0.284-0.729l-0.689,0.365
	l0.365-1.904l-0.243-2.957l-0.324-1.742l-0.648-2.228l0.567-0.729l1.134-1.053l1.215-0.446l0.851,1.377l0.121,0.486l-0.284,0.608
	l-0.486,0.365l0.04,0.567l1.094,2.43l0.162,0.81l-0.284,0.648l0.324,0.567l0.729,0.446l0.567,0.972h-1.337v0.486l0.446,0.081
	L121.049,176.851L121.049,176.851z M156.731,142.83l3.038,0.608h2.511l5.306-2.268l2.795,1.256l2.471,2.066l2.997,0.405l0.527,1.215
	l0.77,0.77l0.851,0.527l1.094,2.228l0.851,0.567l-0.081,1.661l0.527,0.486l0.446,0.81l0.121,0.891l-0.162,0.932l-0.324,0.81
	l-0.162,0.891l-0.122,0.689l-0.324,0.608l-0.567,0.162l-0.608-0.081l-0.567,0.567l-1.337,2.349L175,163.571l-9.113-3.645
	l-1.499,4.131l0.203,12.11l-0.972,0.932l-0.567,1.661l5.832,1.175l4.374-1.215l3.402,5.387l1.175,2.268l0.324,5.792l1.337,4.334
	l3.159-0.851l2.795-2.066l0.932-0.324l1.661-1.337l0.932-3.443l0.851-1.377l0.284-1.863l0.851-1.134l1.094-0.81l0.891,0.405
	l0.81,0.284l-0.243,1.377l-1.053,0.81l-0.648,1.175l-0.608,1.337l-1.418,2.633l-0.77,3.078l-0.122,2.187l0.162,2.268l2.066-0.446
	l1.904,0.608l1.985,1.215l0.648,2.39l-0.081,2.714l0.527,2.754l1.337,2.309l1.458,2.268l-1.539,1.539l-1.539,1.377l-1.904,0.527
	l-1.904,0.081l-1.377,0.324l-3.726-0.486l-0.243-0.648l0.446-0.891l-0.365-0.77l-0.851-0.243l-2.106-1.053l-2.876-5.184
	l-2.066-1.823l-1.053,1.094l-0.891,1.337l-1.337,0.284l-0.891,0.405l-0.932,0.324l-3.524,0.689l-1.823,0.689l-1.863,0.365
	l-1.377-2.147l0.567-3.483l-2.349-0.486l-6.642,2.106l-3.605,0.77l-3.078,0.324l-2.876,3.564l-1.337,0.405l-1.296,0.891
	l-1.094,1.053l-1.175,0.567l-1.418,0.243l-1.377,0.608l-0.972-0.486l-0.324-0.527l-0.081-0.729l-0.365-1.013l-0.527-0.851
	l-1.053-1.418l-0.608-0.972l0.891-0.729l-0.405-0.486l-1.661-0.648l-1.499-2.511l-1.094-0.486l-0.851,0.486h-0.405l-0.04-0.891
	l-1.458-0.932l-1.256,0.202l-0.365,1.499l-0.243,0.527l-0.405-0.405l0.243-2.349l2.187-1.094l1.904-0.608l2.673,0.77l-0.932-1.58
	l-0.527-0.608l-0.729-0.527l-0.446-0.081l-0.486,0.284l-0.365-0.202l-0.486-0.527l-0.405-0.567l1.337-3.686l0.77-1.661l0.972-0.608
	l-0.729-0.891l-2.714-0.81l-0.972-0.527l0.972-0.891l2.835-0.689l0.608-0.851l-0.446-1.053l-1.013-0.243l-2.106-0.04l-0.405-0.284
	l-0.77-0.932l-0.527-0.446v-0.567h0.851l-0.972-1.782l1.175-0.648l1.296-0.405l1.256-1.782l2.633-0.729l1.256-0.689h-3.767
	l-0.891,0.527l-1.377,2.066l-1.013,0.202l-0.648-0.77l-0.567-1.499l-0.365-1.499l0.041-0.891l1.337-1.58l0.608-0.972l-0.202-0.446
	l-1.215,0.446l-0.567-0.486l-0.527-0.365l-0.284-0.04l-0.284-0.729l0.284-0.689l-0.081-0.729l-0.324-1.377l-0.365-0.567
	l-0.041-0.365l0.891-0.04l1.256-0.608l1.337,0.04l0.121-0.972l0.365-0.851l-0.527-0.689l-0.729-0.162l-1.053-1.013l0.648-0.932
	l0.932-0.729l-0.608-1.134l-1.539-0.284l-0.324-1.337l0.486-0.972l1.499-0.243l-0.851-0.972l-0.284-0.486l-0.203-0.729l-0.567,0.486
	l-0.891,0.972l-1.013,0.446l-0.203,0.567l0.041,0.567l0.446,0.689l0.081,1.337l-0.486,1.58l0.284,2.106l-0.689,1.782l-0.567,0.729
	l-1.175-0.932l-1.256-0.041l-1.215-0.851l0.284-4.293l0.405-1.58l-0.729-0.324l0.202-2.025l-0.689-0.851l-1.013,0.202l-0.608,1.013
	l-0.162,1.296l-0.446,0.932l-1.458,0.04l0.608,1.215l1.175,1.863l0.405,1.337l-0.689,0.608l0.081,0.648l1.094,1.458l-1.013,0.203
	l-0.81,0.486l-0.689,0.648l-0.567,0.851v-0.608l-0.202-1.134l-0.243-0.446l0.891-1.944l-1.863-3.119l0.567-1.539l-0.486-2.187
	l-1.215,0.689l-1.661,2.147l-1.256,0.446l-0.77,0.162l-0.648,0.243l-0.648,0.041l-0.77-0.446l-0.446-1.134l-0.122-0.729l0.324-0.324
	l2.633,0.04l0.689-0.486l-0.041-1.175l-0.689-1.256l-0.972-0.486l-1.013-0.324l-0.851-0.689l-0.324,0.972l-0.203,1.985l-0.365,0.932
	l-0.729,0.689l-0.243-0.648l0.081-2.025l-0.121-1.944l0.162-0.527l1.661-2.106l0.324-0.729l0.243-1.013l0.202,0.77l0.608,1.377
	l0.446,0.648l0.324-0.324l0.446,0.04l1.013,0.284l-0.648-0.972l-0.689-1.215l1.823,0.527l0.77-0.203l0.486-0.932l-1.661-0.122
	l-1.013-0.446l-0.122-1.013l1.053-1.701l-1.418-1.215l0.081-1.094l1.094-0.932l1.58-0.567l-0.405,1.985l0.162,0.527l0.851,0.203
	l1.62-0.041l0.405-0.284l0.446-0.729l0.081-1.823l-0.162-2.39l0.324-1.985l1.499-0.486l-0.203,1.134l0.041,1.701l0.284,1.782
	l0.81,2.106l-0.405,0.729l-0.608,0.689l-0.405,0.689v0.729l0.405,1.175l0.081,0.324l-0.365,0.405l-1.377,0.932l0.041,0.689
	l0.203,0.729l0.365,0.446l0.446-0.203l1.094-1.013h0.81l1.823,1.256l-1.337-2.876l-0.446-1.782l0.689-0.81l1.013,1.337l0.648,0.405
	l0.284-0.891l0.284-0.243l0.648-0.284l1.296-0.324v-0.486l-0.527-0.081l-1.215-0.527v-0.486l1.539-0.365l0.891-1.499l0.243-1.782
	l-0.486-1.337l-0.567-0.203l-1.701-0.04l-0.81-0.324l-0.608-0.77l-0.203-0.729l0.284-0.243l0.932,0.648l0.405-1.256l-0.446-0.729
	l-0.972-0.284l-1.175,0.081l0.486-0.608l0.608-0.446l0.689-0.121l0.648,0.365l0.608,0.446l0.527,0.122l0.243-0.243l-0.284-0.608
	v-0.608l2.39-0.04l1.134,0.405l0.446,1.053l-0.324,0.648l-0.608,0.689l-0.365,0.932l0.405,1.296l0.567-0.567l0.729-0.405
	l0.608,0.041l0.284,0.648l0.081,0.567l0.284,0.527l0.081,0.527l-0.729,0.932l-0.162,0.486v3.564l0.203,1.053l0.486,0.729
	l0.446,0.284l0.243-0.405l0.243-1.985l1.175-3.848l0.284-1.863l0.324-0.446l0.77,0.527l1.134,1.215l0.446,0.891l0.324,0.81
	l0.486,0.527l0.932,0.04v-0.527l-0.486-0.608l-0.527-1.62l-0.527-0.81l-3.929-4.172l-0.243-0.202l0.202-0.891l0.527,0.122
	l0.689,0.608l1.013,1.296l0.527,0.446l0.689,0.324h0.77l0.608-0.365l0.041-0.527l-0.405-0.527l-0.932-0.243l-1.215-0.567
	l-1.337-1.256l-0.567-1.863l-0.162-1.256h1.175l1.013,0.486l0.932,0.81l2.511,1.742l0.486,0.527l0.972,0.689l0.932,0.486
	l0.648,1.094l-0.284,1.094l-0.648,0.729l0.162,0.608l0.608,1.215l0.081,0.729l-0.243,1.337l0.729-0.486l0.284-0.608l0.162-0.648
	l-0.243-1.985l0.243-0.648l1.013-1.823l1.053-0.486h1.013l1.094,0.122l1.215,0.486l1.58,0.405l1.094,0.729l1.377,1.377l0.081,1.742
	l-1.013,3.443l0.77-0.486l1.215-1.58l0.648-0.122l0.446,0.689l0.284,1.175l0.121,2.268l-0.04,0.486l-0.324,1.094l-0.041,0.648
	l0.122,0.648l0.567,0.972l0.527,2.471l-0.162,0.729l-1.053,0.324l0.202,0.689l0.243,0.446l0.365,0.324l0.527,0.243l0.365-1.823
	l0.648-1.053l0.324-1.134l-0.527-2.025l1.296,0.405l1.337,0.162l-2.187-2.471l-0.648-1.337l1.296-0.567l1.175-0.202l2.795-1.134
	L156.731,142.83L156.731,142.83z"/>
<path id="KOR2503" fill="#B4D3D6" stroke="#FFFFFF" stroke-linecap="round" stroke-linejoin="round" d="M181.801,176.892
	l-0.162,0.608l0.243,0.608l0.446,0.486l0.567,0.284l0.365,0.891l-0.243,1.377l1.944,0.567l2.066-0.486l0.729-1.053l0.891,0.203
	l-0.081,0.891l0.77,0.446l0.121,1.418l0.648,2.106l-0.284,1.863l-0.851,1.377l-0.932,3.443l-1.661,1.337l-0.932,0.324l-2.795,2.066
	l-3.159,0.851l-1.337-4.334l-0.324-5.792l-1.175-2.268l-3.402-5.387l7.088-1.944L181.801,176.892L181.801,176.892z"/>
<path id="KOR2504" fill="#B4D3D6" stroke="#FFFFFF" stroke-linecap="round" stroke-linejoin="round" d="M271.795,225.939
	l-1.013,1.053l-0.445-0.162l-0.608,0.04v0.527l-0.081,0.689l-0.608,1.58v0.486l-0.162,0.77l-1.458,0.851l-3.686-0.972l-2.066-0.202
	l-0.932,0.729l-0.891,1.62l-0.526,0.405l-0.567-0.486l-0.81-0.527l-1.134-0.932l-0.729-1.458l-0.932-0.932l-1.013-0.365
	l-0.365-1.458l0.851-1.256h0.972l1.053-0.162l0.243-0.77l0.122-0.77l-0.567-0.202l-0.608-0.122l0.689-1.539l1.134-1.215
	l-0.405-3.605l2.997-2.511l4.091-0.567l3.362-0.203l2.592,1.863l0.81,1.418l-0.04,0.648l-0.324,0.527l0.04,1.985l0.526,0.81
	l0.689,0.567l0.121,1.256l0.04,1.337L271.795,225.939L271.795,225.939z"/>
<path id="KOR2505" fill="#B4D3D6" stroke="#FFFFFF" stroke-linecap="round" stroke-linejoin="round" d="M240.69,322.534h0.284
	l1.215-0.567l0.162,0.162l-0.122,0.405l-0.608,0.77l-0.689,0.243l-0.608-0.121l-0.486,0.081l-0.689,0.324l-0.324,0.324l-0.405,0.081
	l-0.04-0.284l0.203-0.526l-0.04-0.405l-0.284-0.284l-0.527-0.243l0.203-0.77v-0.405l0.284-0.243l0.405-0.122l2.066,1.094
	L240.69,322.534L240.69,322.534z M247.575,307.63l0.446,0.243l0.608-0.243l0.972-0.284l1.134-0.04l0.648,0.608l0.162,1.013
	l-0.365,0.608l0.243,0.365l-0.284,0.486l-0.648-0.243l-0.243,0.324l0.527,0.121l0.527,0.446l-0.243,0.445l-0.648,0.81l-1.053,0.04
	l-0.486-0.608l-0.243-0.608l-0.527-0.04l0.122-0.486l-0.162-0.527l-0.851-0.121l-0.284-0.243l0.608-0.486l0.121-0.567l-0.608-0.527
	l-1.175-0.365l-0.729,0.202h-0.445l-0.122-0.526l0.527-0.567l0.729-0.202l1.013,0.405L247.575,307.63z M238.786,309.452
	l-0.202,0.202l-0.972-0.324l-0.729-0.486l-0.405-0.648l0.081-0.405l0.445-0.729l0.851-0.648l0.81,0.203l0.972,1.053l0.365,0.608
	l-0.284,0.445h-0.689l-0.324,0.162L238.786,309.452L238.786,309.452z M224.165,304.025l0.324,0.243l0.365-0.851l0.77-1.215
	l0.608-0.081l0.202,0.526l0.648,0.527l0.122,0.932l0.365,1.296l0.648,0.729l0.365,0.527l-0.689,0.162l-2.916-0.77l-1.58,0.526
	l-0.932-0.121l-0.932-0.567l-0.567-1.134l0.445-1.215l0.851-1.134l0.567-1.053l0.608-0.77l1.013-0.243l0.324,0.851l-0.445,1.256
	l-0.243,0.85L224.165,304.025L224.165,304.025z M220.075,307.508l0.77,1.377l1.256-0.202l1.58-0.648l1.458-0.284l2.187,0.365
	l0.445,0.162l0.324,0.891l-0.202,0.77l-0.365,0.81l-0.162,1.013l0.162,1.62l-0.04,0.932l-0.365,0.405l-0.527,0.284l0.567,1.58
	l-0.284,0.81l-0.972,0.162l-0.972-0.567l-1.013-0.445l-1.175,0.567l-1.053,0.121l-0.608-1.499l-0.729-3.159l-1.053-0.567
	l-0.851,0.608l-0.567,1.296l-0.203,1.62l-0.405,0.689l-0.891,0.04l-0.972-0.324l-0.567-0.405l-0.405-0.689l-0.122-1.256
	l-0.121-1.013l-1.782-5.751l-0.243-1.418l0.162-1.337l0.77-1.418l0.486-0.365l0.486-0.081l0.405-0.284l0.284-1.701l0.365-0.526
	l1.053-0.81l0.851-0.405l0.972,0.324l0.851,0.729l0.486,1.013l-0.081,1.013l-0.567,0.972l-1.458,1.539l0.284,0.527l0.284,1.377
	l0.365,0.689l0.527,0.405L220.075,307.508L220.075,307.508z M269.689,297.342l0.405,0.729l0.284,0.77l-0.04,1.053l-0.243,0.932
	l-1.013,2.633l1.296-0.445l0.608-0.445l0.203,0.162l0.081,1.337l-0.081,0.891l-0.284,1.013l-0.567,0.527l-0.85-0.365l0.324,1.053
	l0.85,1.782l0.162,1.175l-0.486,0.203l-1.134-0.365l-1.175-0.648l-0.729-0.527l-0.203,1.094l-0.203,0.567l-1.134,1.296l-0.365,1.053
	l0.77,0.567l1.053,0.445l0.527,0.608l-0.972,0.851l-4.658,1.458l-1.377,0.081l2.187-1.58l-0.932-0.445l-0.324-0.689l0.04-0.932
	l0.324-1.134l-1.985,1.013l-0.608-0.405l-0.284-0.891l0.04-0.891l0.405-0.405l1.62-0.324l0.445-0.891l0.04-1.215l0.324-1.377
	l-0.891-0.527l-0.648,0.81l-2.309,1.013l-1.013,0.85l-0.729-1.134l-0.891-1.013l-0.77-1.134l-0.203-1.458l0.446-0.932l0.81-0.81
	l0.972-0.648l0.851-0.365l2.39-0.486h0.689l1.053,0.445l0.81,0.567l0.891,0.446l1.175,0.081v-0.486l-1.175-0.81l-0.689-1.175
	l-0.324-1.337l-0.04-1.215l0.851,0.081l4.455-2.552l-0.77-1.458l0.365-1.418l1.013-0.77l1.134,0.445l0.284,0.648v0.729l-0.405,2.916
	l0.04,0.486L269.689,297.342L269.689,297.342z M276.614,294.264l-0.324,0.121l-0.162-0.324l-0.324-1.377l-0.486-0.527l-0.162-0.405
	l0.081-0.527l-0.243-0.648l-0.324-0.648l0.162-0.567l0.689-0.365l0.729-0.081l0.648,0.202l0.445,0.972l-0.04,1.985l-0.284,1.62
	L276.614,294.264L276.614,294.264z M287.914,248.255l0.284,3.119l-1.62,3.24l0.972,1.944l3.969,0.608l1.661,1.296l2.754,3.159
	l3.281,1.823l1.499,1.134l0.405,2.187l1.418,1.377l1.823,0.648l0.243,0.243l-0.284,1.053l-0.121,1.418l-0.365,0.77l-0.445,0.648
	l0.365,1.053v0.445l-0.689,1.458l-1.053,2.187l-1.134,1.377l-0.729,1.539l-0.121-0.284l-1.296-1.337l-1.134-1.499l-1.499-1.175
	l-1.134-1.62l-0.365-1.701l-1.256-0.81l-1.62-0.081l-1.499,0.608l-1.215,0.891l-0.932,1.134l-0.648,4.658l-0.932,1.377l-0.972,1.215
	l-0.527,0.972l-0.324-0.284l-0.567,0.891l-1.944,3.443l-0.891,0.04l-0.081-1.58l0.081-1.499l-0.446-0.04l-0.526,1.215l-0.486,1.904
	l-1.58-0.203l-4.212,0.081l-0.243-1.458l-0.445-0.77l-0.567,2.187l-0.648,0.324l-1.499-0.689l-0.689-1.296l-0.77-0.081l-0.972,0.729
	v-3.402l-0.284-0.284l-0.526,0.203l-0.486,0.729l-0.04,1.215l-1.013-0.81l-0.77-1.134l-0.891-0.729l-1.296,0.526l0.284-1.094
	l-0.526-1.58l0.243-0.608l-0.648-2.025l-0.365-0.243l-0.729,0.689l-0.81,1.256v0.851l0.81,1.701l0.445,2.066l0.284,0.729
	l0.526,0.932l1.094,1.458l0.162,0.729l-0.324,1.013l0.527,0.081l1.215,0.486l-0.567,0.365l-0.527,0.162h-1.337l-0.648-0.162
	l-0.203-0.405l-0.04-0.527l-0.203-0.527l-0.608-0.648l-0.445-0.365l-3.483-1.215l-0.972-0.04l-2.106,0.405l-0.567,0.284l0.04,0.527
	l0.729,1.053l-1.175,0.243l-2.228,1.134l-2.511,0.689l-0.324,0.972l-0.121,1.094l-0.689,0.689v0.526l6.399-3.402l1.094-0.081
	l0.202,1.377l0.405,1.013l0.122,0.932l-0.527,1.013l-0.81,0.486l-1.256,0.202l-1.256-0.081l-0.81-0.324l-0.446,0.77l0.284,0.365
	l0.608,0.324l0.405,0.689l0.081,0.972l-0.081,1.661l-0.446,3.2l0.567,0.527l0.567-0.162l0.445-0.648l0.202-0.77l0.851,1.053
	l-0.891,1.58l-1.62,2.106l-1.418,0.445l-1.944-0.121l0.04-1.215h1.256l0.527-0.121l0.324-0.486l-4.01-0.486l-0.81-0.324
	l-0.932-1.256l-0.121-0.648l0.648-0.405l1.499-0.608l-1.458-2.916l-1.053,1.053l-1.053,2.025l-1.499,0.081l-1.337-1.823
	l-0.729-0.445l-1.458-0.162l-0.648,0.405l-0.324,0.932l-0.162,1.215l0.04,1.175l-1.337-0.243l-2.997,0.122l-1.175-0.648
	l-0.121-0.405l-0.04-1.175l-0.04-0.284l-0.324-0.081l-0.689,0.122l-0.932-0.203l-1.499-0.121l-0.527-0.284l-0.324-0.648l0.04-0.608
	l0.284-1.134l-0.122-5.792l0.122-0.932l0.486-1.013l0.284-0.729l0.081-0.972l-1.013,1.215l-0.81,1.377l-1.013,1.053l-1.539,0.122
	l1.175,2.795l-0.81,0.526l-1.742-0.04l-1.661,1.053l-0.648-1.863l-0.405-0.77l-0.729-0.567l-0.202,2.511l-0.689,2.025l-1.337,1.175
	l-1.701,0.162l-1.296-0.405l-0.486,0.04l-0.405,0.365l-0.972-0.77l-0.648-0.203l-0.162-0.324v-1.458l-0.851-2.147l-4.01-4.334
	l-0.689-1.458l-0.567-1.661l-1.418-1.499l-1.58-1.134l-0.851-1.58l-0.284-4.172l-0.648-2.025l-1.296-1.539l0.324-1.701l1.337-1.377
	l0.121-1.944l0.405-2.106l2.673-3.2l0.405-2.187l-0.932-0.608l-0.648-1.499l0.121-1.985l-0.729-1.863l-0.121-1.013l-0.243-0.851
	l-1.62-0.689l0.04-1.985l0.891-1.863l0.567-2.43l0.729-2.39l1.013-1.863l0.81-1.782l0.162-2.43l0.729-2.066l1.458-1.296l1.377-1.458
	l1.215-2.592l0.648-0.405l0.851,0.081l1.58-0.486l3.2-1.701l0.608-1.661l2.349-2.511l0.527,1.742l1.296,0.77l1.175,0.932
	l0.081,0.648l0.243,0.648l1.053,0.405l1.944,0.162l0.81,0.689l1.053,0.689l1.823,0.162h1.823l1.661,0.527l1.215,1.337l0.851,1.62
	l1.418,1.013l0.365,0.729l0.243,0.689l0.972,0.608l0.851,1.013l-0.04,1.863l-0.77,1.782l1.013,3.645l3.969,0.162l1.904-0.243
	l1.863,0.284l1.742,0.851l1.62,1.215l1.823,0.365l3.443-1.742l1.742,0.365l1.58-2.268l1.499-1.175l0.527,4.374l1.62,1.985
	l1.985,1.256l2.349-0.243l2.39-0.446l2.106,0.648l1.985,1.053l2.39,0.081l2.106-1.661l0.891-0.324l0.932-0.121l0.891-0.77
	l0.729-0.972l2.309-0.932l2.471,0.608l1.904,0.891L287.914,248.255L287.914,248.255z"/>
<path id="KOR2506" fill="#B4D3D6" stroke="#FFFFFF" stroke-linecap="round" stroke-linejoin="round" d="M133.848,363.967
	l-1.458-0.202l0.405-0.486l-0.202-0.445l0.202-0.203l0.446,0.081l0.405,0.648L133.848,363.967z M131.499,358.58l0.405,0.04
	l0.527-0.162h0.729l0.891,0.365l0.527,0.648l-0.121,0.365l-0.527-0.284l-0.081,0.284l-0.851-0.405h-0.608l-0.324,0.365l-0.243,0.405
	l-0.689,0.486l-0.648,0.567l-0.972,0.567l-1.215-0.04l-0.689-0.891l-0.041-1.175l0.567-1.175l1.134-0.77h0.972L131.499,358.58
	L131.499,358.58z M137.776,362.428l-0.648,0.162l-0.324-0.203l-0.122-0.365l-0.648-0.324l-0.122-1.013l0.405-1.823l0.122-0.972
	l-0.405-0.405l-0.122-0.365l0.527-0.486l0.04-0.284h0.527l1.094,0.567l0.162,0.77l-0.608,0.527l-0.122,0.567l0.648,0.972
	l0.243,0.162l0.243,0.365l-0.486,0.284l-0.081,0.445v0.81L137.776,362.428L137.776,362.428z M143.933,357.406l-0.162,0.527
	l-0.405-0.648l-0.365-0.324l0.162-0.608l-0.04-0.405l0.932-0.77l0.405,1.053l-0.081,0.648L143.933,357.406L143.933,357.406z
	 M154.058,358.702l-0.405,0.729l-0.729,0.405l-0.972,0.081l-0.689-0.365l-0.567-0.527l-0.446,0.04l-0.203,0.405l-0.243-0.162
	l-0.284-1.175l0.405-0.81l0.121-0.729l0.243-0.608l0.446-0.446l0.932-0.445l1.094,0.284l0.648,0.932l0.972,1.013l-0.162,0.972
	L154.058,358.702z M132.876,357.77l-0.324,0.243l-0.972-0.243l-0.527-0.486l-0.121-0.324l-0.567-0.162l-0.081-0.243l0.527-1.256
	l-0.04-0.608l0.365-0.284l-0.365-0.77l0.202-0.162l1.013,0.405l1.337,0.243l1.013,0.608l0.284,0.365l0.04,0.689l-0.446,0.365
	l-0.203,0.891l-0.932,0.04l-0.527,0.122L132.876,357.77L132.876,357.77z M92.253,352.91l-0.689,0.729l-0.486,0.162h-0.567v-0.365
	l0.243-0.689l0.324-0.284L92.253,352.91L92.253,352.91z M175.929,354.814l-0.162,0.405l-1.175-0.243l-1.134,0.284l0.527-1.661
	l0.648-0.608l0.202-0.405l0.648-0.365l0.284,0.04l0.284,0.689l-0.081,0.85l-0.365,0.648L175.929,354.814L175.929,354.814z
	 M134.334,352.181l0.567,0.243l0.324,0.648l-0.324-0.04l-0.446,0.405l-0.284-0.081l-0.689,0.203l-0.405-0.648l0.527-0.486
	L134.334,352.181L134.334,352.181z M98.571,351.938l0.365,0.243l0.243-0.081l0.081,0.81l-0.567,1.175l-0.446-0.162l-0.365-0.405
	l-0.324,0.729l-0.243-0.567l-0.729-0.365l0.446-0.405l0.567,0.081l0.405-0.081l0.405-0.324l-0.041-0.405L98.571,351.938
	L98.571,351.938z M90.309,351.573l0.081,0.972l-0.162,0.203l-0.243-0.608l-0.486,0.162l-0.203,0.445l-0.689-0.445l0.527-0.689
	l0.608-0.203L90.309,351.573L90.309,351.573z M193.709,351.209l-0.284,0.202l-0.527-0.567l0.527-0.243l0.284,0.081V351.209z
	 M131.337,349.548l0.365,0.324l-0.851,0.445l-0.608-0.121l-0.567,0.081v-0.729l0.608,0.203L131.337,349.548z M184.798,349.71
	l-0.608,0.365l-0.202-1.256l0.891-0.04L184.798,349.71L184.798,349.71z M181.72,348.698l0.243,0.526l0.77-0.324l0.243,0.324
	l-0.284,0.203l-0.162,0.405l-0.972,1.013L181.72,348.698z M97.235,347.24l2.228,0.445l0.932-0.162l0.405,0.243l-0.041,0.851
	l0.081,0.567l-0.284,0.445l-0.648,0.081l-0.365,0.284l-0.243-0.122l-0.284-0.405l-0.324,0.365l-0.405,0.081l-1.337-0.567
	l-0.446-0.648l-0.04-0.405l0.284-0.365v-0.405L97.235,347.24L97.235,347.24z M158.149,347.807l-0.486,0.202l-0.446-0.04
	l-0.202-0.324l-0.324-0.202l-0.324-0.365l0.04-0.689l0.203-0.486l0.851-0.486l1.58-0.04l1.013,0.527l0.04,0.526l-0.324,0.446
	l-1.256,0.932L158.149,347.807L158.149,347.807z M94.886,345.134l0.851,0.365l0.527-0.324l1.215,0.162l1.296,0.729l0.122,0.446
	l-0.324,0.121l-1.499-0.405l-1.296,0.243l-0.891-0.203l-0.284-0.932L94.886,345.134L94.886,345.134z M125.545,345.498l-0.284,0.203
	l-0.365-0.486l0.081-0.445l0.648,0.284L125.545,345.498z M149.157,344.486l0.486,0.121l0.527-0.081l0.729,0.081l0.891,0.243
	l0.567,0.324l-0.122,0.567l-0.365,0.445l-0.162,0.81l-0.405,0.445l-0.527-0.121l-0.608,0.121l-0.608,0.567l-0.567,0.121
	l-0.324-0.445l-0.122-0.608l-0.365-0.486l-0.486-0.202l-0.648,0.081l-0.77,0.284h-0.608l-0.486-0.284l-1.418-0.648l-0.081-0.243
	l0.648-0.081l0.648-0.203l0.486-0.284l0.527,0.081l0.567,0.284l0.729-0.284l0.851-0.729l0.648-0.162L149.157,344.486
	L149.157,344.486z M162.158,343.878l0.486,0.243l0.891-0.284l0.648-0.081l0.284,0.284l0.932,1.418l-0.365,0.081l-0.567-0.284
	l-0.608-0.162l-0.486,0.203l0.567,0.445l-0.446,0.445l-1.134,0.891l-0.648,0.284l-0.081-0.689l0.324-0.486l0.405-0.243l-0.243-0.324
	l-1.377-0.284l0.162-0.324l-0.162-0.365l-0.405-0.284l-1.094-0.081l-0.405-0.162l-0.041-0.243l0.486-0.121l0.365-0.243l0.608-0.729
	l0.77-0.648l0.486,0.445l0.405,0.608L162.158,343.878L162.158,343.878z M142.92,346.511l1.175,1.134l0.122,0.486l0.365,0.891
	l-0.243,0.202l-0.608-0.162l-1.094-0.567l-0.243,0.081l-0.081,0.445l-0.284,0.162l-0.567-0.243l-0.972-0.243l-1.215-0.405v-0.486
	l0.567-0.486l-0.122-0.567l-0.567-0.121l-0.689,0.162l-0.81-0.243l-0.77-0.486l-0.446-0.567l-0.162-0.851l-0.081-0.972l0.041-0.972
	l0.284-0.972l0.486-0.77l0.689-0.324l1.499-0.202l0.729,0.243l0.689,0.486l0.77,0.891l0.608,1.499l0.162,1.215l0.202,0.608
	l0.365,0.445L142.92,346.511L142.92,346.511z M155.759,340.274l-0.324,1.256l-0.243,0.243l0.243,0.851l-0.486,0.486h-0.527
	l-0.284,0.445l-0.405,0.324l-0.486,0.202l-0.81-0.243l-0.446-0.365l-0.324-0.648l0.162-0.77l-0.122-0.284l-0.405,0.243l-0.405,0.486
	l-0.284,0.04l0.04-2.066l-0.243-0.324l0.446-0.122l0.446,0.324l1.458,0.081l0.527,0.121l0.405,0.365l0.567,0.162l0.527-0.04
	l0.446-0.527l0.284-0.729l0.202-0.081L155.759,340.274z M176.536,342.056l-0.243,0.081l-0.932-0.284l-0.243-0.365l0.081-1.013
	l-0.527-0.284l-0.121-0.648l0.202-0.162l0.324,0.081l0.284,0.486l0.405,0.324l0.162,0.446l0.689,1.094L176.536,342.056
	L176.536,342.056z M150.251,340.679l0.04,0.486l-0.446,0.081l-1.337-0.405l-0.527,0.121l-0.324,0.486l-1.701,0.81l-0.608,0.77
	l-0.162,0.85l-0.365,0.243l-0.405-0.486v-0.81l-0.122-0.648l-0.608-0.284l-0.284-0.284l0.527-0.891l0.446-1.013l0.891-1.175
	l1.256-0.689l1.337-0.324l0.81,0.121l0.284,0.486l0.081,0.486l-0.365,0.365l0.081,0.162l0.567,0.365l0.486,0.567L150.251,340.679
	L150.251,340.679z M161.915,336.061l0.648,0.324l0.202-0.162l0.486,0.527l0.729,1.904l-0.284,0.365v0.567l-0.283,0.284l-0.324,0.081
	l-0.284-1.256l-0.567,0.608l-0.324-0.243l-1.094-2.511l0.324-0.324L161.915,336.061L161.915,336.061z M210.719,339.828l-0.081,0.121
	l-0.77-0.608l-0.243-0.486l0.324-0.365l-0.324-0.324l0.365-0.648l0.162-0.405v-0.527l0.081-0.486l0.324-0.121l0.203,0.365
	l0.527,0.405l-0.405,1.823v0.729L210.719,339.828L210.719,339.828z M190.387,335.656l0.324,0.121l0.567-0.567l0.608-0.04
	l1.418,1.499l0.284,0.77v0.445l-0.486,0.526l-1.175,0.77l-1.013,0.324l-0.365-0.202l-0.04-0.689l-0.446-0.445l-0.648-0.203
	l-0.284-0.405l0.162-0.324l-1.094-0.77l0.203-0.567l-0.122-0.77l0.284-0.202l0.932,0.486L190.387,335.656L190.387,335.656z
	 M172.688,338.735l-2.673,0.486l-1.013-0.121l-0.729-0.365l-1.539-1.053v-0.567l0.324-0.446l0.081-0.365l-0.243-0.324l-0.608-0.405
	l0.891-0.689l1.013-0.405l2.106-0.405l1.985-0.203l1.053,0.081l0.891,0.405l0.689,1.256l-0.202,1.458l-0.851,1.175L172.688,338.735
	L172.688,338.735z M98.774,333.996l0.689,0.243l-0.162,0.324l-0.729,0.527l-0.527,0.608l-0.446,0.202l-0.122-0.932l-0.284-0.567
	l0.851-0.851l0.162-0.486l0.567,0.121l0.365,0.324L98.774,333.996L98.774,333.996z M211.934,334.401l-0.365,0.284h-0.446
	l-0.365-0.162l-0.446,0.243v-0.77l0.446-0.689l0.608-0.284l0.527-0.081l0.162,0.162l-0.365,0.446l0.162,0.365L211.934,334.401
	L211.934,334.401z M167.747,331.809l-0.446,0.567l-0.851,0.324l-0.284-0.445l-0.365-0.122l-0.04-0.608l0.446,0.04l0.203-0.405
	l0.77,0.445l0.162-0.648l0.446,0.162L167.747,331.809L167.747,331.809z M189.577,331.566l-0.365,0.445l2.025,0.648l0.324,0.689
	l-0.121,0.243l-0.527,0.365l-0.608-0.04l-1.377,0.365l-0.486,0.202l-0.77-0.77l-0.041-0.486l0.527-0.324l0.486,0.04l-0.405-0.608
	l-0.162-0.608l-0.932-0.243l0.284-0.284l-0.081-0.324l0.202-0.567l0.527-0.608l1.013-0.081l0.648,0.567l-0.81,0.608l0.446,0.324
	L189.577,331.566L189.577,331.566z M209.139,333.712l-0.527,0.04l-0.324-0.445l-0.608-0.324l-0.932-0.324l-0.608-0.486l-0.284-0.689
	l-0.324-0.445l-0.527-0.284l-0.446-0.567l0.324-0.648l1.094-0.527l1.175-0.162l0.81,0.608l0.972,1.904l-0.081,0.81l0.527,0.121
	l0.405,0.243l0.284,0.445l-0.121,0.486L209.139,333.712L209.139,333.712z M115.339,329.865l0.446,0.324l0.284-0.081l1.458-0.932
	l0.041,0.689l1.904,3.078l0.121,1.094l-0.203,1.175l-0.324,1.175l-1.256,2.714l-0.527,0.81l-0.648,0.445l-0.081-0.243l-1.094-1.053
	l-0.527-0.324v0.486l-0.243,1.256l-6.116,3.321l-0.729,0.284l-2.714,0.203l-0.729-0.203l-0.162-0.648l0.365-0.567l0.486-0.486
	l0.162-0.405l-0.324-0.486l-1.863-1.134v1.62l-1.337-1.58l0.81-2.592l1.823-2.106l1.782-0.122l0.567-1.701l0.405-0.608l0.567-0.648
	l0.689-0.405l0.608-0.081l0.486-0.365l0.162-1.094l0.77,0.932l1.013,0.121l0.891-0.608l0.405-1.175l-0.486-0.972l-1.661-1.337
	l0.446-0.648l1.013-0.04l1.094,0.567l0.891,0.729l0.689,0.365L115.339,329.865z M202.011,326.949l0.202,0.122h0.77l0.202-0.203
	l0.446,0.162l0.284,0.527l-0.243,0.365l-0.365,0.162l-0.324-0.648l-0.405,0.77l-0.365,0.284l-1.094,0.162l-0.689-0.972l-0.405-0.121
	l0.324-0.729l0.324-0.324l0.689-0.324l0.284,0.081l0.284,0.284L202.011,326.949L202.011,326.949z M165.884,325.207l-0.365,0.162
	l-0.405-0.972l0.405-0.243l0.567,0.527L165.884,325.207z M195.045,323.749l0.405,0.405l0.04,0.405l-0.77,0.202l-0.284,0.729
	l-0.446-0.122l-0.243-0.526l-0.932-0.162l-0.162-0.445l0.284-0.567l0.729,0.365l0.243-0.284l0.567-0.203L195.045,323.749z
	 M98.814,330.31l-0.689,0.081l-0.77-0.202l-0.202-0.405l0.77-0.162l0.689-0.608l-0.081-0.243l-1.418-0.324l0.365-0.405l0.891-0.162
	H99.3l0.729-0.567l0.284-0.77l-0.284-0.77l-0.648-1.053l-0.405-1.296l0.486-0.365l0.77,0.608l0.486,0.486l0.77,0.446l0.04,0.689
	l0.284,0.567l-0.081,0.77l-0.203,0.891l-0.04,0.729l-0.365,0.405l-1.053,0.891L98.814,330.31L98.814,330.31z M85.975,323.385
	l0.162,0.81l-0.122,0.324l-0.365,0.284l-0.972,0.324l-0.527-0.04l-0.527,0.243l-0.446-0.203v-0.445l0.446-0.081v-0.202l-1.215-1.013
	l0.365-0.121l0.527,0.284l0.648,0.121l1.418-0.85h0.446L85.975,323.385L85.975,323.385z M97.559,327.435l-0.608,0.284l-0.527-0.445
	l-0.243-2.714l0.243-1.499l0.527-0.689l0.81,1.782l0.689,1.013l0.527,1.094l-0.162,0.932l-0.567,0.162L97.559,327.435
	L97.559,327.435z M93.63,322.777v0.81l-0.567-0.243l-0.243-0.445l-0.243,0.121l-0.608-0.121l-0.324-0.689l0.77-0.608l0.648,0.122
	l0.203,0.608l0.203,0.04L93.63,322.777L93.63,322.777z M105.173,320.55l0.081,0.324l1.013-0.81l0.729,0.77l0.122,1.053l0.729-0.04
	l0.122,0.284l-1.215,0.608l-0.324,0.445h-0.446l-0.486-0.162l-0.365,0.162l-0.203,0.284l-0.608,0.081l-0.729,0.405l-0.446-0.162
	l0.243-1.985l-0.486-0.243l-0.365-0.365l0.243-0.284l0.446-0.243l0.243-0.324l1.215-0.891l0.284-0.04l0.446,0.203l0.041,0.445
	L105.173,320.55L105.173,320.55z M102.054,317.147l-0.365,0.365l-0.527-0.445l0.203-0.486l0.648-0.365L102.054,317.147
	L102.054,317.147z M210.355,326.625l-0.729,0.04l-0.729-0.365l-2.268-2.309l-0.284-0.932l0.405-1.418l0.284-0.365l1.215-0.932
	l0.203-0.446l0.486-1.985l-0.972-1.053l0.121-0.608l0.689-0.324l0.81-0.122l0.689,0.324l0.162,0.729l-0.324,0.85l-0.77,0.729
	l0.648,0.162l0.608,0.932l0.446,1.134l0.527,1.985l0.081,1.134l-0.203,1.094l-0.486,1.094L210.355,326.625L210.355,326.625z
	 M206.79,316.742l-0.648,0.527l-0.527-0.284l-0.486-0.729l0.405-0.486l0.486,0.567L206.79,316.742z M95.048,319.01l-0.972,1.296
	l-0.446,0.324h-1.094v-0.243l-0.932-0.567l-1.013-0.405l-0.284,0.081L89.74,318.2l0.446-0.608l1.863-0.77l1.175-1.58l0.405-0.203
	l0.243,0.162l0.527,1.013l0.77,0.689l0.203,0.324l0.081,0.608l-0.122,0.608L95.048,319.01L95.048,319.01z M102.662,311.761
	l0.608,0.284l0.365,0.405l0.567,0.284l0.77,0.081l0.648,0.122l0.405,0.405l0.243,0.445v0.891l0.243,0.689v0.851l-0.365,0.729
	l-0.81,0.081l-0.77-0.729l-0.567-0.891h-0.689l-0.567,0.405l-0.486,0.04l-0.446-0.324l-0.122-0.648l-0.567-1.094l-1.296-1.337
	l-0.243-0.648l0.608,0.162h0.527l0.446-0.243l0.689-0.081L102.662,311.761L102.662,311.761z M115.541,312.53l-0.243,0.04
	l-0.567-1.539l0.486-0.284l0.243-0.365l0.284,0.121l0.446,0.446l-0.365,0.445l-0.365,0.203l-0.041,0.324l0.162,0.203L115.541,312.53
	L115.541,312.53z M95.574,310.91l0.041,1.661l-1.053-0.324l-0.324-0.203l-0.527,0.729H92.82l-0.81-0.162l-0.324,0.203l-0.162,1.053
	l-0.324,0.932l-0.567,0.689l-0.77,0.324l-0.729-0.081l-0.567-0.527l-0.324-0.81l-0.122-1.053l0.203-0.972l0.486-0.689l0.729-0.445
	l0.77-0.284l0.891,0.324l1.134-0.243l2.106-0.81h0.729l0.243,0.203L95.574,310.91L95.574,310.91z M189.132,309.371l-0.081,0.851
	l-0.689,0.445l-0.243,0.527l-0.405-0.121l-0.243-0.243l0.284-0.284l-0.041-0.486l0.365-0.324l0.567,0.121L189.132,309.371
	L189.132,309.371z M105.254,312.206l-0.77,0.203l-0.729-0.405l-0.851-0.729l-1.053-0.405l-0.81-0.445l0.648-0.567l1.58-0.243
	l0.932-0.405l0.486-0.405l0.608,0.284l0.648,0.932l-0.446,0.729l0.162,1.053L105.254,312.206L105.254,312.206z M104.241,303.256
	l0.324,0.162l0.284,0.446l0.081,0.486l-0.851,0.567l0.284,1.215l-0.122,0.729l-0.486,0.284l-0.608-0.04l-0.405,0.486v0.85
	l-0.202,0.77l-0.689,0.365l-0.567-0.04l-0.122-0.77l-0.972-1.094l-0.527-0.729l-0.446-0.851l0.203-0.608l0.932-0.486l0.77-0.081
	l0.608,0.365h0.608l0.162-0.486l-0.122-0.932l0.608-0.567L104.241,303.256L104.241,303.256z M205.454,301.838l0.527,0.284
	l0.608-0.081l0.365,0.203l-1.418,1.661l-0.689,0.122l-0.486-0.162l-0.608-0.608l-0.081-0.324l0.365-0.527l0.689-0.527
	L205.454,301.838L205.454,301.838z M118.174,304.876l0.121,1.62l-1.256,1.175l-0.689-0.243l0.405-0.486l0.202-0.445l-0.162-0.284
	l-2.066-1.134l-1.904,0.284l-0.81,0.445l-0.972,0.121l-0.77-0.243l-0.365-0.527l0.324-0.405l1.013-0.04l1.337-0.486l0.405-0.527
	l0.081-0.324l0.81-0.243l0.284-0.486l0.04-0.567l-0.527-0.689l-0.203-0.77l0.689-0.365l1.134,0.243l1.134,0.608l0.81,0.81
	l-0.081,0.445l-0.567,0.081l-0.972,0.648l-0.121,0.365l0.121,0.81l0.405,0.162h0.932L118.174,304.876L118.174,304.876z
	 M100.839,300.744l0.162,1.134l-0.203,1.053l-0.486,0.972l-0.77,0.648l-0.932,0.243l-0.527-0.203l-0.405-0.365l-0.567-0.162
	l-2.066,0.446l-0.81,0.04v-0.486l0.648-0.567l1.134-1.863l0.891-0.81l1.013,0.203h0.527l0.243-0.486l0.284-1.013l0.648-0.162
	l0.689,0.486L100.839,300.744L100.839,300.744z M110.924,300.339l-0.567,0.243h-0.81l-0.324-0.729l0.162-0.729l0.486-0.284h1.094
	l0.365,0.162l0.041,0.324l-0.202,0.81L110.924,300.339z M112.828,296.208l0.243,0.324l0.527,0.284l0.77,1.823l-0.243,0.445
	l-1.013-0.365l-0.243-0.81l-0.567-1.053l-0.405-0.527L112.828,296.208L112.828,296.208z M108.818,296.451l-0.121,1.013l-0.324-0.202
	l-0.486-1.094l0.284-0.689l0.851-0.567l0.081,0.324L108.818,296.451L108.818,296.451z M111.815,295.641l-0.365,0.324l-0.405-0.608
	l0.081-0.445l-0.041-0.972l-0.405-0.486l0.284-0.203l0.405,0.121l0.527,0.446l0.527,0.689l0.041,1.094L111.815,295.641
	L111.815,295.641z M106.064,293.819l0.446,0.243l0.122,0.365l-0.122,1.094l-0.81,0.648l-1.215,0.284l-0.122,0.486l0.122,0.486
	l-0.081,0.203l-1.175,0.284l0.122-0.486l0.446-1.053l0.162-1.661l0.689-0.284l-0.041-0.445l-0.365,0.121l-1.742,0.081l-0.648-0.04
	l-0.446-0.203l-0.04-0.365l0.689-0.365l0.324-0.486l0.608-0.365l0.284-0.324l0.446-0.162l1.134,0.243l0.567,0.567l0.162,0.85
	L106.064,293.819L106.064,293.819z M104.322,289.283l0.567,0.243l0.81-0.04l0.567,0.162l0.446,0.689l0.041,1.175l-0.567,0.445
	l-0.365-0.162l-0.567-0.608l-0.284-0.202l-0.648,0.162l-0.081-0.365l-0.567-0.081l-0.081-0.202l0.446-0.324l-0.729-0.162
	l0.122-0.365l0.486-0.324L104.322,289.283L104.322,289.283z M96.749,286.488v1.377l-0.648-0.445l-0.365-0.567l0.041-0.648
	l0.689-0.243L96.749,286.488L96.749,286.488z M107.239,285.8l0.608,0.365l0.527-0.162l0.648-0.324l0.365,0.203l0.162,0.324
	l0.689-0.121l0.162,0.526l-0.446,0.446l-0.567,0.04l-0.243,0.284v0.405l0.689,0.729l0.608,0.284l0.648,0.04l0.365,0.527l0.203,0.689
	l0.324,0.445l0.121,0.608l-0.243,0.77l-1.175-0.203l-0.567-0.891v-0.689l0.122-0.365l-0.405-0.121l-1.661-0.284l-0.365-0.324
	l-0.851-0.121l-0.648-0.445l-0.324-0.405l-0.689-1.62l0.405-0.648l0.81-0.243L107.239,285.8L107.239,285.8z M102.459,289.161
	l-0.243,0.608l-0.365,0.122l-1.701-0.486l-0.608,0.121l-0.567-0.486L98.691,289l0.527-2.511l0.324-0.729l0.446-0.243l0.77-0.243
	l0.689-0.365l0.324-0.486l0.486-1.094l1.175-0.729l1.296-0.324l0.972,0.284l-1.944,1.134l-0.446,0.648l-0.041,0.77l0.284,0.81
	l0.851,1.418l-0.689,0.284l-0.729,0.689L102.459,289.161L102.459,289.161z M104.687,272.272l-0.567,0.445l-0.648-1.256v-0.243
	l0.486-0.77l0.405,0.203l0.324,0.365l0.122,0.729l0.202,0.365L104.687,272.272L104.687,272.272z M97.478,266.399l0.162,0.486
	l-0.608,0.567l-1.053,0.284l0.162-0.405l-0.608-0.567l0.689-0.405l-0.527-0.405l0.81-0.648l0.405,0.365l0.122,0.284l0.324,0.121
	L97.478,266.399L97.478,266.399z M198.771,272.11l-0.324,1.701l1.296,1.539l0.648,2.025l0.284,4.172l0.851,1.58l1.58,1.134
	l1.418,1.499l0.567,1.661l0.689,1.458l4.01,4.334l0.851,2.147v1.458l0.162,0.324l-0.405-0.122l-2.633,0.04l-0.851-0.162
	l-0.324-0.405l-0.162-0.567l-0.405-0.77l-0.729-0.567l-0.162,0.567l0.122,0.972l0.121,0.405l-0.446,1.418l-0.284,0.526l-0.567,0.689
	l-2.43,1.904l-1.337,0.608l-0.972-0.81l-1.215-2.471l-1.013-0.405l-0.689,1.013l-0.365,1.539l0.081,1.337l0.608,1.377l0.972,1.782
	l1.134,1.539l1.053,0.689l0.689,0.932l0.689,0.324l0.81-0.527l1.985-1.863l1.377-0.203l1.175,0.243l1.094,0.081l1.175-0.648
	l-0.04,1.539l-0.203,1.094l-0.648,2.228l-0.729,3.888l-0.527,0.891l-2.268,0.77l-1.782-0.891l-1.418-0.324l-1.175,2.592
	l-0.405-0.243l-0.486,0.243l0.486,1.013l0.405,1.094l0.446,3.483l-0.284,0.648l-0.648-0.365l-1.053-1.094l-1.539-0.203l-1.134-0.608
	l-0.77-1.175l-0.284-1.742l0.365-1.661l0.851-1.62l0.608-1.539l-0.284-1.296l-0.527-0.729l-1.013-2.228l-0.284-0.162l-0.729-0.081
	l-0.324-0.324V308.4l0.284-0.77l-0.972-2.025l-0.162-0.77l0.04-0.486l0.284-0.77l0.081-0.365l-0.162-0.445l-0.284-0.365
	l-0.284-0.081l-0.365,0.486l-1.094,2.795l-0.446,0.608l-2.714,0.932l-1.296,0.162l-2.754-0.04l-1.053,0.284l0.851,0.689l1.661,0.729
	l1.337,0.405v0.486l-2.714,0.891l-1.377,0.77l-0.243,1.053l0.567,0.445l1.215-0.486l0.648,0.284l0.446,0.77l-0.162,0.243
	l-0.486,0.324l0.891,3.078l1.823,1.661l2.025,1.296l1.377,1.985l-0.689-0.121h-1.094l-0.486,0.121l2.754,1.053l0.324,0.85
	l0.202,1.661l-1.256,1.134l-1.256-0.081l-0.77,0.203l-2.916-1.823l-0.932-0.284l-0.851,0.162l-1.013,0.486l-0.891,0.608
	l-0.365,0.608l0.891,1.863l0.932,0.203l0.527,0.365l2.43-0.648l1.337,1.134l-3.038,2.795l-1.094,1.539l-1.175-0.527l-1.823,1.377
	l0.202,1.377l0.81,0.891h-1.782l-2.633-3.483l-0.891-1.823l-2.39-2.633l-0.729,0.162l-2.552,1.337l0.243,0.81l0.202,0.324
	l-1.053-0.365l-1.013-0.203l-0.851-0.445l-0.608-1.134l-0.081-1.134l0.405-0.689l1.418-0.851l0.486-0.405l1.296-1.701l0.77-1.701
	l0.486-0.567l0.932-0.445l-0.081,1.296l-0.324,1.256l-0.932,2.268l1.904-0.121l1.539-0.567l0.972-1.296l-0.04-2.309l-0.365-0.891
	l-0.486-0.527l-0.405-0.608l-0.041-1.175l0.324-0.608l1.863-2.066l0.648,0.365l0.446,0.486l0.122,0.608l-0.365,0.729l0.405,1.013
	l0.567,0.729l0.729,0.243l0.972-0.365l0.405-0.567l0.891-1.863l0.486-0.81l-0.891-1.337l-0.324-1.377l-0.446-0.648l-1.215,0.932
	l-1.418,0.608l-1.134-0.972l-1.58-2.552l-0.932,1.418l-1.296,3.362l-0.881,1.09l-0.932,0.365l-0.77-0.04l-1.62-0.324l-0.729,0.243
	l-0.729,0.648l-1.134,1.539l-0.527,0.445l-2.349,1.377l-1.256,0.972l-0.81,0.486l-0.81,0.203l-0.486,0.243l-0.081,0.648v0.851
	l-0.121,0.891l-0.405,0.648l-0.608,0.689l-0.284,0.85l0.486,1.013l-3.524,3.483l0.081,3.2l-0.567,0.567l-1.742-0.851l-0.527,0.648
	l-0.284,0.77l0.04,0.851l0.365,0.891l-0.851-0.243l-1.782-1.296l-2.471-0.729l-0.567-0.324l-0.486-1.499l0.243-3.929l-0.243-1.539
	l0.365-0.972l-0.081-1.215l-0.405-1.053l-0.729-0.526l-0.689,0.202l-0.729,0.648l-0.527,0.851l-0.203,0.729l0.243,1.094l0.405,0.932
	l0.04,0.648l-1.985,0.689l0.243,0.932l1.458,1.823l-2.471,1.418l-0.932,0.851l0.972,0.405l0.202,0.162v0.77l-0.202,0.162
	l-0.405-0.081l-0.608-0.365l-0.284-0.081l-0.851,0.121l-0.162,0.365l-0.04,0.567l-0.324,0.77l-0.486,0.365l-1.904,0.486
	l-0.729,0.567l-0.243,0.526l-1.539,5.225l-0.162,0.77v0.891l-1.539-0.324l-2.957,0.972l-0.729-0.162l-0.122-0.891l0.608-1.904
	l-0.122-0.851l-0.567-0.526l-0.81-0.162l-1.661,0.081v-0.486l0.446-0.729l0.121-1.215l0.486,0.04l0.284-0.203l0.932-1.661
	l0.162-0.77l-0.243-0.81l-0.324-0.243l-0.486-0.162l-0.932-0.121l-0.689-0.203l-0.121-0.405l0.365-0.486v-1.013l0.243-0.972
	l-0.121-0.486l-1.013,0.324l0.284-1.863l1.256-0.932l1.742-0.365h1.58l-0.284-0.608l-0.405-0.486l-0.486-0.324l-0.608-0.203
	l1.013-0.689l0.608-0.851l0.041-0.729l-0.81-0.446l-0.284,0.122l-0.567,0.729l-0.405,0.284h-0.527l-0.851-0.527h-0.405l-0.405,0.324
	l-0.284,0.567l-0.203,0.689l-0.567,0.122l-1.175-0.122l-1.377,0.04l-0.729,0.121l-0.972,0.365l-0.121-1.215l-0.527-0.729
	l-1.539-0.77l0.041-0.243l-0.324-0.608l-0.405-0.405l-0.365,0.81l-0.446,0.284l-0.527,0.081l-0.405-0.162l-1.337-1.256l-0.162-0.081
	l-0.202-0.77l0.365-0.365l0.243-0.405l0.243,0.365h0.648l0.446-0.365l-0.243-0.81l-1.701-0.85l-1.337-0.972l-0.121-2.228
	l0.567-2.511l0.648-1.742l0.081-0.608l-0.041-0.689l0.081-0.608l0.527-0.284l0.972,0.203l0.365,0.243l0.446,0.932l1.944,2.957
	l-0.608,0.81l-0.203,0.77l0.121,0.81l0.203,0.85l1.337,3.726l0.81,0.486l3.159,0.527l1.377,0.932l0.729-0.081l0.527-1.337
	l-0.729,0.121l-0.365-0.202l-1.337-0.284l-0.608-0.972l-0.81-0.81l0.203-1.823l-0.851,0.162l-0.405,1.094l-0.648,0.081l-0.405-1.458
	l-0.203-1.944l0.486-1.134l-0.365-1.337l1.742-0.162l2.673,0.567l0.365,0.608l-0.162,1.013v0.648l0.121,0.445l0.689,0.446
	l0.365,0.526l0.851,0.527l1.134,0.486l0.729,0.648l1.539,1.094l0.284-0.324l-1.337-1.782l0.81-0.162l2.714,1.499l1.823,0.608
	l1.377-0.365l-1.377-0.202l-1.094-0.729l-1.904-1.661l0.446-0.608l-1.377-1.013l-2.106-2.673l-1.175-0.567l-1.58-0.324l-1.904,0.121
	l-1.296-0.851l-1.62,0.446l-1.458-0.486l-0.203-0.729l0.891-1.175l0.932-0.365l1.904,0.284l2.43-1.053l2.916,2.147l1.013-0.202
	l0.567,0.486l0.284,0.121l-0.284-1.499l0.122-1.377l0.77-1.013l1.58-0.405l2.957,0.891l1.499,0.121l-0.486-1.013l1.013-0.486
	l0.527-0.121l0.648,0.04l-0.932-1.094l-1.458-0.284l-3.321,0.324l0.243-0.77l-0.243-1.053v-0.81l0.243-0.527l0.608-0.851v-0.81
	l-0.486-1.175l-0.891-0.243l-0.972,0.446l-0.689,0.972l-0.081,0.648l0.446,1.296l0.081,0.729l-0.121,0.122l-0.77,1.539l-0.729,2.633
	l-0.648,0.932l-1.256,0.122v-0.203l-0.405-0.284l0.243-0.446l0.365-0.81l0.243-0.405l-0.851-0.445l-0.608,0.243l-0.567,0.527
	l-0.851,0.243l-1.701-0.365l-0.527,0.243l-0.121,0.81h-0.851l-1.418,0.446l-0.648-0.365l-0.243-0.81l0.486-0.77l1.296-1.296
	l0.486-0.729l0.243-0.567l0.162-1.134l-0.202-1.175l0.243-0.567l0.81-0.729l-0.77-0.648l-0.729-1.296l-0.365-1.539l0.121-1.296
	l0.891-0.81l1.215-0.85l0.365-0.689l-1.58-0.365l-0.729,0.121l-0.77,0.77l-1.134,0.486l0.121,0.77l0.284,0.891l0.041,0.729
	l-0.891,0.851l-1.175,0.081l-1.134-0.365l-0.77-0.567l0.851-0.527l-0.567-0.405l-0.486-0.486l-0.365-0.567l-0.324-0.729l0.729-0.365
	l0.729,0.04l1.58,0.324l-0.162-1.661l1.782-1.782l-0.486-1.661l-1.823-2.511l-1.134-1.053l-1.215-0.405l0.486,1.742l-0.446,1.013
	l-0.891,0.04l-0.891-1.215l0.567-0.81l-1.62-2.187l-0.243-1.296l0.932-1.094l1.296-0.162l1.175,0.567l0.527,1.256l0.81-0.527
	l0.446-0.891l0.527-1.782l0.446,0.891l0.081,0.729l-0.162,1.458l-0.324,0.729l-0.041,0.445l0.121,0.486l0.527-0.121l0.203,0.121
	l0.324,1.499l0.243,0.243l0.77,0.445l0.608,0.243l1.094,0.04l0.486,0.284l-0.365,0.891l0.081,0.851l0.446,0.81l0.689,0.689
	l1.62-3.645l0.162-1.256v-1.418l-0.324-0.486l-1.215-0.324l-0.486-0.284l-0.446-0.405l-0.648-1.782l-2.106-2.471l-0.486-1.094
	l0.121-0.405l0.608-0.729l0.162-0.729l-0.689-0.486l-0.324-0.648l0.121-1.053l-0.81,0.324l-0.851,0.121l-1.823,0.04l0.689-0.891
	l1.175-0.284l1.337-0.081l1.175-0.284l-0.405-0.121l-0.405-0.365l-0.527-0.081l0.324-0.729l1.215-1.175l0.203-0.608l-0.405-1.539
	l0.203-1.215l0.567-1.215l1.418-2.147l0.365,0.365l0.932,1.215l1.134,0.365l0.567-0.04l-0.162-0.567l-1.215-1.418l1.337-0.405
	l6.237-1.742l1.823,0.486l-0.365,2.876l-0.405,2.106l-0.081,2.147l1.58,0.527l1.904-0.486l2.066-0.729l2.147-0.324l0.851-0.648
	l0.932-0.567l1.094-0.284l1.053-0.527l0.851-0.729l0.527-1.134l-0.121-0.81l-0.041-0.81l0.81-0.608l0.567-0.891l-0.041-1.053V260
	l1.62-1.418l2.147,0.202l1.094-1.256l1.134,0.081l1.134,0.445l1.944,1.62l3.038,4.091l1.944-0.04l0.162-1.094l0.405-1.053
	l0.648-0.608l0.446-0.81l1.904-0.122l1.296,1.985l-0.567,2.268l0.365,1.458l1.337,1.499l-0.081,2.592l1.539,1.62l2.39,0.365
	l1.823-1.094l1.944-0.324h1.337l1.094-0.284l0.972,0.77l1.094,0.648l2.39,0.04l2.309-0.324h2.147l1.985-0.284l1.863-2.025
	l2.349-1.296l4.091,1.499L198.771,272.11L198.771,272.11z M154.989,273.811l-1.782,0.527l-1.661,0.405l-2.309-0.608l-1.377,1.296
	l1.742,3.848l3.483,2.106l3.969,0.648l2.511-3.362l-1.296-3.605L154.989,273.811L154.989,273.811z"/>
<path id="KOR2507" fill="#B4D3D6" stroke="#FFFFFF" stroke-linecap="round" stroke-linejoin="round" d="M293.584,289.202
	l-0.526,0.648l-0.405-0.324l-0.445-0.567l-1.215-0.689l-0.608-0.689l0.04-0.972l0.486-0.486l0.648,0.04l0.608,0.85l0.567,0.608
	l0.445,0.243l-0.405,0.324l-0.081,0.567L293.584,289.202L293.584,289.202z M300.146,280.98l-0.324,0.608l-1.701-0.04l-0.891,0.162
	l-0.689-0.04l-0.689,0.324l-0.77,0.081l-0.04,1.094l0.486,0.77l0.081,0.932l-0.324,1.013l-1.418,0.689l-1.863-1.62l-0.526-0.608
	l-1.701,1.782l-0.77,1.458l-0.243,1.499l-0.486,0.365l-0.324-0.77l-0.77-0.81l0.203,2.309h-0.486l-0.203-0.527l-0.284-0.121
	l-1.256,0.85l-0.445-0.526l-0.527-1.782l0.243-1.58l0.486-2.025l0.081-1.134l0.527-0.972l0.972-1.215l0.932-1.377l0.648-4.658
	l0.932-1.134l1.215-0.891l1.499-0.608l1.62,0.081l1.256,0.81l0.365,1.701l1.134,1.62l1.499,1.175l1.134,1.499l1.296,1.337
	L300.146,280.98L300.146,280.98z"/>
<path id="KOR2508" fill="#B4D3D6" stroke="#FFFFFF" stroke-linecap="round" stroke-linejoin="round" d="M316.792,245.784
	l0.527,0.891l-0.243,1.701l-0.122,2.025l-0.445,3.078l-0.648,1.296l-1.053,1.418l-0.972,0.527l-0.405-1.377l-0.405-1.823
	l-0.81-1.337l-0.891-0.243l-0.527,1.539l0.851,0.202l0.527,0.648l0.243,0.972l0.081,1.134l-0.284,1.053l-0.648,0.243l-0.729,0.081
	l-0.526,0.486l0.081,0.567l0.081,1.458l0.284,1.539l-1.134,1.944l0.527,0.729l0.405,0.446l-0.081,1.053l-1.296,0.445l-1.256,0.729
	l-1.782,1.782l-1.499-0.04l-0.04,0.081l-0.243-0.243l-1.823-0.648l-1.418-1.377l-0.405-2.187l-1.499-1.134l-3.281-1.823
	l-2.754-3.159l-1.661-1.296l-3.969-0.608l-0.972-1.944l1.62-3.24l-0.284-3.119l1.539-1.256l1.661-0.972h0.972l0.405-0.81
	l-0.608-1.013l-0.324-1.094l2.147-1.661l2.714-0.972l2.228-0.324l2.147,0.446l2.268,0.972l0.567,0.972l0.04,1.175l0.162,1.053
	l0.81,0.567l1.053,0.284l5.994-1.053l5.063,1.215h0.04V245.784z"/>
<path id="KOR2509" fill="#B4D3D6" stroke="#FFFFFF" stroke-linecap="round" stroke-linejoin="round" d="M314.483,165.916
	l0.324,3.281l0.891,3.281l0.324,3.281l-0.365,6.804l-0.405,1.458l-1.985,2.43l-0.77,1.337l-0.324,1.58l-0.284,9.599l0.203,1.296
	l0.405,0.729l0.405,0.284l0.365,0.405l0.365,2.714l0.486,2.066l0.526,0.365l0.324,0.446l-0.243,1.256l-0.527,0.689l-0.648,0.324
	l-0.648,0.202l-1.053,0.891l-0.081,1.094l1.377,1.256l0.972,1.094l1.013,1.256l1.296,0.203l1.661-1.296l4.05-4.455l0.81-1.337
	L324,209.3l0.243,1.377l0.445,1.418l0.324,1.58l-1.013,1.58l-2.309,4.577l-0.162,2.066l-0.689,5.427l-1.661,4.698l0.081,2.957
	l-1.701,5.103l-1.256,2.471l-0.527,1.256l0.527,1.377l0.486,0.608h-0.04l-5.063-1.215l-5.994,1.053l-1.053-0.284l-0.81-0.567
	l-0.162-1.053l-0.04-1.175l-0.567-0.972l-2.268-0.972l-2.147-0.445l-2.228,0.324l-2.714,0.972l-2.147,1.661l0.324,1.094l0.608,1.013
	l-0.405,0.81h-0.972l-1.661,0.972l-1.539,1.256l-1.782,0.608l-1.904-0.891l-2.471-0.608l-2.309,0.932l-0.729,0.972l-0.891,0.77
	l-0.932,0.121l-0.891,0.324l-2.106,1.661l-2.39-0.081l-1.985-1.053l-2.106-0.648l-2.39,0.445l-2.349,0.243l-1.985-1.256l-1.62-1.985
	l-0.526-4.374l-1.499,1.175l-1.58,2.268l-1.742-0.365l-3.443,1.742l-1.823-0.365l-1.62-1.215l-1.742-0.851l-1.863-0.284
	l-1.904,0.243l-3.969-0.162l-1.013-3.645l0.77-1.782l0.04-1.863l-0.851-1.013l-0.972-0.608l-0.243-0.689l-0.365-0.729l-1.418-1.013
	l-0.851-1.62l-1.215-1.337l-1.661-0.527h-1.823l-1.823-0.162l-1.053-0.689l-0.81-0.689l-1.944-0.162l-1.053-0.405l-0.243-0.648
	l-0.081-0.648l-1.175-0.932l-1.296-0.77l-0.527-1.742l0.324-5.063l-2.633-4.496l1.539-0.729l1.62-0.567l0.972-1.944l0.567-2.025
	l0.486-0.891l0.608-0.729l0.162-1.337l-0.04-1.053l-0.365-2.147l1.58-1.337l1.539,0.284l1.337,0.081l-0.729-4.131l-1.418-1.094
	l-3.281,0.81l-1.256-0.608l-1.823-1.499l-1.539-0.527l-2.592,0.608l-0.365-3.767l1.418-1.256l0.932-1.823l-0.729-1.256l-0.405-1.377
	l0.405-1.904l0.243-4.334l0.648-1.823l1.134-1.134l-3.119-4.577l-2.511-0.446l-0.729-1.823l0.972-0.446l0.932-0.162l0.932-1.013
	l1.418-1.944l0.365-0.81l-0.04-0.729l0.162-0.972l1.985-1.337l2.268-1.053l1.377-2.106l2.43,1.094l4.577,0.689l-0.932-1.782
	l-1.256-1.58l0.446-1.661l0.81-1.742l0.77-1.296l1.013,0.648l1.296-0.081l1.053-1.418l1.094-0.729l1.013,0.689l1.985,0.689
	l1.863,0.162l0.445-1.337l0.324-1.256l0.648-1.053l0.851-0.81l0.81,0.932l1.094,0.77l1.499,1.296l0.972,1.944l2.268,0.729
	l5.387-2.228l0.932-3.159l-0.851-0.77l-0.446-0.81l0.81-1.499l0.689-1.499l1.377-2.025l1.985-1.418l0.567-1.013l0.81-0.648
	l1.296-0.446l1.094-1.013l1.62-1.377l1.499-1.58l0.608-0.365l0.77,0.284l0.851-0.527l0.77-0.891l1.661,0.891l1.58,0.648l1.904,0.446
	l1.661,0.122l0.365-1.701l0.203-1.823l-0.405-1.985l1.134-1.418l1.742-0.851l1.782,0.162l0.891,1.58l1.215,0.284l1.134,0.567
	l-0.162,1.377l0.162,1.418l1.904-0.77l1.823-1.418l0.77,0.324l0.567,0.729l0.689,0.081l0.851-0.324l2.511,0.405l2.349,1.094
	l1.701-0.446l1.742-0.891l2.187,0.486l1.985,1.215l0.648,1.863l-1.539,1.134l-1.863-0.729l-1.215,0.446l-1.094,0.81l-0.445,1.985
	l0.284,2.633l1.337,1.985l2.106,1.013l0.446,1.701l0.608,1.458l1.499,0.648l1.377,0.77l4.698,0.365l-0.284,1.823l0.567,0.527
	l0.486,0.608l-0.689,1.985l-0.851,2.147l0.162,2.228l0.567,1.985l0.202,1.782l-0.689,1.904l4.415,1.661l2.066-0.932l2.147,0.486
	L314.483,165.916L314.483,165.916z M271.795,225.939l0.365-1.256l-0.04-1.337l-0.121-1.256l-0.689-0.567l-0.526-0.81l-0.04-1.985
	l0.324-0.527l0.04-0.648l-0.81-1.418l-2.592-1.863l-3.362,0.203l-4.091,0.567l-2.997,2.511l0.405,3.605l-1.134,1.215l-0.689,1.539
	l0.608,0.122l0.567,0.202l-0.121,0.77l-0.243,0.77l-1.053,0.162h-0.972l-0.851,1.256l0.365,1.458l1.013,0.365l0.932,0.932
	l0.729,1.458l1.134,0.932l0.81,0.527l0.567,0.486l0.527-0.405l0.891-1.62l0.932-0.729l2.066,0.202l3.686,0.972l1.458-0.851
	l0.162-0.77v-0.486l0.608-1.58l0.081-0.689v-0.527l0.608-0.04l0.446,0.162L271.795,225.939L271.795,225.939z M355.941,118.612
	l-1.215,0.648l-1.62-0.324l-1.58-0.972l-1.053-1.256l-0.365-1.661l0.567-1.215l1.134-0.77l2.268-0.405l1.539-0.567l0.77-0.162
	l1.094,0.851l-0.081,2.025l-0.689,2.309L355.941,118.612L355.941,118.612z"/>
<path id="KOR2510" fill="#B4D3D6" stroke="#FFFFFF" stroke-linecap="round" stroke-linejoin="round" d="M157.062,390.079
	l0.698,1.086l0.931,0.698l2.947,1.202l0.892,0.892l0.62,2.21l0.582,0.853l0.698-0.659l0.155-0.31l0.465,0.969l-0.31,0.31
	l-0.582,0.194l-0.427,0.504l0.039,0.427l0.388,0.698v0.388l-0.194,0.388l-0.659,0.892l-1.086,1.318l-2.094,1.667l-0.659,1.357
	l-0.892,1.629l-0.078,0.659l-0.388,0.969l-1.512,0.155l-0.582,0.31l-1.629-0.116l-2.326,1.861l-6.204,1.124l-2.094,1.784
	l-2.52,0.543l-2.753-0.271l-3.102,0.582l-2.559-0.776l-5.855,0.078l-1.822,0.853l-1.047,1.939l-1.008,0.194l-0.969-0.465
	l-1.396-2.288l-1.861-0.62l-1.822-1.9l-0.62-2.288l1.086-3.024l1.047-1.822l0.62-0.659l2.133-1.28l1.822-3.18l1.667-0.427
	l0.775-1.667l2.869-1.008l6.282-1.784l1.551-1.357l5.971-0.62l4.071-1.784l1.008,0.271l4.924-0.775l2.908-0.271L157.062,390.079
	L157.062,390.079z"/>
<path id="KOR5129" fill="#B4D3D6" stroke="#FFFFFF" stroke-linecap="round" stroke-linejoin="round" d="M174.997,163.567
	l-1.256,2.714l0.122,1.337l-0.81,2.309l-0.284,2.471l4.739-0.972l4.86,0.324l-0.04,0.851l-0.324,0.77l-0.122,0.608l0.203,0.486
	l0.121,0.81l-0.121,0.851l-0.284,0.77l-1.458-0.122l-7.088,1.944l-4.374,1.215l-5.832-1.175l0.567-1.661l0.972-0.932l-0.202-12.11
	l1.499-4.131L174.997,163.567L174.997,163.567z"/>
<circle id="_x30_" fill="#B4D3D6" stroke="#FFFFFF" stroke-linecap="round" stroke-linejoin="round" cx="160.862" cy="132.3" r="0"/>
<circle id="_x31_" fill="#B4D3D6" stroke="#FFFFFF" stroke-linecap="round" stroke-linejoin="round" cx="187.917" cy="133.799" r="0"/>
<circle id="_x32_" fill="#B4D3D6" stroke="#FFFFFF" stroke-linecap="round" stroke-linejoin="round" cx="212.218" cy="239.588" r="0"/>
<g>
	<g>
		
			<line fill="none" stroke="#7C7C7C" stroke-width="0.5" stroke-linecap="round" stroke-linejoin="round" x1="128.833" y1="378" x2="129.833" y2="378"/>
		
			<line fill="none" stroke="#7C7C7C" stroke-width="0.5" stroke-linecap="round" stroke-linejoin="round" stroke-dasharray="1.9733,1.9733" x1="131.807" y1="378" x2="178.18" y2="378"/>
		<polyline fill="none" stroke="#7C7C7C" stroke-width="0.5" stroke-linecap="round" stroke-linejoin="round" points="179.167,378 
			180.167,378 180.167,379 		"/>
		
			<line fill="none" stroke="#7C7C7C" stroke-width="0.5" stroke-linecap="round" stroke-linejoin="round" stroke-dasharray="1.9298,1.9298" x1="180.167" y1="380.93" x2="180.167" y2="414.702"/>
		
			<line fill="none" stroke="#7C7C7C" stroke-width="0.5" stroke-linecap="round" stroke-linejoin="round" x1="180.167" y1="415.667" x2="180.167" y2="416.667"/>
	</g>
</g>
<g>
	<g>
		
			<line fill="none" stroke="#7C7C7C" stroke-width="0.5" stroke-linecap="round" stroke-linejoin="round" stroke-dasharray="1.9733,1.9733" x1="343.377" y1="95.253" x2="343.377" y2="96.253"/>
		
			<line fill="none" stroke="#7C7C7C" stroke-width="0.5" stroke-linecap="round" stroke-linejoin="round" stroke-dasharray="1.9733,1.9733" x1="343.377" y1="98.295" x2="343.377" y2="121.782"/>
		
			<polyline fill="none" stroke="#7C7C7C" stroke-width="0.5" stroke-linecap="round" stroke-linejoin="round" stroke-dasharray="1.9733,1.9733" points="
			343.377,122.803 343.377,123.803 344.377,123.803 		"/>
		
			<line fill="none" stroke="#7C7C7C" stroke-width="0.5" stroke-linecap="round" stroke-linejoin="round" stroke-dasharray="1.9733,1.9733" x1="346.221" y1="123.803" x2="363.738" y2="123.803"/>
		
			<line fill="none" stroke="#7C7C7C" stroke-width="0.5" stroke-linecap="round" stroke-linejoin="round" stroke-dasharray="1.9733,1.9733" x1="364.66" y1="123.803" x2="365.66" y2="123.803"/>
	</g>
</g>
<line fill="none" stroke="#7C7C7C" stroke-linecap="round" stroke-linejoin="round" stroke-dasharray="3,3" x1="129.019" y1="346.031" x2="41.025" y2="434.025"/>
<line fill="none" stroke="#7C7C7C" stroke-linecap="round" stroke-linejoin="round" stroke-dasharray="3,3" x1="304.36" y1="268.788" x2="425.786" y2="390.214"/>
</svg>
