<?xml version="1.0" encoding="utf-8"?>
<!-- Generator: Adobe Illustrator 17.0.0, SVG Export Plug-In . SVG Version: 6.00 Build 0)  -->
<!DOCTYPE svg PUBLIC "-//W3C//DTD SVG 1.1//EN" "http://www.w3.org/Graphics/SVG/1.1/DTD/svg11.dtd">
<svg version="1.1" id="레이어_1" xmlns="http://www.w3.org/2000/svg" xmlns:xlink="http://www.w3.org/1999/xlink" x="0px"
	 y="0px" width="36px" height="31.75px" viewBox="0 0 36 31.75" enable-background="new 0 0 36 31.75" xml:space="preserve">
<g>
	<g>
		<path fill="none" stroke="#FFFFFF" stroke-width="1.5" stroke-miterlimit="10" d="M33.225,19.306c0-0.796-0.321-1.576-0.743-1.976
			c0.255-0.19,0.487-0.425,0.689-0.701c0.609-0.832,0.806-1.652,0.526-2.537c-0.375-1.185-1.564-1.786-3.534-1.786h-7.333
			c0.204-0.922,0.438-2.61,0.438-5.512c0-3.155-1.932-4.248-3.737-4.248c-2.016,0-2.191,2.095-2.393,3.626
			c-0.417,3.156-1.713,6.018-3.432,8.67c-0.136,0.21-0.78,0.873-0.78,1.12c0-0.595-0.599-1.341-1.619-1.341H3.7
			c-0.944,0-1.709,0.765-1.709,1.709v11.796c0,0.944,0.765,1.709,1.709,1.709h7.607c0.754,0,1.392-0.488,1.619-1.165
			c0.56,0.258,1.17,0.394,1.791,0.394h13.767c2.137,0,3.362-1.085,3.362-2.977c0-0.651-0.242-1.08-0.477-1.344
			c0.683-0.422,1.249-1.061,1.249-1.963c0-0.678-0.253-1.19-0.603-1.565C32.677,20.854,33.225,20.254,33.225,19.306z"/>
		<path fill="none" stroke="#FFFFFF" stroke-width="1.5" stroke-miterlimit="10" d="M7.291,8.247"/>
		<line fill="none" stroke="#FFFFFF" stroke-width="1.5" stroke-miterlimit="10" x1="12.926" y1="15.961" x2="12.926" y2="28.669"/>
	</g>
	
		<line fill="none" stroke="#FFFFFF" stroke-width="1.5" stroke-linecap="round" stroke-miterlimit="10" x1="7.664" y1="27.085" x2="10.524" y2="27.085"/>
</g>
</svg>
