<?xml version="1.0" encoding="utf-8"?>
<!-- Generator: Adobe Illustrator 17.0.0, SVG Export Plug-In . SVG Version: 6.00 Build 0)  -->
<!DOCTYPE svg PUBLIC "-//W3C//DTD SVG 1.1//EN" "http://www.w3.org/Graphics/SVG/1.1/DTD/svg11.dtd">
<svg version="1.1" id="레이어_1" xmlns="http://www.w3.org/2000/svg" xmlns:xlink="http://www.w3.org/1999/xlink" x="0px"
	 y="0px" width="40.25px" height="35.75px" viewBox="0 0 40.25 35.75" enable-background="new 0 0 40.25 35.75"
	 xml:space="preserve">
<g>
	<polyline fill="none" stroke="#FFFFFF" stroke-width="1.5" stroke-linejoin="round" stroke-miterlimit="10" points="24.616,20.227 
		30.786,20.227 37.727,31.024 37.727,33.338 2.25,33.338 2.25,31.024 8.42,20.227 15.361,20.227 	"/>
	<path fill="none" stroke="#FFFFFF" stroke-width="1.5" stroke-miterlimit="10" d="M19.984,7.887c0.002,0,0.003,0,0.005,0
		c0.002,0,0.003,0,0.005,0c1.699,0,3.077,1.29,3.08,3.081c0.003,1.79-1.373,3.089-3.071,3.089c-0.005,0-0.009,0-0.014,0
		s-0.009,0-0.014,0c-1.699,0-3.074-1.299-3.071-3.089C16.906,9.177,18.285,7.887,19.984,7.887z"/>
	<path fill="none" stroke="#FFFFFF" stroke-width="1.5" stroke-miterlimit="10" d="M19.989,2.449c4.655,0,8.428,3.773,8.428,8.428
		c0.003,2.014-0.296,3.409-1.44,5.239c-1.144,1.83-6.987,10.32-6.987,10.32s-5.844-8.49-6.987-10.32
		c-1.144-1.83-1.443-3.226-1.44-5.239C11.561,6.222,15.334,2.449,19.989,2.449z"/>
</g>
</svg>
