<?xml version="1.0" encoding="utf-8"?>
<!-- Generator: Adobe Illustrator 17.0.0, SVG Export Plug-In . SVG Version: 6.00 Build 0)  -->
<!DOCTYPE svg PUBLIC "-//W3C//DTD SVG 1.1//EN" "http://www.w3.org/Graphics/SVG/1.1/DTD/svg11.dtd">
<svg version="1.1" id="레이어_1" xmlns="http://www.w3.org/2000/svg" xmlns:xlink="http://www.w3.org/1999/xlink" x="0px"
	 y="0px" width="186.667px" height="58.333px" viewBox="0 0 186.667 58.333" enable-background="new 0 0 186.667 58.333"
	 xml:space="preserve">
<g>
	<path fill="#FFFFFF" d="M57.693,29.212c0,15.658-12.691,28.349-28.347,28.349C13.684,57.561,1,44.87,1,29.212
		C1,13.552,13.684,0.861,29.346,0.861C45.002,0.861,57.693,13.552,57.693,29.212"/>
	<path fill="#003964" d="M42.677,27.239c-4.51-3.068-10.291-1.813-13.325,2.79c-2.516,3.847-6.344,4.334-7.822,4.334
		c-4.822,0-8.134-3.399-9.097-6.908c-0.012-0.033-0.016-0.066-0.035-0.101c-0.005-0.035-0.009-0.073-0.026-0.115
		c-0.39-1.466-0.479-2.17-0.479-3.723c0-8.393,8.609-17.739,21.02-17.739c12.693,0,19.977,9.668,21.835,15.038
		c-0.028-0.087-0.061-0.183-0.089-0.282C51.05,10.022,41.084,2.468,29.346,2.468c-14.77,0-26.742,11.975-26.742,26.747
		c0,13.201,9.52,24.511,22.733,24.511c10.539,0,17.624-5.917,20.863-14.056C47.99,35.218,46.724,29.989,42.677,27.239"/>
	<path fill="#ED1A3B" d="M54.914,21.343C53.35,16.098,46.024,5.775,32.912,5.775c-12.412,0-21.02,9.346-21.02,17.739
		c0,1.553,0.089,2.26,0.479,3.723c-0.162-0.644-0.251-1.287-0.251-1.905c0-8.745,8.759-14.803,17.758-14.803
		c12.174,0,22.056,9.875,22.056,22.049c0,9.551-5.499,17.816-13.483,21.791c10.295-3.725,17.645-13.577,17.645-25.157
		C56.096,26.471,55.727,24.058,54.914,21.343"/>
</g>
<g>
	<path fill="#FFFFFF" d="M80.764,44.134v-3.096h-8.429v-2.333h19.524v2.333h-8.453v3.096h6.881v7.405h-2.643v-5.096H73.668v-2.31
		h7.096V44.134z M90.24,30.681v6.334h-2.643v-4H73.859v-2.334H90.24z"/>
	<path fill="#FFFFFF" d="M95.36,41.777V30.872h10.929v10.904L95.36,41.777L95.36,41.777z M95.979,51.063v-7.096h2.619v4.763h14.786
		v2.333H95.979z M103.693,33.158h-5.714v6.357h5.714V33.158z M110.551,43.849V30.253h2.643v13.596H110.551z"/>
	<path fill="#FFFFFF" d="M125.242,47.586v-6.095h2.643v6.095h8.453v2.334h-19.524v-2.334H125.242z M126.575,34.634l-7.071,8.857
		l-2.048-1.548l9.119-11.381l9.12,11.381l-2.048,1.548L126.575,34.634z"/>
	<path fill="#FFFFFF" d="M140.623,39.086v-8.619h16.357v2.143h-13.738v1.119h13.643v2.072h-13.643v1.19h13.81v2.095h-6.929v1.357
		h8.453v2.167h-19.524v-2.167h8.429v-1.357H140.623z M154.004,47.753c0,0.635-0.131,1.234-0.393,1.798
		c-0.262,0.563-0.623,1.06-1.083,1.488c-0.492,0.429-1.051,0.77-1.678,1.023c-0.627,0.254-1.306,0.381-2.036,0.381
		c-0.714,0-1.389-0.127-2.023-0.381c-0.635-0.254-1.191-0.595-1.667-1.023s-0.845-0.925-1.107-1.488s-0.393-1.163-0.393-1.798
		c0-0.65,0.131-1.254,0.393-1.81c0.262-0.556,0.631-1.056,1.107-1.5c0.476-0.429,1.032-0.766,1.667-1.012
		c0.634-0.246,1.31-0.369,2.023-0.369c0.73,0,1.409,0.123,2.036,0.369s1.186,0.583,1.678,1.012c0.46,0.444,0.822,0.944,1.083,1.5
		C153.874,46.499,154.004,47.103,154.004,47.753z M151.385,47.73c0-0.698-0.254-1.294-0.762-1.786s-1.111-0.738-1.81-0.738
		c-0.698,0-1.306,0.246-1.821,0.738c-0.516,0.492-0.774,1.088-0.774,1.786s0.258,1.298,0.774,1.798s1.123,0.75,1.821,0.75
		c0.699,0,1.302-0.25,1.81-0.75S151.385,48.428,151.385,47.73z"/>
	<path fill="#FFFFFF" d="M167.671,30.134l6.69,8.429l-1.905,1.523l-4.786-6.143l-4.762,6.31l-1.952-1.524L167.671,30.134z
		 M163.218,41.325h16.691v5.81h-14.048v1.786h14.286v2.143h-16.929V45.16h14.048v-1.763h-14.048L163.218,41.325L163.218,41.325z
		 M177.267,30.253h2.643v10.071h-2.643V30.253z"/>
</g>
<g>
	<path fill="#FFFFFF" d="M86.495,15.717v1.713H80.36v2.413h-1.94V17.43h-6.258v-1.713H86.495z M73.315,14.127V8.131h12.026v5.996
		C85.341,14.127,73.315,14.127,73.315,14.127z M75.255,18.671v2.885h10.278v1.713H73.315v-4.598H75.255z M83.418,9.809H75.22v2.657
		h8.198V9.809z"/>
	<path fill="#FFFFFF" d="M97.122,14.931c0,0.478-0.099,0.933-0.297,1.363c-0.198,0.432-0.472,0.811-0.821,1.136
		c-0.338,0.315-0.74,0.565-1.206,0.752c-0.164,0.059-0.338,0.111-0.524,0.157v1.976h4.09v1.695H88.242v-1.695h4.108v-1.976
		c-0.198-0.046-0.373-0.099-0.524-0.157c-0.466-0.187-0.874-0.437-1.224-0.752c-0.35-0.325-0.621-0.704-0.813-1.136
		c-0.192-0.431-0.288-0.886-0.288-1.363s0.096-0.93,0.288-1.354c0.192-0.426,0.463-0.802,0.813-1.128s0.757-0.576,1.224-0.751
		c0.466-0.175,0.961-0.263,1.486-0.263s1.02,0.088,1.486,0.263s0.868,0.425,1.206,0.751c0.35,0.326,0.623,0.702,0.821,1.128
		C97.023,14.001,97.122,14.453,97.122,14.931z M92.245,9.494v-1.66h2.098v1.66h3.67v1.661h-9.456V9.494H92.245z M95.234,14.931
		c0-0.513-0.187-0.953-0.56-1.319c-0.373-0.367-0.828-0.551-1.363-0.551c-0.536,0-0.991,0.184-1.364,0.551
		c-0.373,0.366-0.559,0.807-0.559,1.319s0.186,0.955,0.559,1.328s0.828,0.56,1.364,0.56c0.536,0,0.99-0.187,1.363-0.56
		C95.047,15.886,95.234,15.444,95.234,14.931z M101.492,23.531h-1.94V7.939h1.94v6.555h1.993v1.818h-1.993
		C101.492,16.312,101.492,23.531,101.492,23.531z"/>
	<path fill="#FFFFFF" d="M104.446,11.243v-1.66h3.076V7.921h2.045v1.661h2.954v1.66h-3.374l3.583,9.648l-1.661,0.647l-2.535-6.957
		l-2.5,7.079l-1.713-0.629l3.583-9.789h-3.458V11.243z M113.833,7.956h1.818v15.487h-1.818V15.7h-2.098v-1.747h2.098V7.956z
		 M116.944,7.939h1.853v15.592h-1.853V7.939z"/>
	<path fill="#FFFFFF" d="M135.472,15.525v1.696h-3.199v1.468h2.045v4.877h-1.94v-3.182h-10.261v-1.695h2.22v-1.468h-3.199v-1.696
		C121.138,15.525,135.472,15.525,135.472,15.525z M132.396,11.225c0,0.524-0.108,1.018-0.323,1.478
		c-0.216,0.46-0.51,0.865-0.883,1.215s-0.807,0.623-1.302,0.821s-1.022,0.297-1.582,0.297c-0.56,0-1.087-0.099-1.582-0.297
		c-0.496-0.198-0.93-0.472-1.302-0.821c-0.373-0.35-0.67-0.755-0.892-1.215s-0.332-0.953-0.332-1.478s0.111-1.017,0.332-1.477
		s0.519-0.859,0.892-1.197c0.373-0.35,0.807-0.627,1.302-0.83c0.495-0.204,1.022-0.307,1.582-0.307c0.559,0,1.086,0.103,1.582,0.307
		c0.495,0.203,0.929,0.48,1.302,0.83c0.373,0.338,0.667,0.737,0.883,1.197C132.288,10.208,132.396,10.701,132.396,11.225z
		 M130.473,11.225c0-0.594-0.213-1.095-0.638-1.503s-0.935-0.611-1.529-0.611c-0.594,0-1.104,0.203-1.53,0.611
		s-0.638,0.909-0.638,1.503c0,0.606,0.212,1.113,0.638,1.521c0.425,0.407,0.936,0.611,1.53,0.611c0.594,0,1.104-0.204,1.529-0.611
		C130.26,12.338,130.473,11.831,130.473,11.225z M130.368,18.689v-1.468h-4.125v1.468H130.368z"/>
	<path fill="#FFFFFF" d="M147.34,15.577v1.695h-10.12v-1.695h3.164v-3.479h1.923v3.479H147.34z M144.561,14.092V9.95h-6.642V8.253
		h8.547v5.839C146.466,14.092,144.561,14.092,144.561,14.092z M138.321,23.269v-4.685h1.94v2.972h10.488v1.713H138.321z
		 M150.469,18.182h-1.94V7.939h1.94v4.195h1.993V13.9h-1.993V18.182z"/>
	<path fill="#FFFFFF" d="M163.667,14.581v1.66h-10.121v-1.66h3.164v-2.85h1.923v2.85C158.633,14.581,163.667,14.581,163.667,14.581z
		 M160.887,13.253V9.897h-6.642v-1.66h8.547v5.017h-1.905V13.253z M165.52,20.525c0,0.501-0.108,0.979-0.323,1.433
		c-0.216,0.455-0.504,0.845-0.865,1.172c-0.35,0.337-0.767,0.605-1.25,0.804s-1,0.297-1.547,0.297c-0.548,0-1.063-0.099-1.547-0.297
		s-0.906-0.467-1.267-0.804c-0.361-0.327-0.65-0.717-0.865-1.172c-0.216-0.454-0.324-0.932-0.324-1.433s0.108-0.979,0.324-1.434
		c0.215-0.455,0.504-0.851,0.865-1.188c0.361-0.326,0.783-0.589,1.267-0.787c0.483-0.197,0.999-0.297,1.547-0.297
		c0.547,0,1.063,0.1,1.547,0.297c0.483,0.198,0.9,0.461,1.25,0.787c0.361,0.338,0.649,0.733,0.865,1.188
		C165.412,19.545,165.52,20.024,165.52,20.525z M163.579,20.525c0-0.56-0.201-1.04-0.603-1.442s-0.882-0.604-1.442-0.604
		s-1.043,0.201-1.451,0.604c-0.408,0.402-0.612,0.883-0.612,1.442s0.204,1.04,0.612,1.441c0.408,0.402,0.891,0.604,1.451,0.604
		s1.04-0.201,1.442-0.604C163.378,21.565,163.579,21.083,163.579,20.525z M166.795,16.522h-1.94V7.939h1.94v3.339h1.993v1.748
		h-1.993V16.522z"/>
	<path fill="#FFFFFF" d="M170.116,17.797h14.333v1.713h-6.205v4.021h-1.94V19.51h-6.188V17.797z M173.175,10.176h8.198V8.201h1.923
		V15.7H171.27V8.201h1.905V10.176z M181.373,11.855h-8.198v2.149h8.198V11.855z"/>
</g>
</svg>
