<?xml version="1.0" encoding="utf-8"?>
<!-- Generator: Adobe Illustrator 17.0.0, SVG Export Plug-In . SVG Version: 6.00 Build 0)  -->
<!DOCTYPE svg PUBLIC "-//W3C//DTD SVG 1.1//EN" "http://www.w3.org/Graphics/SVG/1.1/DTD/svg11.dtd">
<svg version="1.1" id="레이어_1" xmlns="http://www.w3.org/2000/svg" xmlns:xlink="http://www.w3.org/1999/xlink" x="0px"
	 y="0px" width="252px" height="155px" viewBox="0 0 252 155" enable-background="new 0 0 252 155" xml:space="preserve">
<rect fill="#E6E6E6" width="252" height="155"/>
<g opacity="0.5">
	<g>
		<path fill="#808285" d="M126,70.376c-5.981,0-10.847,4.866-10.847,10.847c0,5.98,4.866,10.847,10.847,10.847
			c5.98,0,10.847-4.866,10.847-10.847C136.847,75.243,131.98,70.376,126,70.376z"/>
	</g>
	<g>
		<path fill="#808285" d="M104.799,62.012c-3.746,0-6.81,3.065-6.81,6.81v24.125c0,3.746,3.065,6.81,6.81,6.81h42.402
			c3.746,0,6.81-3.065,6.81-6.81V68.822c0-3.746-3.065-6.81-6.81-6.81H104.799z M126,95.785c-8.029,0-14.562-6.532-14.562-14.562
			S117.971,66.662,126,66.662s14.562,6.533,14.562,14.562S134.029,95.785,126,95.785z M142.103,68.519
			c-1.085,0-1.964-0.879-1.964-1.964c0-1.085,0.879-1.964,1.964-1.964s1.964,0.879,1.964,1.964
			C144.067,67.64,143.188,68.519,142.103,68.519z"/>
	</g>
</g>
<path opacity="0.5" fill="#808285" d="M134.046,55.202h-16.092l-2.483,6.81h21.058L134.046,55.202z M131.804,60.723h-11.609v-3.736
	h11.609V60.723z"/>
<g opacity="0.5">
	<path fill="#808285" d="M146.211,61.078c0,0.161-0.131,0.292-0.292,0.292h-7.632c-0.161,0-0.292-0.131-0.292-0.292v-0.816
		c0-0.161,0.131-0.292,0.292-0.292h7.632c0.161,0,0.292,0.131,0.292,0.292V61.078z"/>
</g>
</svg>
