<?xml version="1.0" encoding="utf-8"?>
<!-- Generator: Adobe Illustrator 17.0.0, SVG Export Plug-In . SVG Version: 6.00 Build 0)  -->
<!DOCTYPE svg PUBLIC "-//W3C//DTD SVG 1.1//EN" "http://www.w3.org/Graphics/SVG/1.1/DTD/svg11.dtd">
<svg version="1.1" id="레이어_1" xmlns="http://www.w3.org/2000/svg" xmlns:xlink="http://www.w3.org/1999/xlink" x="0px"
	 y="0px" width="192.5px" height="277.5px" viewBox="0 0 192.5 277.5" enable-background="new 0 0 192.5 277.5"
	 xml:space="preserve">
<path fill-rule="evenodd" clip-rule="evenodd" fill="#F26922" stroke="#FFFFFF" stroke-width="6" stroke-miterlimit="10" d="
	M96.25,2.665c51.588,0,93.397,41.809,93.397,93.397c0,18.847-5.583,36.404-15.184,51.072L96.686,274.835L19.248,148.94
	c-1.791-2.598-3.437-5.276-4.954-8.052l-0.129-0.226h0.016C6.968,127.414,2.853,112.214,2.853,96.061
	C2.853,44.474,44.662,2.665,96.25,2.665L96.25,2.665z M96.25,53.833c23.317,0,42.229,18.912,42.229,42.229
	c0,23.317-18.912,42.229-42.229,42.229s-42.229-18.912-42.229-42.229C54.021,72.744,72.933,53.833,96.25,53.833L96.25,53.833z"/>
</svg>
