<?xml version="1.0" encoding="utf-8"?>
<!-- Generator: Adobe Illustrator 17.0.0, SVG Export Plug-In . SVG Version: 6.00 Build 0)  -->
<!DOCTYPE svg PUBLIC "-//W3C//DTD SVG 1.1//EN" "http://www.w3.org/Graphics/SVG/1.1/DTD/svg11.dtd">
<svg version="1.1" id="Layer_1" xmlns="http://www.w3.org/2000/svg" xmlns:xlink="http://www.w3.org/1999/xlink" x="0px" y="0px"
	 width="220.548px" height="80.822px" viewBox="0 0 220.548 80.822" enable-background="new 0 0 220.548 80.822"
	 xml:space="preserve">
<g>
	<ellipse fill="#777777" cx="174.708" cy="54.612" rx="2.217" ry="2.724"/>
</g>
<g>
	<path fill="#777777" d="M158.733,45.725C132.718,48.98,93.856,52.42,45.948,52.42c-10.561,0-21.565-0.173-32.961-0.545
		L6.563,62.308C0.749,74.624,22.692,74.879,22.692,74.879h128.463c17.21-1.021,25.819-8.724,25.819-8.724l30.769-25.657
		c1.858-1.337,2.7-2.475,2.925-3.41C203.867,38.606,185.801,42.354,158.733,45.725z M33.807,65.508H17.681v-3.846h16.126V65.508z
		 M174.708,57.336c-1.225,0-2.217-1.22-2.217-2.724c0-1.504,0.993-2.724,2.217-2.724s2.217,1.219,2.217,2.724
		C176.926,56.116,175.933,57.336,174.708,57.336z"/>
</g>
<g>
	<path fill="#777777" d="M172.436,27.501c1.027,0.551,2.077,1.182,3.081,2.041c0.499,0.433,0.996,0.914,1.432,1.539
		c0.214,0.317,0.424,0.653,0.585,1.058c0.172,0.388,0.282,0.853,0.33,1.33c0.006,0.243,0.022,0.488-0.016,0.727
		c-0.016,0.119-0.025,0.242-0.05,0.357l-0.086,0.34c-0.015,0.056-0.029,0.113-0.047,0.168l-0.06,0.155l-0.125,0.307
		c-0.091,0.194-0.196,0.368-0.296,0.55c-0.428,0.682-0.943,1.167-1.454,1.599c-0.512,0.439-1.045,0.774-1.573,1.096
		c-0.266,0.148-0.531,0.295-0.794,0.441c-0.266,0.13-0.53,0.259-0.792,0.387c-1.051,0.486-2.083,0.865-3.065,1.196
		c-0.494,0.15-0.97,0.31-1.437,0.436c-0.467,0.122-0.916,0.253-1.35,0.355c-0.434,0.103-0.847,0.214-1.244,0.297
		c-0.126,0.026-0.247,0.05-0.369,0.075c23.407-3.129,39.085-6.382,45.301-7.779c-0.907-1.454-3.303-2.086-3.303-2.086
		c-2.896-1.883-25.05-5.11-41.808-7.332c0.438,0.12,0.898,0.253,1.382,0.407C168.393,25.697,170.377,26.42,172.436,27.501z"/>
</g>
<g>
	<path fill="#777777" d="M176.257,33.642c-0.03-0.423-0.233-0.899-0.54-1.348c-0.309-0.448-0.703-0.873-1.129-1.256
		c-0.428-0.383-0.883-0.739-1.347-1.073c-0.467-0.33-0.945-0.634-1.419-0.93c-0.956-0.576-1.907-1.096-2.822-1.559
		c-0.916-0.463-1.791-0.889-2.605-1.266c-0.817-0.369-1.567-0.71-2.236-1.004c-0.671-0.29-1.256-0.543-1.737-0.752
		c-0.09-0.038-0.175-0.074-0.257-0.11c-9.109-1.189-15.952-2.001-15.952-2.001l-21.95-12.065c-4.95-4.102-6.242-0.251-6.242-0.251
		c-3.659,1.281-8.819,3.077-8.819,3.077c-32.279,5.132-48.844,24.631-48.844,24.631l-17.646,2.562
		c-1.51-4.107-4.74-3.077-4.74-3.077c-32.062,4.622-23.453,8.724-23.453,8.724c1.285,0.77-0.21,2.571-0.21,2.571l-0.283,0.45
		c62.533,1.991,112.995-2.229,144.534-6.167c0.97-0.121,1.928-0.242,2.875-0.364c0.254-0.097,0.589-0.23,1.006-0.379
		c0.489-0.186,1.083-0.415,1.764-0.664c0.677-0.261,1.441-0.556,2.275-0.877c0.83-0.327,1.721-0.703,2.657-1.104
		c0.931-0.415,1.906-0.867,2.88-1.389c0.971-0.523,1.949-1.13,2.801-1.868c0.42-0.369,0.811-0.781,1.082-1.219
		C176.171,34.492,176.283,34.06,176.257,33.642z M68.334,36.958c-5.197,0.554-0.668-2.038-0.668-2.038
		c11.316-10.537,34.159-17.076,41.969-19.075l-0.196,0.225l11.062,14.276L68.334,36.958z M131.342,28.977l-0.373-4
		c0.044-0.001,0.087-0.007,0.131-0.007c1.989,0,3.662,1.494,4.151,3.514L131.342,28.977z M130.168,25.084l0.372,3.994l-3.733,0.471
		C126.869,27.361,128.287,25.544,130.168,25.084z M136.445,28.195c-0.6-2.678-2.768-4.668-5.344-4.668
		c-3.038,0-5.51,2.767-5.51,6.169c0,0.002,0,0.005,0,0.007l-1.525,0.193l-11.454-14.778c4.123-1.091,9.284-2.263,9.284-2.263
		l19.366,10.776C143.833,25.444,138.429,27.52,136.445,28.195z"/>
</g>
<g>
	<path fill="#777777" d="M176.257,33.642c-0.03-0.423-0.233-0.899-0.54-1.348c-0.309-0.448-0.703-0.873-1.129-1.256
		c-0.428-0.383-0.883-0.739-1.347-1.073c-0.467-0.33-0.945-0.634-1.419-0.93c-0.956-0.576-1.907-1.096-2.822-1.559
		c-0.916-0.463-1.791-0.889-2.605-1.266c-0.817-0.369-1.567-0.71-2.236-1.004c-0.671-0.29-1.256-0.543-1.737-0.752
		c-0.09-0.038-0.175-0.074-0.257-0.11c-9.109-1.189-15.952-2.001-15.952-2.001l-21.95-12.065c-4.95-4.102-6.242-0.251-6.242-0.251
		c-3.659,1.281-8.819,3.077-8.819,3.077c-32.279,5.132-48.844,24.631-48.844,24.631l-17.646,2.562
		c-1.51-4.107-4.74-3.077-4.74-3.077c-32.062,4.622-23.453,8.724-23.453,8.724c1.285,0.77-0.21,2.571-0.21,2.571l-0.283,0.45
		c62.533,1.991,112.995-2.229,144.534-6.167c0.97-0.121,1.928-0.242,2.875-0.364c0.254-0.097,0.589-0.23,1.006-0.379
		c0.489-0.186,1.083-0.415,1.764-0.664c0.677-0.261,1.441-0.556,2.275-0.877c0.83-0.327,1.721-0.703,2.657-1.104
		c0.931-0.415,1.906-0.867,2.88-1.389c0.971-0.523,1.949-1.13,2.801-1.868c0.42-0.369,0.811-0.781,1.082-1.219
		C176.171,34.492,176.283,34.06,176.257,33.642z M68.334,36.958c-5.197,0.554-0.668-2.038-0.668-2.038
		c11.316-10.537,34.159-17.076,41.969-19.075l-0.196,0.225l11.062,14.276L68.334,36.958z M131.342,28.977l-0.373-4
		c0.044-0.001,0.087-0.007,0.131-0.007c1.989,0,3.662,1.494,4.151,3.514L131.342,28.977z M130.168,25.084l0.372,3.994l-3.733,0.471
		C126.869,27.361,128.287,25.544,130.168,25.084z M136.445,28.195c-0.6-2.678-2.768-4.668-5.344-4.668
		c-3.038,0-5.51,2.767-5.51,6.169c0,0.002,0,0.005,0,0.007l-1.525,0.193l-11.454-14.778c4.123-1.091,9.284-2.263,9.284-2.263
		l19.366,10.776C143.833,25.444,138.429,27.52,136.445,28.195z"/>
</g>
</svg>
