<?xml version="1.0" encoding="utf-8"?>
<!-- Generator: Adobe Illustrator 17.0.0, SVG Export Plug-In . SVG Version: 6.00 Build 0)  -->
<!DOCTYPE svg PUBLIC "-//W3C//DTD SVG 1.1//EN" "http://www.w3.org/Graphics/SVG/1.1/DTD/svg11.dtd">
<svg version="1.1" id="레이어_1" xmlns="http://www.w3.org/2000/svg" xmlns:xlink="http://www.w3.org/1999/xlink" x="0px"
	 y="0px" width="408.475px" height="373.729px" viewBox="0 0 408.475 373.729" enable-background="new 0 0 408.475 373.729"
	 xml:space="preserve">
<g>
	<path fill="#FFFFFF" d="M187.736,298.322c-19.296,0-34.936,15.64-34.936,34.936c0,19.285,15.64,34.925,34.936,34.925
		c19.285,0,34.926-15.64,34.926-34.925C222.662,313.962,207.021,298.322,187.736,298.322z"/>
	<path fill="#FFFFFF" d="M314.856,298.322c-19.296,0-34.936,15.64-34.936,34.936c0,19.285,15.64,34.925,34.936,34.925
		c19.285,0,34.925-15.64,34.925-34.925C349.782,313.962,334.141,298.322,314.856,298.322z"/>
	<polygon fill="#FFFFFF" points="142.137,281.981 142.776,281.819 142.107,281.819 	"/>
	<path fill="#FFFFFF" d="M352.33,225.759c0.467-0.477,0.874-1.016,1.219-1.595c0,0,0-0.01,0.01-0.02
		c0.102-0.173,0.203-0.335,0.285-0.518c0.386-0.701,0.69-1.432,0.914-2.215L403.785,95.34c3.052-7.849,0.368-16.768-6.51-21.627h0
		c-4.57-3.229-10.028-4.963-15.623-4.963H114.605l-14.259-52.576C98.286,9.45,92.093,4.847,85.061,4.813L20.004,4.495
		c-8.5,0.031-15,4.773-14.97,12.522c0.041,7.749,6.581,15.589,15.071,15.548l57.319,1.412l65.525,247.842h209.98
		c10.339,0,18.728-5.931,18.728-13.233c0-7.312-8.388-13.233-18.728-13.233H164.642l-6.794-25.084H341.81
		C346.085,230.268,349.894,228.491,352.33,225.759z"/>
</g>
</svg>
