<?xml version="1.0" encoding="utf-8"?>
<!-- Generator: Adobe Illustrator 17.0.0, SVG Export Plug-In . SVG Version: 6.00 Build 0)  -->
<!DOCTYPE svg PUBLIC "-//W3C//DTD SVG 1.1//EN" "http://www.w3.org/Graphics/SVG/1.1/DTD/svg11.dtd">
<svg version="1.1" id="레이어_1" xmlns="http://www.w3.org/2000/svg" xmlns:xlink="http://www.w3.org/1999/xlink" x="0px"
	 y="0px" width="202.685px" height="189.262px" viewBox="0 0 202.685 189.262" enable-background="new 0 0 202.685 189.262"
	 xml:space="preserve">
<path fill="#888888" d="M175.761,26.808c-41.1-34.69-130.21-31.74-161.54,14.68c-11.31,16.76-14.02,37.74-6.7,56.66
	c10.68,27.61,42.12,50.62,94.11,50.62c8.67,0,17.36-0.66,25.9-2.12l39.92,39.79v-54.65c15.15-9.81,25-22.98,29.54-37.19
	C204.991,69.528,195.511,43.468,175.761,26.808z M66.321,87.798c-5.9,0-10.69-4.79-10.69-10.7c0-5.91,4.79-10.69,10.69-10.69
	c5.91,0,10.7,4.78,10.7,10.69C77.022,83.008,72.231,87.798,66.321,87.798z M101.631,87.798c-5.9,0-10.69-4.79-10.69-10.7
	c0-5.91,4.79-10.69,10.69-10.69c5.91,0,10.7,4.78,10.7,10.69C112.332,83.008,107.542,87.798,101.631,87.798z M136.941,87.798
	c-5.91,0-10.7-4.79-10.7-10.7c0-5.91,4.79-10.69,10.7-10.69c5.91,0,10.69,4.78,10.69,10.69
	C147.631,83.008,142.852,87.798,136.941,87.798z"/>
</svg>
