<?xml version="1.0" encoding="utf-8"?>
<!-- Generator: Adobe Illustrator 17.0.0, SVG Export Plug-In . SVG Version: 6.00 Build 0)  -->
<!DOCTYPE svg PUBLIC "-//W3C//DTD SVG 1.1//EN" "http://www.w3.org/Graphics/SVG/1.1/DTD/svg11.dtd">
<svg version="1.1" id="레이어_1" xmlns="http://www.w3.org/2000/svg" xmlns:xlink="http://www.w3.org/1999/xlink" x="0px"
	 y="0px" width="23px" height="40.75px" viewBox="0 0 23 40.75" enable-background="new 0 0 23 40.75" xml:space="preserve">
<g>
	<g>
		<path fill="#FFFFFF" d="M10.237,39.065c-0.586,0-1.177-0.06-1.766-0.181c-3.211-0.66-5.736-3.153-6.433-6.349
			c-0.715-3.281,0.475-6.568,3.105-8.579c0.865-0.661,1.361-1.655,1.361-2.727V5.691c0-2.024,1.587-3.719,3.609-3.792
			C12.243,1.821,14,3.531,14,5.644v15.585c0,1.061,0.499,2.074,1.335,2.708c1.014,0.769,1.853,1.773,2.428,2.904
			c0.603,1.187,0.908,2.468,0.908,3.808c0,2.542-1.131,4.921-3.103,6.529C14.054,38.412,12.177,39.065,10.237,39.065z M10.115,3.181
			C8.801,3.253,7.786,4.368,7.786,5.684v15.545c0,1.453-0.697,2.853-1.864,3.745C3.69,26.68,2.682,29.472,3.29,32.262
			c0.589,2.702,2.724,4.809,5.439,5.367c2.16,0.444,4.358-0.083,6.03-1.445c1.672-1.363,2.631-3.381,2.631-5.535
			c0-2.253-1.031-4.327-2.829-5.69c-1.154-0.875-1.842-2.269-1.842-3.729V5.644C12.718,4.239,11.537,3.104,10.115,3.181z"/>
	</g>
	<g>
		<path fill="#FFFFFF" d="M10.47,33.293c-2.009,0.128-3.672-1.535-3.543-3.544c0.106-1.66,1.447-3.002,3.108-3.108
			c2.009-0.128,3.672,1.535,3.543,3.544C13.471,31.846,12.13,33.187,10.47,33.293z M10.439,27.925
			c-1.278-0.114-2.344,0.952-2.23,2.23c0.087,0.979,0.876,1.768,1.855,1.855c1.278,0.114,2.344-0.952,2.23-2.23
			C12.207,28.801,11.418,28.012,10.439,27.925z"/>
	</g>
	<g>
		<path fill="#FFFFFF" d="M10.252,27.275L10.252,27.275c-0.354,0-0.641-0.287-0.641-0.641V12.868c0-0.354,0.287-0.641,0.641-0.641
			l0,0c0.354,0,0.641,0.287,0.641,0.641v13.766C10.893,26.989,10.606,27.275,10.252,27.275z"/>
	</g>
	<g>
		<path fill="#FFFFFF" d="M19.609,21.994h-3.128c-0.354,0-0.641-0.287-0.641-0.641l0,0c0-0.354,0.287-0.641,0.641-0.641h3.128
			c0.354,0,0.641,0.287,0.641,0.641l0,0C20.25,21.708,19.963,21.994,19.609,21.994z"/>
	</g>
	<g>
		<path fill="#FFFFFF" d="M18.071,18.405h-1.589c-0.354,0-0.641-0.287-0.641-0.641l0,0c0-0.354,0.287-0.641,0.641-0.641h1.589
			c0.354,0,0.641,0.287,0.641,0.641l0,0C18.712,18.119,18.425,18.405,18.071,18.405z"/>
	</g>
	<g>
		<path fill="#FFFFFF" d="M19.609,14.816h-3.128c-0.354,0-0.641-0.287-0.641-0.641l0,0c0-0.354,0.287-0.641,0.641-0.641h3.128
			c0.354,0,0.641,0.287,0.641,0.641l0,0C20.25,14.529,19.963,14.816,19.609,14.816z"/>
	</g>
	<g>
		<path fill="#FFFFFF" d="M18.071,11.227h-1.589c-0.354,0-0.641-0.287-0.641-0.641l0,0c0-0.354,0.287-0.641,0.641-0.641h1.589
			c0.354,0,0.641,0.287,0.641,0.641l0,0C18.712,10.94,18.425,11.227,18.071,11.227z"/>
	</g>
	<g>
		<path fill="#FFFFFF" d="M19.609,7.638h-3.128c-0.354,0-0.641-0.287-0.641-0.641l0,0c0-0.354,0.287-0.641,0.641-0.641h3.128
			c0.354,0,0.641,0.287,0.641,0.641l0,0C20.25,7.351,19.963,7.638,19.609,7.638z"/>
	</g>
</g>
</svg>
