<?xml version="1.0" encoding="utf-8"?>
<!-- Generator: Adobe Illustrator 17.0.0, SVG Export Plug-In . SVG Version: 6.00 Build 0)  -->
<!DOCTYPE svg PUBLIC "-//W3C//DTD SVG 1.1//EN" "http://www.w3.org/Graphics/SVG/1.1/DTD/svg11.dtd">
<svg version="1.1" xmlns="http://www.w3.org/2000/svg" xmlns:xlink="http://www.w3.org/1999/xlink" x="0px" y="0px" width="94px"
	 height="167px" viewBox="0 0 94 167" enable-background="new 0 0 94 167" xml:space="preserve">
<g id="Guides_For_Artboard">
</g>
<g id="Layer_1">
	<path fill-rule="evenodd" clip-rule="evenodd" fill="#777777" d="M61.222,60.558l23.443,17.972
		c3.345,2.58,3.996,7.398,1.417,10.743c-2.552,3.345-7.37,3.969-10.715,1.417L58.784,77.991L61.222,60.558z M52.519,5.764
		c8.136,0,14.74,6.605,14.74,14.74c0,8.135-6.604,14.74-14.74,14.74c-8.163,0-14.74-6.605-14.74-14.74
		C37.779,12.369,44.356,5.764,52.519,5.764L52.519,5.764z M52.889,91.314c-0.454,3.288,0.17,4.762,2.692,6.944l11.792,10.205
		c2.637,2.296,4.479,5.868,4.734,9.354l2.579,34.526c0.368,5.045-3.458,9.496-8.504,9.864c-5.046,0.368-9.496-3.43-9.864-8.504
		l-2.439-32.542l-19.247-16.525c-5.868-5.046-7.37-10.12-6.265-18.058l3.401-24.066l-4.96,2.608l-7.483,24.406
		c-1.248,4.025-5.556,6.293-9.581,5.074c-4.025-1.247-6.293-5.556-5.074-9.581l7.71-25.058c1.02-3.345,3.572-6.435,6.662-8.051
		l14.967-7.88c3.572-1.899,7.313-4.223,11.367-4.535c7.654-0.595,13.89,6.548,12.813,14.117L52.889,91.314z M19.298,161.811
		c4.847,1.531,10.063-1.134,11.594-5.952l12.415-38.552l-11.253-9.666c-1.474-1.247-2.722-2.551-3.742-3.854l-14.939,46.432
		C11.814,155.036,14.478,160.252,19.298,161.811L19.298,161.811z"/>
</g>
</svg>
